<?xml version="1.0" encoding="utf-8"?>
<!-- Generator: Adobe Illustrator 24.0.2, SVG Export Plug-In . SVG Version: 6.00 Build 0)  -->
<svg version="1.1" id="Layer_1" xmlns="http://www.w3.org/2000/svg" xmlns:xlink="http://www.w3.org/1999/xlink" x="0px" y="0px"
	 viewBox="0 0 600 300" style="enable-background:new 0 0 600 300;" xml:space="preserve">
<style type="text/css">
	.st0{fill:#FFFFFF;}
</style>
<g>
	<g>
		<path d="M62.18,191.96c-6.56,0-12.65-2.15-18.1-6.39c-5.79-4.5-8.85-11.28-8.85-19.59c0-7.73,2.61-16.25,7.74-25.34
			c5.04-8.91,11.4-16.3,18.91-21.95c7.87-5.93,15.81-8.93,23.59-8.93c5.42,0,9.89,1.72,13.29,5.13c3.35,3.36,5.13,7.54,5.13,12.11
			c0,4.13-0.35,7.04-1.11,9.16c-0.96,2.69-2.88,4.93-5.7,6.65c-2.63,1.61-4.95,2.39-7.08,2.39c-2.55,0-4.87-0.94-6.72-2.73
			c-1.9-1.84-2.91-4.31-2.91-7.16c0-1.37,0.26-2.99,0.81-5.07c-1.76,0.8-3.92,2.16-6.54,4.41c-4.73,4.07-8.85,9.22-12.26,15.32
			c-3.25,5.83-4.91,10.9-4.91,15.05c0,2.12,0.53,3.73,1.66,5.08c0.6,0.72,1.65,1.55,4.4,1.55c1.09,0,3.12-0.26,6.58-1.49
			c2.88-1.02,5.58-2.43,8.03-4.17c4.16-2.98,6.72-4.14,9.13-4.14c5.29,0,8.84,3.52,8.84,8.75c0,6.32-6.59,11.15-12.33,14.65
			C76.48,189.7,69.21,191.96,62.18,191.96z"/>
		<path class="st0" d="M87.37,135.3c0,1.76,0.57,3.21,1.69,4.29c1.1,1.07,2.43,1.61,3.94,1.61c1.38,0,3.01-0.59,5-1.8
			c2.02-1.23,3.37-2.77,4.02-4.58c0.59-1.66,0.88-4.22,0.88-7.82c0-3.53-1.33-6.65-3.96-9.28c-2.63-2.62-6.15-3.96-10.47-3.96
			c-6.89,0-14.02,2.73-21.18,8.12c-7.06,5.32-13.06,12.29-17.83,20.72c-4.79,8.48-7.23,16.34-7.23,23.37
			c0,7.14,2.46,12.66,7.3,16.43c4.73,3.68,9.99,5.55,15.64,5.55c6.29,0,12.86-2.06,19.52-6.13c7.1-4.33,10.41-7.9,10.41-11.23
			c0-3.02-1.76-4.75-4.84-4.75c-0.96,0-2.6,0.39-6.8,3.4c-2.75,1.96-5.78,3.54-9.01,4.68c-3.21,1.14-5.87,1.72-7.91,1.72
			c-3.34,0-5.79-0.97-7.46-2.98c-1.75-2.08-2.59-4.59-2.59-7.65c0-4.84,1.82-10.56,5.41-17c3.63-6.51,8.05-12.03,13.14-16.4
			c4.94-4.25,9.39-6.41,13.22-6.41c0.17,0,0.57,0,0.57,1.53c0,1.07-0.22,2.45-0.65,4.08C87.63,132.74,87.37,134.21,87.37,135.3z"/>
		<path d="M161.15,191.65c-3.85,0-7.52-1.92-10.89-5.71c-2.66-2.99-5.16-7.04-7.41-12.04c-0.73-1.61-1.33-2.97-1.8-4.1
			c-1.41,0.23-3.33,0.59-5.93,1.12c-5.23,1.07-9.47,2.11-12.59,3.1c-1.32,0.41-2.51,0.62-3.63,0.65c-0.75,1.31-1.68,2.87-2.81,4.73
			c-3.92,6.43-5.77,8.21-7.63,9.12c-1.78,0.86-3.42,1.28-5.04,1.28c-2.34,0-4.69-0.95-7.19-2.91c-3.58-2.8-4.33-5.85-4.33-7.91
			c0-1.95,0-3.36,11.93-21.52c3.91-5.96,7.53-11.96,10.77-17.83c9.1-16.6,11.55-20.39,12.61-21.8c3.2-4.27,6.63-5.17,8.95-5.17
			c4.86,0,7.7,1.85,9.25,3.48c2.49,2.3,2.49,5.74,2.49,6.9c0,0.87-0.05,1.67-0.14,2.4c5.07,15.39,9.09,26.43,11.94,32.82
			c3.42,7.64,6.23,11.34,7.99,13.1c2.38,2.39,3.11,3.33,3.54,4.01c0.91,1.42,1.37,3.13,1.37,5.07c0,3.14-1.21,5.93-3.5,8.08
			C166.9,190.56,164.15,191.65,161.15,191.65z M131.92,151.15c0.61-0.12,1.29-0.25,2.05-0.41c-0.22-0.66-0.46-1.37-0.71-2.13
			L131.92,151.15z"/>
		<path class="st0" d="M167.85,174.19c-2.9-2.9-5.87-7.71-8.81-14.3c-2.97-6.65-7.14-18.13-12.4-34.14
			c0.17-0.76,0.25-1.65,0.25-2.71c0-1.27-0.14-3.05-1.3-4.03c-1.41-1.56-3.58-2.34-6.44-2.34c-2.05,0-3.98,1.2-5.75,3.57
			c-1.54,2.05-5.56,9.03-12.31,21.34c-3.28,5.95-6.96,12.04-10.93,18.1c-11.28,17.16-11.28,18.52-11.28,19.33
			c0,1.71,0.94,3.31,2.8,4.76c1.77,1.38,3.31,2.06,4.73,2.06c1,0,2.08-0.29,3.29-0.88c0.93-0.45,2.37-1.71,5.97-7.6
			c1.88-3.09,3.21-5.37,4-6.9c0.58,0.17,1.23,0.26,1.94,0.26c0.8,0,1.68-0.15,2.7-0.47c3.25-1.03,7.62-2.12,13.01-3.21
			c5.13-1.04,7.85-1.45,9.29-1.59c0.36,1.06,1.15,3.01,2.88,6.84c2.09,4.63,4.36,8.34,6.75,11.02c2.59,2.9,5.25,4.37,7.91,4.37
			c2,0,3.75-0.69,5.2-2.05c1.48-1.39,2.23-3.12,2.23-5.16c0-1.16-0.25-2.14-0.74-2.92C170.59,177.12,170,176.34,167.85,174.19z
			 M140.12,154.18c-5.21,1.07-8.47,1.68-9.75,1.83c-0.92,0.13-1.83,0.26-2.74,0.4l9.46-17.99c2.49,7.59,4.19,12.67,5.15,15.36
			C141.54,153.9,140.83,154.03,140.12,154.18z"/>
		<path d="M179.26,190.55c-3.56,0-6.64-1.57-8.66-4.43c-1.66-2.35-2.5-4.78-2.5-7.22c0-0.9,0.16-2.1,0.95-5.34
			c0.62-2.48,1.13-5.36,1.51-8.58l3.95-36.38c0.35-3.79,0.66-6.1,0.98-7.43c0.54-2.23,1.82-4.17,3.82-5.77
			c2.02-1.62,4.58-2.43,7.61-2.43c2.87,0,5.49,1.1,7.58,3.19c2.09,2.09,3.19,4.62,3.19,7.32c0,1.48-0.28,3.7-0.88,6.97
			c-0.74,3.99-1.8,11.83-3.15,23.29c-0.73,6.16-1.2,10.24-1.5,12.93c0.8-0.12,1.71-0.26,2.74-0.42c2.5-0.41,5.1-0.68,7.71-0.81
			c8.07-0.38,11.73-0.94,13.38-1.34c1.39-0.33,2.38-0.47,3.24-0.47c3.12,0,5.8,1.08,7.76,3.13c1.89,1.98,2.88,4.47,2.88,7.2
			c0,3.72-1.57,6.87-4.53,9.11c-2.54,1.92-5.45,2.9-8.66,2.9c-0.9,0-2.23-0.09-4.2-0.29c-1.97-0.17-2.9-0.19-3.27-0.19
			c-7.4,0-14.68,1.11-21.64,3.31C183.83,189.99,181.19,190.55,179.26,190.55z"/>
		<path class="st0" d="M222.21,167.64c-0.54,0-1.26,0.11-2.29,0.35c-2.65,0.65-7.4,1.14-14.13,1.45c-2.45,0.12-4.9,0.38-7.28,0.76
			c-4.29,0.68-6.62,0.98-7.87,1.1c0.08-1.05,0.49-4.95,2.04-18.03c1.37-11.57,2.44-19.49,3.19-23.55c0.55-2.99,0.82-5.03,0.82-6.25
			c0-1.64-0.68-3.15-2.02-4.49s-2.94-2.02-4.75-2.02c-2.1,0-3.82,0.52-5.11,1.56c-1.29,1.03-2.11,2.24-2.43,3.59
			c-0.27,1.11-0.56,3.38-0.89,6.92l-3.95,36.42c-0.4,3.38-0.94,6.43-1.59,9.05c-0.74,3.04-0.83,3.95-0.83,4.4
			c0,1.6,0.6,3.25,1.77,4.91c1.27,1.79,3.14,2.74,5.4,2.74c1.49,0,3.81-0.51,7.09-1.56c7.35-2.32,15.03-3.49,22.84-3.49
			c0.77,0,2.02,0.07,3.67,0.21c1.8,0.18,3.04,0.27,3.8,0.27c2.32,0,4.42-0.7,6.25-2.08c1.95-1.48,2.94-3.47,2.94-5.92
			c0-1.71-0.6-3.21-1.78-4.44C225.87,168.28,224.24,167.64,222.21,167.64z"/>
		<path d="M237.75,191.43c-3.83,0-6.84-1.02-8.95-3.04c-2.03-1.95-3.23-4.7-3.56-8.17l-0.13-1.42c-0.14-1.29,0.15-2.45,1.01-5
			c0.71-2.2,2.02-8.02,4.07-23.02c1.54-11.27,2.14-16.27,2.37-18.48c-0.18-0.32-0.37-0.67-0.57-1.07c-0.88-1.72-1.32-3.54-1.32-5.41
			c0-1.03,0.12-1.94,0.38-2.77c0.56-2.11,2.1-3.86,4.58-5.19c1.95-1.05,3.9-1.58,5.81-1.58c1.46,0,2.96,0.09,4.46,0.26
			c1.83-0.05,7.32-0.56,22.73-2.58c6.13-0.81,7.07-0.91,7.52-0.92l0.37-0.03c0.65-0.05,1.24-0.07,1.81-0.07
			c8.87,0,12.03,5.5,12.03,10.65c0,2.15-0.94,4.22-2.87,6.33c-1.69,1.85-3.45,3-5.39,3.51c-0.37,0.1-0.76,0.16-1.15,0.18l-13.52,0.7
			c-4.47,0.25-8.37,0.65-11.55,1.18c-0.66,0.11-1.23,0.21-1.7,0.3c-0.26,1.71-0.74,3.96-1.47,6.97c0.24-0.02,0.49-0.05,0.74-0.08
			c4.06-0.44,5.93-0.78,6.78-0.98c4.67-1.14,8.3-1.69,11.08-1.69c11.55,0,12.44,7.37,12.44,9.63c0,5.34-2.88,7.88-4.6,8.91
			c-2.03,1.22-4.68,1.98-8.32,2.36c-1.61,0.17-3.42,0.42-5.39,0.75c-1.24,0.2-2.75,0.39-4.5,0.57c-6.35,0.74-9.67,1.23-11.38,1.54
			c-0.16,0.82-0.37,1.99-0.65,3.64c-0.19,1.13-0.34,2.08-0.46,2.9c1.53-0.17,3.62-0.42,6.48-0.79c7.27-0.94,9.86-1.36,10.75-1.54
			c5.8-1.23,7.84-1.39,8.97-1.39c0.27,0,0.54,0.02,0.82,0.06c7.56,1.07,10.27,6.19,10.27,10.63c0,3.01-1.2,5.63-3.38,7.37
			c-0.38,0.3-0.76,0.53-1.16,0.71c-3.54,1.59-8.28,2.58-14.1,2.94c-3.84,0.22-8.57,0.71-14.06,1.44
			C247.73,190.86,242.59,191.43,237.75,191.43z"/>
		<path class="st0" d="M281.33,116.92c-0.47,0-0.97,0.02-1.49,0.06l-0.51,0.04c-0.18,0-0.41,0-7.18,0.89
			c-13.1,1.72-20.99,2.6-23.45,2.62c-1.43-0.17-2.86-0.26-4.26-0.26c-1.24,0-2.56,0.37-3.92,1.1c-1.52,0.82-2.38,1.72-2.63,2.76
			c-0.15,0.47-0.23,1.02-0.23,1.68c0,1.23,0.3,2.44,0.89,3.6c0.52,1.02,0.85,1.54,1.11,1.86c-0.11,1.63-0.67,6.59-2.51,20.04
			c-1.68,12.28-3.11,20.28-4.24,23.76c-0.84,2.47-0.87,2.93-0.82,3.3l0.13,1.46c0.24,2.5,1.03,4.4,2.34,5.66
			c1.34,1.28,3.42,1.93,6.18,1.93c4.6,0,9.55-0.56,14.61-1.64c5.65-0.75,10.52-1.25,14.49-1.48c5.34-0.33,9.61-1.2,12.7-2.59
			c0.12-0.05,0.22-0.12,0.32-0.2c0.86-0.69,1.88-1.98,1.88-4.25c0-2.13-0.89-5.82-6.87-6.67c-0.07-0.01-0.14-0.01-0.21-0.01
			c-1.35,0-4.02,0.43-8.17,1.31c-1.39,0.28-5.11,0.82-11.03,1.59c-5.9,0.76-9.57,1.15-10.9,1.15c-0.3,0-0.44-0.06-0.46-0.07
			c0,0-0.03-0.04-0.06-0.17c0.02-1.46,0.34-4.03,0.95-7.66c0.84-5.01,1.15-5.97,1.22-6.14c0.05-0.11,0.1-0.16,0.13-0.19
			c0.06-0.01,0.12-0.03,0.19-0.05c0.93-0.33,4.11-0.97,14.02-2.12c1.69-0.18,3.12-0.36,4.26-0.54c2.07-0.35,3.96-0.61,5.63-0.78
			c3-0.32,5.19-0.91,6.68-1.81c1.21-0.73,2.66-2.27,2.66-5.48c0-2.57-1.46-5.63-8.44-5.63c-2.46,0-5.78,0.52-10.15,1.58
			c-1.4,0.34-3.85,0.69-7.28,1.07c-2.49,0.27-4.58,0.44-6.23,0.52c0.22-1.41,0.58-3.08,1.08-5c0.93-3.8,1.46-6.39,1.62-7.98
			c0.07-0.94,0.17-1.45,0.23-1.71c0.47-0.15,1.67-0.45,4.63-0.95c3.33-0.56,7.37-0.97,12-1.23l13.54-0.7
			c0.1-0.01,0.21-0.02,0.31-0.05c1.17-0.31,2.31-1.08,3.47-2.35c1.23-1.34,1.82-2.52,1.82-3.63
			C289.37,121.08,288.32,116.92,281.33,116.92z"/>
		<path d="M297.08,191.38c-4.51,0-7.01-1.89-8.32-3.48c-1.7-2.07-2.46-4.97-2.46-9.4c0-2.8,0.61-6.49,1.88-11.26
			c0.01-0.07,0.02-0.13,0.04-0.2l3.22-14.88c2.96-14.09,3.67-20.56,3.75-23.5c0.12-2.92,0.34-4.7,0.75-6.03
			c0.63-2.02,2.03-3.79,4.18-5.25c2.02-1.38,4.33-2.07,6.85-2.07c1.79,0,3.62,0.48,5.58,1.46c3.56,1.78,4.98,5.83,5.82,9.16
			c1.1,4.53,4.09,10.81,8.9,18.7c2.14,3.51,4.2,6.73,6.16,9.66c0.39-2.23,0.8-4.6,1.21-7.11c0.95-5.79,1.84-10.87,2.67-15.1
			c0.62-3.25,1-6.15,1.14-8.61c0.32-5.55,2.82-8.25,4.86-9.54c2.28-1.44,4.68-2.17,7.13-2.17c1.79,0,5.17,0.59,7.71,4.51
			c1.45,2.23,2.18,4.92,2.18,7.98c0,2.16-0.48,4.79-1.5,8.27c-1.76,6.41-3.54,14.96-5.26,25.33c-2.35,14.18-2.56,16.79-2.56,17.26
			v1.49c0,2.39-0.24,4.18-0.76,5.63c-0.71,1.99-2.18,3.71-4.36,5.1c-2.02,1.29-4.5,1.94-7.37,1.94c-1.87,0-3.3-0.24-4.49-0.74
			c-1.37-0.58-2.57-1.57-4.03-3.32c-1.03-1.24-2.1-2.82-3.16-4.72c-1.66-2.86-2.4-3.94-2.69-4.32c-4.4-5.59-8.75-11.84-12.99-18.66
			c-0.45,3.05-0.93,6.51-1.46,10.38c0,0-0.54,4.03-0.55,4.08c-0.21,1.23-0.4,3.08-0.56,5.48c-0.29,4.49-1.52,7.82-3.76,10.18
			C302.46,190.11,299.85,191.38,297.08,191.38z"/>
		<path class="st0" d="M353.44,115.74c-1.69,0-3.37,0.52-5,1.55c-1.82,1.15-2.83,3.29-3,6.37c-0.14,2.64-0.55,5.73-1.2,9.16
			c-0.82,4.21-1.71,9.25-2.65,14.99c-1.05,6.42-2.05,11.93-2.97,16.44c-3.55-4.67-7.5-10.55-11.76-17.55
			c-5.02-8.24-8.17-14.9-9.36-19.8c-0.92-3.66-2.11-5.75-3.73-6.56c-1.4-0.7-2.64-1.04-3.79-1.04c-1.71,0-3.25,0.46-4.6,1.38
			c-1.4,0.95-2.25,1.98-2.61,3.13c-0.29,0.95-0.48,2.52-0.57,4.95c-0.11,4.52-1.4,12.68-3.83,24.24l-3.22,14.88l-0.01,0.12
			c-1.22,4.56-1.81,8-1.81,10.49c0,3.39,0.49,5.58,1.55,6.86c1.1,1.34,2.86,2.02,5.22,2.02c1.62,0,3.26-0.85,4.85-2.53
			c1.57-1.65,2.44-4.17,2.67-7.7c0.17-2.55,0.37-4.51,0.61-5.88l0.53-3.95c1.32-9.7,2.4-16.87,3.22-21.41
			c5.89,10.44,12.06,19.78,18.36,27.79c0.63,0.82,1.65,2.44,3,4.79c0.95,1.68,1.87,3.07,2.75,4.12c1.01,1.21,1.79,1.89,2.52,2.2
			c0.69,0.29,1.62,0.43,2.94,0.43c2.1,0,3.85-0.44,5.22-1.31c1.41-0.9,2.33-1.93,2.74-3.07c0.35-0.99,0.53-2.39,0.53-4.28v-1.49
			c0-0.97,0.45-4.86,2.62-17.91c1.74-10.51,3.55-19.19,5.37-25.8c0.9-3.07,1.33-5.4,1.33-7.15c0-2.28-0.52-4.23-1.54-5.8
			C356.36,116.2,354.63,115.74,353.44,115.74z"/>
		<path d="M370.7,192c-2.21,0-5.44-0.72-8.26-4.17c-2.02-2.47-3-4.76-3-7c0-1.47,0.44-3.05,1.4-4.93l0.74-1.93
			c0.15-0.82,0.37-2.62,0.55-6.46c0.69-10.42,1.98-21.37,3.85-32.63c0.01-0.04,0.01-0.09,0.02-0.13c0.11-0.53,0.19-1,0.26-1.42
			c-4.46-2.45-5.02-6.24-5.02-7.97c0-2.89,1.23-5.63,3.57-7.91c2.3-2.25,5.04-3.44,7.91-3.44c0.04,0,6.04,0.18,6.04,0.18
			c2.51,0,6.06-0.19,10.58-0.55c4.12-0.36,7.58-0.55,10.24-0.55c9.55,0,17.47,2.79,23.54,8.3c6.23,5.65,9.39,13.15,9.39,22.29
			c0,10.06-4.57,19.15-13.57,27.02c-8.46,7.39-18.79,12.5-30.72,15.18c-3.49,0.77-4.88,1.22-5.4,1.43
			c-0.59,0.23-1.62,0.71-3.21,1.72C376.73,191,373.74,192,370.7,192z M387.64,133.68c-2.29,14.46-3.62,25.48-3.97,32.87
			c1.64-0.46,3.72-1.07,6.38-1.89c6.41-1.98,11.64-5.03,15.54-9.05c3.62-3.74,5.3-7.64,5.3-12.3c0-3.25-0.96-5.51-3.12-7.33
			c-2.35-1.98-5.63-2.99-9.75-2.99C395.12,132.98,391.63,133.21,387.64,133.68z"/>
		<path class="st0" d="M423.42,124.37c-5.31-4.82-12.33-7.27-20.85-7.27c-2.55,0-5.89,0.18-9.92,0.53
			c-4.66,0.38-8.36,0.57-10.95,0.57l-5.98-0.18c-1.83,0-3.56,0.77-5.11,2.3c-1.57,1.53-2.36,3.23-2.36,5.05
			c0,1.8,0.94,4.17,5.35,5.42c-0.04,1.12-0.27,2.7-0.68,4.75c-1.85,11.13-3.12,21.95-3.8,32.17c-0.17,3.53-0.4,6.01-0.69,7.37
			l-0.94,2.45c-0.72,1.38-1.05,2.43-1.05,3.3c0,1.28,0.69,2.74,2.1,4.47c1.46,1.79,3.2,2.7,5.16,2.7c2.24,0,4.5-0.78,6.69-2.3
			c1.52-0.97,2.85-1.68,3.96-2.11c1.12-0.44,3.13-0.98,5.98-1.6c11.27-2.53,21.01-7.34,28.96-14.29c8.1-7.08,12.2-15.15,12.2-24
			C431.5,135.73,428.78,129.23,423.42,124.37z M411.47,158.38c-4.37,4.51-10.17,7.91-17.23,10.09c-6.68,2.07-9.98,2.88-11.62,3.18
			c-0.02-0.39-0.04-0.88-0.04-1.51c0-7.78,1.54-21.26,4.59-40.07c0.17-0.02,0.34-0.04,0.53-0.07c5.18-0.69,9.67-1.04,13.34-1.04
			c5.09,0,9.24,1.32,12.33,3.93c3.06,2.58,4.54,5.98,4.54,10.39C417.9,148.98,415.8,153.92,411.47,158.38z"/>
		<path d="M489.18,191.65c-3.85,0-7.52-1.92-10.89-5.71c-2.67-2.99-5.16-7.04-7.41-12.04c-0.73-1.61-1.33-2.97-1.8-4.1
			c-1.41,0.23-3.33,0.59-5.93,1.12c-5.26,1.07-9.49,2.12-12.59,3.1c-1.32,0.41-2.51,0.62-3.63,0.65c-0.75,1.3-1.68,2.87-2.81,4.73
			c-3.92,6.43-5.77,8.21-7.64,9.12c-1.77,0.86-3.42,1.28-5.03,1.28c-2.34,0-4.69-0.95-7.19-2.9c-3.58-2.8-4.33-5.85-4.33-7.92
			c0-1.95,0-3.36,11.93-21.52c3.91-5.97,7.54-11.97,10.77-17.83c9.1-16.6,11.55-20.39,12.61-21.8c3.2-4.28,6.63-5.17,8.95-5.17
			c4.86,0,7.7,1.85,9.25,3.48c2.5,2.3,2.5,5.74,2.5,6.9c0,0.88-0.05,1.67-0.14,2.4c5.07,15.4,9.09,26.43,11.94,32.82
			c3.42,7.65,6.23,11.34,7.99,13.1c2.38,2.38,3.11,3.33,3.54,4c0.91,1.42,1.37,3.13,1.37,5.07c0,3.14-1.21,5.93-3.5,8.08
			C494.93,190.56,492.19,191.65,489.18,191.65z M459.95,151.14c0.61-0.12,1.29-0.25,2.05-0.41c-0.22-0.66-0.46-1.37-0.71-2.13
			L459.95,151.14z"/>
		<path class="st0" d="M495.88,174.19c-2.9-2.9-5.87-7.71-8.81-14.3c-2.97-6.65-7.14-18.13-12.4-34.14
			c0.17-0.76,0.25-1.65,0.25-2.71c0-1.27-0.14-3.05-1.3-4.03c-1.41-1.56-3.58-2.34-6.44-2.34c-2.04,0-3.98,1.2-5.75,3.57
			c-1.54,2.05-5.56,9.03-12.31,21.34c-3.28,5.95-6.95,12.03-10.93,18.1c-11.28,17.16-11.28,18.52-11.28,19.33
			c0,1.71,0.94,3.31,2.8,4.76c1.77,1.38,3.31,2.05,4.73,2.05c1,0,2.08-0.29,3.29-0.88c0.93-0.45,2.37-1.71,5.97-7.6
			c1.89-3.09,3.21-5.37,4.01-6.9c0.58,0.17,1.23,0.26,1.94,0.26c0.8,0,1.68-0.15,2.7-0.47c3.24-1.03,7.62-2.11,13.01-3.21
			c5.13-1.04,7.85-1.45,9.3-1.59c0.36,1.06,1.15,3.01,2.88,6.84c2.09,4.63,4.36,8.34,6.75,11.02c2.59,2.9,5.25,4.37,7.91,4.37
			c2,0,3.75-0.69,5.2-2.05c1.48-1.39,2.23-3.12,2.23-5.16c0-1.17-0.25-2.15-0.74-2.92C498.62,177.12,498.03,176.34,495.88,174.19z
			 M468.15,154.18c-5.2,1.07-8.47,1.68-9.74,1.83c-0.92,0.13-1.83,0.26-2.74,0.4l9.46-17.99c2.49,7.6,4.19,12.67,5.15,15.36
			C469.57,153.9,468.86,154.03,468.15,154.18z"/>
		<path d="M508.13,190.33c-2.72,0-11.61-1-11.61-13.94c0-4.77,0.52-11.46,1.56-19.88c1.02-8.36,2.26-15.84,3.67-22.23
			c0.18-0.88,0.35-1.74,0.49-2.5l0.23-1.18c-1.15-1.98-1.68-3.66-1.68-5.25c0-2.24,0.77-5.47,4.43-8.12
			c2.39-1.73,4.79-2.61,7.14-2.61c0.73,0,1.58,0.05,2.61,0.16c0.04,0,0.58,0.08,0.75,0.1c8.64-1.33,14.65-1.98,18.35-1.98
			c7.8,0,14.18,1.98,18.97,5.87c5.05,4.11,7.72,9.55,7.72,15.71c0,5.78-2.4,11.22-7.13,16.16c-2.45,2.56-5.38,4.86-8.75,6.88
			c6.91,5.38,12.37,9.26,16.29,11.56c4.85,2.91,5.57,6.97,5.57,9.14c0,1.94-0.67,4.84-3.87,7.65c-2.36,2.07-4.85,3.13-7.39,3.13
			c-2.85,0-5.75-1.03-8.88-3.14c-2.3-1.55-5.51-3.97-9.53-7.18c-5.03-4-6.51-5.28-7.17-5.92c-5.31-4.43-8.38-6.73-10.13-7.93
			c-0.23-0.03-0.46-0.07-0.69-0.12c-0.22,2.4-0.33,4.33-0.33,5.78c0,1.54,0.12,2.92,0.34,4.11c0.33,1.92,0.49,3.57,0.49,4.99
			c0,2.59-1.19,5.06-3.53,7.34C513.76,189.16,511.03,190.33,508.13,190.33z M523.68,144.08c0.94,0,1.94,0.13,2.96,0.38
			c0.02,0.01,0.05,0.01,0.07,0.02c0.77-0.23,2.87-1.05,7.31-3.8c5-3.09,5-5.41,5-6.18l0,0c0,0-0.13-0.28-0.81-0.75
			c-1.18-0.81-2.85-1.22-4.98-1.22c-3.52,0-6.34,0.2-8.37,0.6c-0.35,0.07-0.66,0.13-0.93,0.19c-0.25,1.11-0.67,3.14-1.35,6.82
			c-0.24,1.31-0.48,2.67-0.72,4.05C522.45,144.12,523.06,144.08,523.68,144.08z"/>
		<path class="st0" d="M562.12,172.55c-4.96-2.91-12.22-8.19-21.59-15.7c5.37-2.41,9.81-5.41,13.19-8.95
			c3.99-4.17,6.02-8.67,6.02-13.39c0-4.99-2.1-9.24-6.24-12.61c-4.05-3.3-9.58-4.97-16.44-4.97c-3.57,0-9.55,0.66-18.27,2.02
			c-0.22-0.02-0.63-0.07-1.26-0.16c-0.88-0.09-1.6-0.14-2.18-0.14c-1.49,0-3.1,0.62-4.79,1.85c-1.84,1.33-2.77,2.98-2.77,4.88
			c0,1.02,0.52,2.31,1.6,3.99l0.3,0.53l-0.51,2.63c-0.15,0.78-0.32,1.67-0.52,2.63c-1.38,6.26-2.59,13.61-3.61,21.85
			c-1.01,8.26-1.53,14.78-1.53,19.39c0,8.21,4.14,9.94,7.61,9.94c1.86,0,3.58-0.76,5.11-2.25c1.54-1.5,2.32-3.01,2.32-4.48
			c0-1.19-0.14-2.61-0.42-4.24c-0.27-1.42-0.41-3.06-0.41-4.86c0-2.79,0.38-7.16,1.12-13c0.78,2.12,2.61,3.34,5.28,3.46
			c2.42,1.55,6.29,4.55,11.43,8.84c0.42,0.42,1.6,1.48,6.98,5.76c3.97,3.16,7.09,5.51,9.28,6.99c2.44,1.65,4.62,2.46,6.64,2.46
			c1.54,0,3.14-0.72,4.75-2.13c1.67-1.46,2.51-3.03,2.51-4.64C565.71,176.63,565.09,174.33,562.12,172.55z M529.52,148.57
			c-0.01,0-0.2-0.02-0.85-0.22c-0.7-0.18-1.37-0.26-1.99-0.26c-2.08,0-3.97,0.63-5.61,1.86c-0.57,0.43-1.03,0.88-1.39,1.33
			c0.61-4.21,1.26-8.18,1.94-11.86c1.3-7.02,1.72-8.44,1.84-8.72c0.17-0.4,0.29-0.63,0.35-0.75c0.33-0.1,1.17-0.33,3.26-0.74
			c2.29-0.45,5.36-0.68,9.14-0.68c2.96,0,5.4,0.65,7.26,1.93c1.71,1.18,2.54,2.5,2.54,4.04c0,3.58-2.25,6.71-6.89,9.58
			C532.82,147.98,530.39,148.57,529.52,148.57z"/>
	</g>
</g>
</svg>
