<?xml version="1.0" encoding="utf-8"?>
<!-- Generator: Adobe Illustrator 24.0.2, SVG Export Plug-In . SVG Version: 6.00 Build 0)  -->
<svg version="1.1" id="Layer_1" xmlns="http://www.w3.org/2000/svg" xmlns:xlink="http://www.w3.org/1999/xlink" x="0px" y="0px"
	 viewBox="0 0 657.11 187.19" style="enable-background:new 0 0 657.11 187.19;" xml:space="preserve">
<style type="text/css">
	.st0{fill:#2AA449;}
</style>
<g>
	<g>
		<path d="M218.06,90.48h-0.23c-1.52,0.03-2.93,0.26-4.11,0.66c-1.85,0.58-3.58,1.29-5.17,2.11c1.31-8.36-2.23-13.67-5.7-16.76
			c-5.7-5.03-11.81-7.77-18.18-8.15c-0.44-0.02-0.88-0.04-1.31-0.04c-3.68,0-7.36,0.83-10.96,2.47c-3.71,1.7-7.21,3.94-10.33,6.63
			c-2.6,2.18-4.93,4.49-6.98,6.92c-1.25-2.29-3.54-4.58-7.1-7.1c-3.94-2.79-7.57-4.32-11.16-4.69c-0.19-0.02-0.38-0.03-0.58-0.03
			c-0.37,0-0.75,0.03-1.13,0.09c0.81-0.99,1.63-1.97,2.44-2.93c7.25-8.51,10.56-11.58,12.09-12.68c2.44-1.78,3.19-2.44,3.64-2.89
			c0.91-0.91,1.63-2.06,2.16-3.48c0.91-2.47,1.33-6.55-2.98-10.53c4.59-0.1,9.05-0.19,13.3-0.27c1.53,0,6.6-0.55,7.88-7.64
			c0.52-2.91,0.47-6.22-0.18-9.93c-1.5-7.77-5.33-13.25-11.46-16.32c-3.24-1.54-7.43-2.73-12.81-3.64
			c-5.03-0.85-10.82-1.46-17.21-1.82C126.66,0.16,120.9,0,114.87,0c-1.13,0-2.27,0-3.43,0.02c-7.28,0.07-14.76,0.3-22.24,0.71
			c-15.51,0.84-30.19,2.2-43.62,4.02c-14.29,1.92-24.7,3.98-31.8,6.3C10.8,12,5.77,14.87,5.59,23.41C5.49,28.09,6.3,33.26,8,38.8
			c1.71,5.57,3.99,10.29,6.78,14.04c2.46,3.3,5.22,4.97,8.22,4.97c1.6,0,3.98-0.5,6.22-2.88c0.06-0.05,1.45-1.29,8.16-3.14
			c2.53-0.67,5.57-1.35,9.04-2.01c0.67-0.13,1.36-0.26,2.06-0.39c-0.8,1.13-1.58,2.24-2.33,3.31c-4.18,5.91-8.12,11.7-11.7,17.18
			c-1.79,2.68-3.51,5.36-5.14,7.97c-1.59,2.56-3.17,5.09-4.8,7.67c-1.59,2.6-3.2,5.21-4.83,7.83c-1.64,2.64-3.35,5.44-5.06,8.29
			c-1.77,2.88-3.62,5.89-5.55,9.04c-1.91,3.11-4,6.46-6.25,9.99c-4.18,6.7-2.94,12.05-1.2,15.3c1.92,3.72,5.45,6.67,10.49,8.76
			c0.04,0.02,0.08,0.03,0.12,0.05c3.43,1.32,6.81,1.99,10.04,1.99l0,0c0.94,0,1.87-0.06,2.81-0.17c7.28-0.92,9.74-5.18,10.56-7.63
			c0.01-0.04,0.03-0.09,0.04-0.13c1.46-4.84,4.67-11.34,9.54-19.35c4.37-7.35,9.89-15.6,16.42-24.53
			c5.8-8.02,11.75-15.79,17.67-23.06c5.96-7.25,10.49-12.38,13.47-15.23c0.04-0.04,0.08-0.08,0.12-0.11
			c2.59-2.65,3.35-3.25,3.48-3.35c0.83-0.62,1.82-1.44,3.02-2.5c0.03-0.03,0.06-0.06,0.1-0.09c2.64-2.45,3.13-5.07,3.08-6.83
			c-0.01-0.48-0.07-0.96-0.17-1.43c1.64-0.13,3.23-0.26,4.74-0.37c4.37-0.27,9-0.53,13.88-0.8c0.8-0.04,1.61-0.08,2.42-0.13
			c-1.7,2.07-3.43,4.18-5.2,6.35c-2.46,3.02-4.94,6.19-7.34,9.39c-2.45,3.21-4.93,6.51-7.35,9.79c-2.47,3.34-4.88,6.77-7.16,10.16
			c-5.16,7.63-9.49,14.65-12.87,20.87c-4.1,7.57-7.25,14.55-9.39,20.81c-1.01,3.09-1.38,7.87,2.66,13.06
			c0.02,0.03,0.05,0.06,0.07,0.09c3.23,3.96,7.34,6.53,12.23,7.62c0.96,0.24,1.83,0.35,2.68,0.35c1.28,0,2.45-0.27,3.49-0.81
			c1.76-0.85,3.11-2.44,4.02-4.75c0.32-0.82,0.67-1.53,1.08-2.19c2.15-3.55,4.26-6.54,6.32-8.92c0.82-0.97,1.65-1.92,2.48-2.84
			c0.47,2.32,1.36,4.6,2.67,6.8c2.19,3.73,5.19,6.71,8.92,8.87c2.3,1.42,4.66,2.19,7.01,2.29c0.33,0.03,0.66,0.04,0.99,0.04
			c2.54,0,4.93-0.86,7.12-2.59c0.97-0.77,2.11-1.99,3.62-3.84c1.28-1.57,2.69-3.36,4.18-5.29c0.8-1.03,1.63-2.09,2.49-3.18
			c1.55,4.35,4.76,7.92,9.57,10.63c5.07,2.86,10.37,4.31,15.76,4.31l0,0c0.28,0,0.56,0,0.87-0.01c5.07-0.17,9.36-1.71,12.76-4.57
			c3.25-2.75,6.77-5.93,10.47-9.46c3.6-3.42,7.16-6.7,10.62-9.77c5.28-4.74,9.1-8.19,11.47-10.34c3.27-2.96,4.15-3.81,4.53-4.19
			c1.99-1.99,2-4.39,1.34-5.97C223.14,92.8,221.78,90.48,218.06,90.48z M180.52,112.98c-4.41,3.35-6.47,3.61-7,3.61
			c-0.16,0-0.22-0.02-0.25-0.04c-0.26-0.21-0.77-1.76,0.35-5.76c1.56,0.12,3.28,0.19,5.2,0.21c0.34,0,0.7,0.01,1.05,0.01
			c1.05,0,2.16-0.02,3.32-0.06C182.25,111.67,181.35,112.35,180.52,112.98z"/>
		<path d="M656.73,93.8c-0.41-1-1.78-3.33-5.49-3.33h-0.23c-1.51,0.03-2.93,0.26-4.11,0.66c-1.85,0.58-3.58,1.29-5.17,2.11
			c1.31-8.36-2.23-13.67-5.7-16.76c-5.7-5.03-11.81-7.77-18.18-8.15c-0.44-0.02-0.88-0.04-1.31-0.04c-3.68,0-7.36,0.83-10.96,2.47
			c-3.71,1.69-7.2,3.94-10.33,6.63c-3.49,2.92-6.49,6.1-8.99,9.48c-1.71-1.89-3.83-3.47-6.33-4.69c-0.04-0.02-0.08-0.04-0.12-0.06
			c-2.64-1.2-5.43-1.86-8.3-1.94c-0.14,0-0.28-0.01-0.42-0.01c-0.78,0-1.5,0.06-2.17,0.18c-3.06-6.1-8.41-9.38-15.51-9.38
			c-0.24,0-0.49,0-0.82,0.01c-6.65,0.32-13.63,3.45-20.74,9.3c-2.88,2.37-5.46,5.01-7.7,7.88c0.73-2.46,0.17-5.11-1.66-7.33
			c-3.14-3.8-7.09-6.46-11.74-7.9c-1.56-0.48-3.16-0.73-4.75-0.73c-3.72,0-7.42,1.32-10.97,3.93c-0.03,0.02-0.06,0.05-0.1,0.07
			c-0.74,0.57-1.52,1.2-2.36,1.89c-0.5-1.06-1.27-2.13-2.4-3.14c-2.08-1.87-4.75-3.33-7.95-4.34c-0.03-0.01-0.07-0.02-0.1-0.03
			c-2.48-0.73-5.07-1.09-7.71-1.09c-0.69,0-1.39,0.03-2.09,0.08c-5.19,0.37-8.22,2.8-9.86,4.8c-1.28,1.5-3.07,4.05-5.6,7.99
			c-2.07,3.19-4.35,6.96-6.77,11.17c-0.39,0.68-0.77,1.35-1.15,2.01c-0.5,0.35-1,0.71-1.52,1.08c-2.36,1.7-4.61,3.35-6.75,4.95
			c1.64-2.06,3.4-3.99,5.28-5.8c1.27-1.23,2.22-2.12,2.83-2.65c0.61-0.53,1.01-0.87,1.2-1.03c0.16-0.13,0.32-0.27,0.46-0.42
			c3-3.1,3.32-7.23,0.83-10.77c-1.64-2.32-3.97-4.16-6.97-5.47c-2.64-1.13-5.53-1.71-8.59-1.71c-0.21,0-0.43,0-0.64,0.01
			c-3.97,0.1-7.42,1.69-9.97,4.58c-0.07,0.08-0.13,0.15-0.19,0.24c-1.03,1.32-2.21,3.07-3.6,5.34c0.53-2.31-0.11-4.76-1.92-6.9
			s-4.37-3.8-7.68-4.96c-2.41-0.8-4.99-1.21-7.66-1.21c-0.65,0-1.32,0.02-1.99,0.07c-4.05,0.29-7.49,1.96-9.95,4.83
			c-2.39,2.79-4.91,6.46-7.64,11.11c0-0.07,0-0.15,0.01-0.22c0.15-5.32-0.87-9.23-3.12-11.98c-2.69-3.22-6.36-4.93-10.61-4.93
			c-2.75,0-5.67,0.69-8.9,2.09c-0.57-0.27-1.13-0.55-1.67-0.82c-0.59-0.29-0.9-0.52-1.02-0.63c-0.08-0.07-0.16-0.13-0.25-0.19
			c-1.88-1.38-4.1-2.08-6.58-2.08c-2.03,0-4.16,0.46-6.51,1.41c-4.02,1.62-8.1,4.21-12.13,7.7c-3.96,3.43-7.62,7.5-10.89,12.1
			c-3.41,4.79-5.75,9.72-6.96,14.66c-0.87,3.54-1.2,6.74-1.12,9.62c-0.12-0.06-0.23-0.12-0.34-0.18c-0.03-0.02-0.07-0.03-0.1-0.05
			c-3.23-1.48-8.23-2.43-15.75-3c-4.77-0.36-9.28-0.65-13.47-0.87c2.35-3.95,5.74-8.88,10.12-14.7
			c6.27-8.14,13.11-16.33,20.36-24.36c7.58-8.49,14.76-15.96,21.36-22.22c8.57-8.15,13.1-11.39,15.42-12.68
			c4.52-2.55,6.1-3.79,6.9-4.5c0.79-0.7,1.57-1.44,2.15-2.31c2-1.96,2.52-4.03,2.58-5.51c0.11-2.63-1.1-5.14-3.53-7.4
			c-2.86-2.74-7.16-4.97-13.14-6.81c-5.46-1.7-10.82-2.56-15.95-2.56c-0.28,0-0.56,0-0.83,0.01c-6.78,0.11-12.07,1.8-15.72,5.04
			c-0.12,0.1-0.23,0.21-0.33,0.33c-4.5,4.81-8.83,9.64-12.89,14.37c-4.03,4.69-7.97,9.4-11.73,14.01
			c-6.93,8.66-13.86,17.78-20.6,27.09c-5.86,8.12-11.82,16.73-17.68,25.55c-2.8,4.13-5.5,8.16-8.12,12.08
			c-2.3,3.45-4.57,6.83-6.8,10.12c-4.44,1.87-7.56,4.74-9.29,8.54c-1.63,3.57-2.49,7.28-2.57,11.03c-0.08,3.5,0.24,6.72,0.94,9.59
			c0.55,2.24,0.88,3.62,1.01,4.12c0.34,1.58,1.65,4.35,6.69,4.35c1.73,0,4.3-0.25,7.89-0.76c2.72-0.4,5.95-0.91,9.61-1.51
			c3.65-0.6,7.53-1.23,11.64-1.89c4.09-0.66,8.4-1.31,12.83-1.95c4.37-0.63,8.77-1.14,13.06-1.53c4.24-0.39,8.4-0.66,12.35-0.81
			c1.17-0.04,2.33-0.07,3.44-0.07c2.51,0,4.89,0.12,7.14,0.35c0.19,0.02,0.38,0.03,0.57,0.03c2.22,0,5.25-1.06,7.12-6.09
			c0.9-2.42,1.45-5.19,1.63-8.25c0.02-0.35,0.02-0.7,0.03-1.06c1.63,1.84,3.43,3.34,5.2,4.54c2.56,1.76,5.49,3.12,8.69,4.04
			c1.99,0.57,4.04,0.86,6.09,0.86c1.51,0,3.05-0.16,4.56-0.46c6.22-1.23,12.22-4.4,17.83-9.41c4.01-3.58,7.45-7.37,10.25-11.31
			c0.16,2.62,0.74,5.2,1.74,7.72c2,5.17,5.74,8.98,11.12,11.34c2.42,1.06,4.72,1.6,6.85,1.6c3.26,0,6.17-1.23,8.35-3.5
			c1.2-1.2,2.98-3.34,5.63-6.74c0.66-0.85,1.33-1.72,2.01-2.61c0,0.01,0.01,0.03,0.02,0.04c1.56,3.73,3.44,6.47,5.75,8.39
			c3.51,3.09,7.27,4.65,11.18,4.65c0.15,0,0.31,0,0.43-0.01c2.96-0.08,5.58-1.18,7.52-3.12c0.81-0.78,2.35-2.4,6.5-7.51
			c0.96,1.49,2.27,3.03,4,4.58c5.11,4.57,8.62,6.52,11.73,6.52c0.6,0,1.19-0.07,1.75-0.22c2.86-0.69,5.05-2.56,6.16-5.27
			c0.49-1.2,0.81-1.68,0.95-1.87c3.61-5.09,7.01-9.33,10.15-12.64c0.81-0.88,1.64-1.74,2.5-2.58c0,0.07,0,0.13-0.01,0.2
			c-0.17,4.71,1.44,9.57,4.8,14.44c4.33,6.28,9.65,7.6,13.36,7.6c0.47,0,0.96-0.02,1.44-0.06c2.63-0.12,5.04-1.14,6.98-2.97
			c0.96-0.86,2.24-2.27,4.01-4.41c1.61-1.94,3.38-4.05,5.35-6.38c0.41-0.49,0.82-0.99,1.23-1.48c0.34,1.23,0.77,2.42,1.29,3.59
			c1.46,3.47,3.76,6.23,6.85,8.22c-2.42,0.81-4.53,1.85-6.31,3.13c-3.04,2.19-5.65,5.01-7.76,8.38c-1.95,3.11-3.51,6.26-4.64,9.37
			c-0.01,0.03-0.02,0.06-0.03,0.09c-2.93,8.56-3.11,13.36-0.61,16.58c0.02,0.03,0.04,0.06,0.07,0.08c1.1,1.36,2.21,2.76,3.28,4.18
			c1.28,1.68,2.68,3.24,4.18,4.64c3.75,3.47,8.17,5.43,13.15,5.83c0.04,0,0.08,0.01,0.11,0.01c0.19,0.01,0.39,0.02,0.58,0.02
			c4.58,0,9.49-3,15.49-9.48c2.37-2.6,4.82-5.63,7.3-9.01c2.42-3.29,4.85-6.75,7.24-10.31c0.57-0.85,1.13-1.74,1.67-2.65
			c0.43-0.73,0.9-1.47,1.39-2.2c0.03-0.04,0.05-0.08,0.08-0.12c0.85-1.36,1.56-2.51,2.13-3.45c4.52-0.67,8.65-1.64,12.3-2.91
			c3.03-1.05,6.6-2.73,7.33-6.42c0.44-2.22-0.38-4.45-2.24-6.1c-0.92-0.81-2.09-1.26-3.32-1.26c-0.03,0-5.57,0.09-5.57,0.09
			c0.15-0.33,0.3-0.67,0.45-1c1.08-2.43,2.21-4.9,3.39-7.33c1.15-2.39,2-4.17,2.54-5.34c0.92-1.9,1.82-3.7,2.7-5.44
			c0.11,1.87,0.32,3.78,0.66,5.72c0.97,5.8,4.46,10.43,10.38,13.76c5.07,2.86,10.38,4.31,15.76,4.31l0,0c0.28,0,0.56,0,0.87-0.01
			c5.07-0.17,9.36-1.71,12.76-4.57c3.25-2.75,6.77-5.93,10.47-9.46c3.6-3.43,7.17-6.7,10.62-9.77c5.27-4.74,9.1-8.19,11.47-10.34
			c3.26-2.96,4.15-3.81,4.53-4.19C657.37,97.79,657.38,95.39,656.73,93.8z M343.98,118.38c-0.78,0.41-1.48,0.62-2.08,0.62
			c-0.33,0-0.65-0.06-0.99-0.19c-0.21-0.08-0.53-0.21-0.64-1.44c-0.06-0.82,0.04-1.95,0.54-3.46c1.15,1.05,2.35,1.72,3.32,2.14
			c0.76,0.33,1.56,0.6,2.4,0.82C345.7,117.42,344.85,117.93,343.98,118.38z M360.79,97.72c-0.14,0.29-0.32,0.67-0.55,1.22
			c-0.76,0.16-1.47,0.27-2.14,0.32c1.57-2.05,2.77-3.37,3.62-4.2C361.48,95.79,361.18,96.67,360.79,97.72z M411.76,95.91
			c-0.03,0.03-0.05,0.05-0.08,0.08c-0.53,0.59-1.08,1.17-1.63,1.75c2.03-2.61,4.04-4.86,6.01-6.74c0.21-0.21,0.41-0.39,0.59-0.57
			C414.98,92.42,413.34,94.26,411.76,95.91z M518.49,97.26c-1.49,0.98-2.92,1.94-4.31,2.89c2.13-2.46,4-4.44,5.58-5.88
			c0.22-0.2,0.44-0.4,0.66-0.62C519.73,94.82,519.09,96.03,518.49,97.26z M553.17,98.12c-1.25,1.16-2.48,2.33-3.69,3.5
			c-1.57,1.52-3.09,3.02-4.53,4.46c-0.39,0.39-0.79,0.77-1.18,1.15c1.92-3.23,3.92-5.89,5.95-7.92c1.25-1.24,2.49-2.19,3.72-2.82
			C553.38,97,553.29,97.55,553.17,98.12z M613.69,112.98c-4.41,3.35-6.47,3.61-7,3.61c-0.16,0-0.22-0.02-0.25-0.04
			c-0.26-0.21-0.77-1.76,0.35-5.76c1.56,0.12,3.28,0.19,5.2,0.21c0.34,0,0.7,0.01,1.05,0.01c1.05,0,2.16-0.02,3.32-0.06
			C615.41,111.67,614.52,112.35,613.69,112.98z"/>
	</g>
	<path class="st0" d="M89.32,53.08c1.99-2.04,3.34-3.32,4.05-3.85s1.62-1.28,2.72-2.26c2.43-2.26,1.88-4.85-1.66-7.77
		c-0.4-0.27-0.4-0.53,0-0.8s0.8-0.42,1.2-0.46c3.94-0.35,7.68-0.66,11.22-0.93c4.38-0.27,9.02-0.53,13.91-0.8s9.88-0.49,14.97-0.66
		c5.05-0.18,10.12-0.32,15.21-0.43c5.09-0.11,10.03-0.21,14.81-0.3c1.55,0,2.53-1.17,2.96-3.52c0.42-2.35,0.37-5.05-0.17-8.1
		c-1.2-6.2-4.1-10.45-8.7-12.75c-2.79-1.33-6.62-2.4-11.49-3.22s-10.43-1.41-16.67-1.76c-6.24-0.35-12.98-0.5-20.22-0.43
		s-14.58,0.3-22.01,0.7C74,6.58,59.59,7.91,46.22,9.72c-13.86,1.86-24.17,3.9-30.95,6.11c-3.05,0.97-4.63,3.54-4.71,7.7
		c-0.09,4.16,0.64,8.77,2.19,13.81c1.55,5.05,3.55,9.22,6.01,12.52c2.46,3.3,4.73,3.84,6.81,1.63c1.37-1.46,4.87-2.97,10.49-4.52
		c2.66-0.71,5.79-1.41,9.4-2.09c3.61-0.69,7.6-1.41,11.99-2.16c1.46-0.18,1.77,0.31,0.93,1.46c-1.51,2.04-2.93,4.01-4.28,5.91
		s-2.65,3.74-3.88,5.51c-4.16,5.89-8.04,11.58-11.62,17.07c-1.77,2.66-3.45,5.27-5.05,7.84c-1.59,2.57-3.19,5.11-4.78,7.64
		c-1.59,2.61-3.21,5.24-4.85,7.87s-3.32,5.39-5.05,8.27c-1.77,2.88-3.62,5.89-5.54,9.03c-1.93,3.14-4.02,6.49-6.28,10.03
		c-2.35,3.76-2.68,7.22-1,10.36c1.37,2.66,4.03,4.8,7.97,6.44c3.67,1.42,7.15,1.93,10.43,1.53c3.5-0.44,5.64-1.86,6.44-4.25
		c1.59-5.27,4.94-12.09,10.03-20.45c4.47-7.53,10.03-15.83,16.67-24.9c5.89-8.15,11.84-15.92,17.86-23.31
		C81.55,61.31,86.18,56.09,89.32,53.08z"/>
	<path class="st0" d="M217.95,95.48c-1.02,0.02-1.93,0.17-2.72,0.43c-2.26,0.71-4.26,1.62-6.01,2.72c-1.75,1.11-4.31,2.81-7.67,5.11
		c-3.41,2.35-6.71,4.71-9.89,7.11s-5.89,4.43-8.1,6.11c-6.11,4.65-10.59,5.8-13.45,3.45c-2.86-2.35-2.89-7.19-0.1-14.54
		c0.09-0.27,0.4-0.4,0.93-0.4c2.13,0.31,4.78,0.49,7.97,0.53s6.97-0.13,11.36-0.53c6.68-0.53,10.93-3.95,12.75-10.26
		c1.81-6.31,0.66-11.3-3.45-14.97c-4.87-4.29-9.92-6.6-15.14-6.91c-3.32-0.18-6.63,0.49-9.93,1.99c-3.3,1.51-6.36,3.48-9.2,5.91
		c-5.98,5-10.32,10.67-13.02,17c-0.35,0.81-0.66,1.64-0.95,2.48c-1.83,1.23-3.66,2.55-5.49,3.96c-2.79,2.13-5.45,4.25-7.97,6.38
		s-4.74,3.98-6.64,5.58c-0.75,0.66-1.02,0.38-0.8-0.86c0.31-2.08,1.25-4.38,2.82-6.91c1.57-2.52,3.38-5,5.41-7.44
		c2.17-2.52,4.23-4.76,6.18-6.71c2.08-1.99,3.79-3.56,5.11-4.71c1.02-0.84,1.35-1.77,1-2.79c-0.71-1.68-2.66-3.65-5.84-5.91
		s-6.09-3.52-8.7-3.79c-1.02-0.09-2.72,0.73-5.11,2.46c-2.3,1.82-4.87,4.14-7.7,6.97c-2.48,2.48-5.49,5.64-9.03,9.5
		c-1.55,1.73-3.07,3.43-4.55,5.11c-1.48,1.68-2.91,3.32-4.28,4.91c-0.53,0.62-0.93,0.9-1.2,0.83s-0.2-0.41,0.2-1.03
		c3.14-5.18,6.86-10.74,11.16-16.67c5.98-8.41,11.93-16.14,17.86-23.18c6.11-7.17,10.43-11.67,12.95-13.48
		c1.64-1.2,2.66-1.99,3.05-2.39s0.73-0.95,1-1.66c1.15-3.14-1.37-6.03-7.57-8.67c-6.2-2.63-10.85-2.07-13.95,1.69
		c-2.3,2.79-4.67,5.68-7.11,8.67c-2.44,2.99-4.85,6.08-7.24,9.26c-2.44,3.19-4.87,6.43-7.3,9.73c-2.44,3.3-4.78,6.63-7.04,9.99
		c-5.09,7.53-9.3,14.34-12.62,20.45c-3.98,7.35-7,14.01-9.03,19.99c-0.93,2.83-0.31,5.64,1.86,8.43c2.52,3.1,5.69,5.07,9.5,5.91
		c1.24,0.31,2.17,0.29,2.79-0.07c0.62-0.27,1.15-0.96,1.59-2.09s0.93-2.11,1.46-2.96c2.3-3.81,4.56-6.99,6.77-9.56
		c3.59-4.25,7.26-7.97,11.02-11.16c1.02-0.93,1.35-0.8,1,0.4c-0.75,2.26-1.12,4.74-1.1,7.44s0.81,5.36,2.36,7.97
		c1.77,3.01,4.16,5.38,7.17,7.11c1.64,1.02,3.23,1.55,4.78,1.59c1.64,0.18,3.19-0.31,4.65-1.46c0.66-0.53,1.62-1.56,2.86-3.09
		c1.24-1.53,2.61-3.26,4.12-5.21c1.73-2.21,3.59-4.57,5.58-7.07c1.38-1.74,2.83-3.46,4.3-5.16c-0.04,2.63,0.18,5.35,0.68,8.18
		c0.71,4.25,3.34,7.66,7.9,10.23s9.23,3.79,14.01,3.65c3.94-0.13,7.17-1.26,9.7-3.39c3.19-2.7,6.61-5.79,10.26-9.26
		c3.65-3.47,7.23-6.76,10.72-9.86c5.27-4.74,9.09-8.18,11.46-10.33c2.37-2.15,3.82-3.49,4.35-4.02S218.97,95.46,217.95,95.48z
		 M173.19,98.96c2.13-3.19,4.47-6.05,7.04-8.6c2.57-2.54,5-4.15,7.3-4.81c1.46-0.44,2.37-0.55,2.72-0.33
		c0.66,0.49,0.8,1.42,0.4,2.79s-1.04,2.79-1.93,4.25c-0.93,1.46-1.93,2.79-2.99,3.98s-1.88,1.84-2.46,1.93
		c-0.93,0.18-1.8,0.33-2.62,0.46s-1.63,0.27-2.42,0.4c-1.06,0.13-2.61,0.33-4.65,0.6C173.01,99.63,172.88,99.41,173.19,98.96z"/>
	<path class="st0" d="M312.18,117.89c-2.61-1.2-7.29-2.05-14.04-2.56s-12.89-0.87-18.43-1.1c-1.82,0-2.32-0.86-1.53-2.59
		c2.26-4.74,6.6-11.38,13.02-19.92c6.38-8.28,13.24-16.49,20.59-24.64c7.7-8.63,14.92-16.14,21.65-22.51
		c7.22-6.86,12.68-11.33,16.4-13.41c3.05-1.73,5.07-3.02,6.04-3.88s1.46-1.43,1.46-1.69c2.26-1.77,2.13-3.83-0.4-6.18
		c-2.26-2.17-5.98-4.05-11.16-5.64c-5.27-1.64-10.34-2.41-15.21-2.32c-5.58,0.09-9.74,1.35-12.48,3.79
		c-4.47,4.78-8.72,9.52-12.75,14.21s-7.9,9.32-11.62,13.88c-6.91,8.63-13.72,17.6-20.45,26.89c-5.84,8.1-11.71,16.58-17.6,25.43
		c-2.79,4.12-5.49,8.13-8.1,12.05c-2.61,3.92-5.18,7.74-7.7,11.46c-3.98,1.37-6.65,3.54-8,6.51s-2.06,5.99-2.13,9.06
		s0.2,5.84,0.8,8.3s0.94,3.86,1.03,4.22c0.09,0.66,3.08,0.58,8.96-0.27c2.7-0.4,5.88-0.9,9.53-1.49s7.54-1.23,11.65-1.89
		s8.42-1.32,12.92-1.96c4.49-0.64,8.93-1.16,13.31-1.56c4.34-0.4,8.54-0.68,12.62-0.83c4.07-0.16,7.81-0.06,11.22,0.3
		c0.97,0.09,1.83-0.85,2.56-2.82s1.17-4.24,1.33-6.81c0.15-2.57-0.02-5.04-0.53-7.4C314.62,120.14,313.64,118.6,312.18,117.89z"/>
	<path class="st0" d="M564.66,130.41c1.11-2.5,2.26-4.99,3.45-7.47c1.15-2.39,1.99-4.16,2.52-5.31c2.3-4.74,4.47-8.99,6.51-12.75
		c2.26-4.07,4.43-7.53,6.51-10.36c0.66-1.28,0.34-2.67-0.96-4.15c-1.31-1.48-2.96-2.71-4.95-3.69c-2.04-0.93-4.16-1.43-6.38-1.49
		c-2.21-0.07-3.9,0.68-5.05,2.22c-0.13,0.09-0.22,0-0.27-0.27c-1.77-7.66-6.18-11.38-13.21-11.16c-5.58,0.27-11.51,2.99-17.8,8.17
		c-5.52,4.55-9.72,10.05-12.62,16.51c-3.48,2.26-6.9,4.58-10.23,7c-5.22,3.72-9.45,6.91-12.68,9.56c-1.28,1.02-1.82,0.91-1.59-0.33
		c0.27-2.21,1.28-4.74,3.05-7.57c1.77-2.83,3.76-5.6,5.98-8.3c3.72-4.6,6.88-8.1,9.5-10.49c0.8-0.71,1.62-1.66,2.46-2.86
		s0.75-2.41-0.27-3.65c-2.52-3.05-5.64-5.16-9.36-6.31c-3.72-1.15-7.48-0.33-11.29,2.46c-2.7,2.08-6.09,5.05-10.16,8.9
		c-1.86,1.82-3.77,3.71-5.74,5.68c-1.97,1.97-3.88,3.93-5.74,5.88c-1.9,1.99-3.73,3.92-5.48,5.78s-3.35,3.59-4.81,5.18
		c-0.4,0.44-0.75,0.59-1.06,0.43c-0.31-0.15-0.33-0.43-0.07-0.83c1.15-1.9,2.4-3.82,3.75-5.74c1.35-1.93,2.71-3.82,4.08-5.68
		c1.99-2.66,3.91-5.08,5.74-7.27c1.84-2.19,3.4-3.97,4.68-5.35c1.2-1.33,2.16-2.24,2.89-2.72c0.73-0.49,1.29-1,1.69-1.53
		c0.93-1.42,0.62-2.82-0.93-4.22c-1.55-1.39-3.59-2.49-6.11-3.29c-2.57-0.75-5.25-1.03-8.04-0.83s-4.91,1.21-6.38,3.02
		c-1.11,1.28-2.86,3.79-5.25,7.5c-2.04,3.14-4.25,6.8-6.64,10.96c-0.58,1-1.14,1.98-1.7,2.97c-0.77,0.53-1.56,1.09-2.38,1.68
		c-5.6,4.03-10.53,7.75-14.78,11.16c-1.42,1.15-3.03,2.48-4.85,3.98c-0.66,0.53-1.25,1.02-1.76,1.46s-0.9,0.8-1.16,1.06
		c-1.24,1.15-1.59,0.86-1.06-0.86c1.11-4.38,3.21-9.01,6.31-13.88c2.74-4.21,5.89-8.01,9.43-11.42c1.33-1.28,2.33-2.22,3.02-2.82
		s1.14-0.98,1.36-1.16c1.33-1.37,1.44-2.84,0.33-4.42c-1.11-1.57-2.72-2.82-4.85-3.75c-2.17-0.93-4.55-1.36-7.14-1.29
		s-4.7,1.03-6.34,2.89c-0.93,1.2-2.06,2.88-3.39,5.05c-0.66,1.02-1.36,2.07-2.09,3.15c-0.73,1.08-1.49,2.11-2.29,3.09
		c-1.95,2.35-3.85,4.49-5.71,6.44c-1.86,2.04-3.81,4.02-5.84,5.94c-2.04,1.93-4.05,3.82-6.04,5.68c-1.46,1.33-2.9,2.6-4.32,3.82
		s-2.79,2.42-4.12,3.62c-0.8,0.71-1.32,0.82-1.56,0.33s-0.28-1.02-0.1-1.59c1.64-5.13,4.45-10.65,8.43-16.54
		c3.63-5.45,7.22-9.85,10.76-13.21c1.33-1.28,2.08-2.05,2.26-2.29s0.38-0.48,0.6-0.7c1.33-1.33,1.37-2.72,0.13-4.18
		c-1.24-1.46-3.05-2.61-5.45-3.45c-2.39-0.8-4.96-1.1-7.7-0.9c-2.75,0.2-4.91,1.23-6.51,3.09c-2.88,3.37-6.11,8.35-9.7,14.94
		c-0.03,0.05-0.05,0.09-0.07,0.14c-0.99,0.81-1.97,1.6-2.91,2.35c-1.42,1.13-2.99,2.16-4.71,3.09c-1.11,0.66-1.44,0.29-1-1.13
		c1.2-3.9,1.85-7.86,1.96-11.89c0.11-4.03-0.54-6.91-1.96-8.63c-3.14-3.76-7.95-4.14-14.41-1.13c-0.84,0.44-1.75,0.42-2.72-0.07
		c-0.84-0.4-1.66-0.8-2.46-1.2s-1.46-0.82-1.99-1.26c-1.99-1.46-4.75-1.48-8.27-0.07c-3.52,1.42-7.09,3.7-10.72,6.84
		c-3.67,3.19-7.04,6.93-10.09,11.22c-3.05,4.29-5.11,8.61-6.18,12.95c-2.66,10.85,0.02,18.99,8.04,24.44
		c2.13,1.46,4.54,2.58,7.24,3.35c2.7,0.78,5.47,0.88,8.3,0.3c5.36-1.06,10.51-3.81,15.47-8.23c4.96-4.43,8.9-9.1,11.82-14.01
		c0.49-0.75,0.91-1.2,1.26-1.33c2.86-0.88,5.48-2.3,7.86-4.2c-0.98,2.48-1.66,4.71-2.02,6.66c-0.75,3.81-0.4,7.55,1.06,11.22
		c1.5,3.9,4.33,6.75,8.47,8.57c4.14,1.82,7.36,1.53,9.66-0.86c1.02-1.02,2.76-3.11,5.21-6.28c2.46-3.17,5.04-6.54,7.74-10.13
		c0.84-1.11,1.26-1,1.26,0.33c-0.13,2.61,0.4,5.4,1.59,8.37c1.24,2.97,2.7,5.14,4.38,6.51c2.7,2.39,5.45,3.54,8.23,3.45
		c1.68-0.04,3.08-0.62,4.18-1.73c1.2-1.15,3.53-3.88,7.01-8.2c2.35-2.92,4.56-5.51,6.63-7.79c-0.17,0.4-0.34,0.8-0.49,1.18
		c-1.59,3.94-0.21,7.86,4.15,11.75c4.36,3.9,7.34,5.62,8.93,5.18c1.33-0.31,2.25-1.08,2.76-2.32s1.01-2.19,1.49-2.86
		c3.76-5.31,7.28-9.7,10.56-13.15c3.9-4.21,8.19-8.04,12.88-11.49c0.4-0.31,0.7-0.29,0.9,0.07c0.2,0.35,0.23,0.71,0.1,1.06
		c-1.11,1.99-1.83,3.98-2.16,5.98s-0.52,3.85-0.56,5.58c-0.13,3.63,1.17,7.44,3.92,11.42c2.74,3.98,6.2,5.78,10.36,5.38
		c1.5-0.04,2.81-0.6,3.92-1.66c0.75-0.66,1.94-1.97,3.55-3.92c1.62-1.95,3.4-4.07,5.35-6.38c1.28-1.55,2.58-3.1,3.88-4.65
		c1.31-1.55,2.56-2.92,3.75-4.12c0.6-0.62,1.23-1.24,1.86-1.86c-0.88,5.14-0.39,9.79,1.46,13.95c1.11,2.66,2.86,4.71,5.25,6.18
		s4.76,2.17,7.11,2.13c2.26-0.04,4.09-0.77,5.51-2.19c0.88-0.93,2.58-2.94,5.08-6.04c2.5-3.1,5.26-6.51,8.27-10.23
		c0.62-0.75,1-0.86,1.13-0.33c-1.46,3.19-2.9,6.34-4.32,9.46s-2.88,6.21-4.38,9.26c-0.8,1.51-1.71,3.08-2.72,4.71
		c-0.22,0.35-0.69,0.53-1.39,0.53c-3.81-0.31-7.46-0.2-10.96,0.33c-4.07,0.66-7.3,1.86-9.7,3.59c-2.52,1.81-4.67,4.14-6.44,6.97
		c-1.77,2.83-3.17,5.64-4.18,8.43c-2.17,6.33-2.63,10.29-1.39,11.89c1.15,1.42,2.28,2.86,3.39,4.32c1.11,1.46,2.3,2.79,3.59,3.98
		c2.92,2.7,6.31,4.21,10.16,4.52c3.05,0.18,7.08-2.44,12.09-7.84c2.26-2.48,4.58-5.35,6.97-8.6s4.76-6.63,7.11-10.13
		c0.53-0.8,1.04-1.61,1.53-2.42c0.49-0.82,1-1.63,1.53-2.42c1.33-2.13,2.3-3.72,2.92-4.78c0.27-0.44,0.6-0.69,1-0.73
		c4.91-0.62,9.29-1.59,13.12-2.92c3.83-1.33,4.97-2.68,3.42-4.05l-12.88,0.2c-0.35-0.13-0.44-0.4-0.27-0.8
		C562.4,135.35,563.55,132.91,564.66,130.41z M358,112.78c-3.45,4.43-7.35,7.77-11.69,10.03c-2.52,1.33-4.93,1.55-7.21,0.66
		c-2.28-0.88-3.55-2.79-3.82-5.71c-0.31-3.94,1.59-8.77,5.71-14.48c0.4-0.58,0.66-0.46,0.8,0.33c0,3.98,1.44,6.6,4.32,7.84
		s6.68,1.44,11.42,0.6C358.29,111.91,358.44,112.16,358,112.78z M367.56,92.39c-0.18,1.46-0.91,3.92-2.19,7.37
		c-0.13,0.22-0.41,0.84-0.83,1.86c-0.42,1.02-0.7,1.55-0.83,1.59c-2.39,0.71-4.54,1.07-6.44,1.1c-1.9,0.02-3.59-0.1-5.05-0.37
		c-2.26-0.31-2.07-2.28,0.56-5.91s4.88-6.2,6.74-7.7c2.04-1.59,3.95-2.42,5.74-2.49S367.83,89.29,367.56,92.39z M536.7,146.05
		c-2.92,4.96-5.76,9.44-8.5,13.45c-2.75,4.01-5.89,6.61-9.43,7.8c-0.84,0.27-1.15,0-0.93-0.8c0.97-4.96,2.25-9.65,3.82-14.08
		c1.57-4.43,3.6-6.77,6.08-7.04c1.64-0.27,3.17-0.35,4.58-0.27c1.42,0.09,2.79,0.11,4.12,0.07
		C536.88,145.18,536.96,145.47,536.7,146.05z M557.68,100.76c-1.59,1.46-3.17,2.94-4.71,4.45c-1.55,1.51-3.05,2.99-4.52,4.45
		c-1.95,1.9-3.86,3.75-5.74,5.54s-3.75,3.44-5.61,4.95s-2.7,0.62-2.52-2.66s1.68-7.33,4.52-12.15c2.26-3.9,4.63-7.08,7.11-9.56
		c2.79-2.79,5.69-4.47,8.7-5.05c2.21-0.35,3.42,0.51,3.62,2.59C558.71,95.4,558.44,97.88,557.68,100.76z"/>
	<path class="st0" d="M651.12,95.48c-1.02,0.02-1.93,0.17-2.72,0.43c-2.26,0.71-4.26,1.62-6.01,2.72c-1.75,1.11-4.31,2.81-7.67,5.11
		c-3.41,2.35-6.71,4.71-9.89,7.11s-5.89,4.43-8.1,6.11c-6.11,4.65-10.59,5.8-13.45,3.45c-2.86-2.35-2.89-7.19-0.1-14.54
		c0.09-0.27,0.4-0.4,0.93-0.4c2.13,0.31,4.78,0.49,7.97,0.53c3.19,0.04,6.97-0.13,11.36-0.53c6.68-0.53,10.93-3.95,12.75-10.26
		c1.81-6.31,0.66-11.3-3.45-14.97c-4.87-4.29-9.92-6.6-15.14-6.91c-3.32-0.18-6.63,0.49-9.93,1.99c-3.3,1.51-6.36,3.48-9.2,5.91
		c-5.98,5-10.32,10.67-13.02,17c-2.7,6.24-3.37,13.24-1.99,20.98c0.71,4.25,3.34,7.66,7.9,10.23s9.23,3.79,14.01,3.65
		c3.94-0.13,7.17-1.26,9.7-3.39c3.19-2.7,6.61-5.79,10.26-9.26s7.23-6.76,10.72-9.86c5.27-4.74,9.09-8.18,11.46-10.33
		c2.37-2.15,3.82-3.49,4.35-4.02S652.13,95.46,651.12,95.48z M606.36,98.96c2.13-3.19,4.47-6.05,7.04-8.6c2.57-2.54,5-4.15,7.3-4.81
		c1.46-0.44,2.37-0.55,2.72-0.33c0.66,0.49,0.8,1.42,0.4,2.79c-0.4,1.37-1.04,2.79-1.93,4.25c-0.93,1.46-1.93,2.79-2.99,3.98
		s-1.88,1.84-2.46,1.93c-0.93,0.18-1.8,0.33-2.62,0.46s-1.63,0.27-2.42,0.4c-1.06,0.13-2.61,0.33-4.65,0.6
		C606.18,99.63,606.05,99.41,606.36,98.96z"/>
</g>
</svg>
