<?xml version="1.0" encoding="utf-8"?>
<!-- Generator: Adobe Illustrator 24.0.2, SVG Export Plug-In . SVG Version: 6.00 Build 0)  -->
<svg version="1.1" id="Layer_1" xmlns="http://www.w3.org/2000/svg" xmlns:xlink="http://www.w3.org/1999/xlink" x="0px" y="0px"
	 viewBox="0 0 973.3 252.4" style="enable-background:new 0 0 973.3 252.4;" xml:space="preserve">
<style type="text/css">
	.st0{fill:#FFFFFF;}
</style>
<g>
	<g>
		<path d="M115.8,99.9c0,0.1,0.1,0.1,0.1,0.2c2.6,3.8,5.6,6.3,9,7.5c2.7,1,5.4,1.4,8,1.4c0.4,0,0.8,0,1.2,0c0.1,0,0.2,0,0.3,0
			c2.2-0.3,3.8-0.7,5-1.9c1.7-1.7,1.7-4.1,0-7c-2.7-4.6-4.6-9.8-5.4-15.5c-0.9-5.8-1-11.9-0.3-18.1c0.7-6.2,2.2-12.5,4.3-18.7
			c2.1-6.2,4.9-12,8.1-17.3c3.6-5.8,5.9-15.1-3.5-26.4c-2.3-2.8-4.8-4.2-7.4-4.2c-1.7,0-4.3,0.6-6.6,3.7c-6.1,7.2-11,15.1-14.6,23.6
			s-6,17-7.1,25.4c-1.1,8.5-0.9,16.9,0.5,25C108.8,85.8,111.6,93.3,115.8,99.9z"/>
		<path d="M333.1,103.1c1.9-0.3,3.3-0.6,4.3-1.3c-0.5,1.6-0.3,2.9,0.2,3.9c0.9,2.1,3,3.3,6.2,3.6c1,0.1,1.9,0.1,2.8,0.1
			c5.8,0,10.6-1.5,14.4-4.6c0,0,0.1-0.1,0.1-0.1c4.6-4,8.8-9.2,12.3-15.4c3.4-6.1,6.2-12.8,8.2-20c2-7.2,3.2-14.7,3.5-22.4
			c0.4-7.8-0.3-15.4-1.9-22.7c0,0,0-0.1,0-0.1c-1.3-5.1-3.9-9.6-7.7-13.4c-3.9-3.9-9.2-6.4-15.7-7.6c-1.2-0.2-2.3-0.3-3.2-0.3
			c-0.6,0-1.1,0-1.6,0.1c-2.6,0.5-3.8,2-4.3,2.9c-0.8,1.3-1,2.8-0.7,4.6c0.2,1,0.5,2.1,0.9,3.3c1.6,5,2.9,10.3,3.6,15.8
			c0.8,5.5,1.2,11,1.1,16.4c0,5.5-0.4,10.9-1.2,16.2c-0.8,5.2-1.9,10.2-3.3,14.8c-1.5,4.6-3.2,8.9-5.3,12.8
			c-1.8,3.3-3.7,6.2-5.8,8.6c0.1-1,0-2.3-0.7-3.8c-0.4-1.2-1-2.5-1.8-4c-0.8-1.5-1.7-2.8-2.6-4c-1.3-1.7-2.7-3-4.3-3.8
			c-1.5-0.7-3.2-1.1-5.1-1.1c-0.2,0-0.5,0-0.7,0c-1,0-2.1,0.1-3.3,0.1c2.9-2.5,5.8-5.2,8.4-7.9c3-3,5.8-6.1,8.3-9.1
			c2.6-3.1,4.8-6.1,6.5-8.8c1.6-2.5,3-4.9,4.1-7.3c1.2-2.5,2.1-5.1,2.5-7.7c0.5-2.7,0.5-5.4,0-8.2c-0.5-2.7-1.6-5.5-3.3-8.4
			c0-0.1-0.1-0.1-0.1-0.2c-1.3-1.9-3-3.8-5.1-5.8c-2.1-2-4.7-3.7-7.5-5.1c-2.8-1.4-5.9-2.5-9.3-3.1c-1.7-0.3-3.5-0.5-5.2-0.5
			c-1.9,0-3.8,0.2-5.7,0.5c-6.3,1.1-12.2,3.8-17.4,7.9c-5.2,4-9.5,9-13.1,14.9c0,0.1-0.1,0.1-0.1,0.2c-1,2-1.7,3.6-2.1,5
			c0,0,0,0,0,0c-0.1-1.1-0.2-2.2-0.4-3.3c0,0,0-0.1,0-0.2c-0.6-3.1-1.6-6.1-2.9-8.7c-1.4-2.8-3.7-5.5-6.9-8.1
			c-2.6-2-5.9-3.8-9.7-5.1c-3.7-1.3-7.6-2.2-11.7-2.9c-1.2-0.2-2.5-0.3-3.8-0.3c-2.3,0-4.7,0.3-7.1,0.9c-3.8,1-7.2,2.6-10.2,4.9
			c-3.9,3.2-7.3,6.8-10.1,10.9c-1.4,2-2.7,4.2-3.9,6.4c0-0.2-0.1-0.3-0.1-0.5c-0.8-2.9-2.1-5.6-4.1-8.3c-1.8-2.5-4.1-4.8-6.7-7
			c0,0-0.1,0-0.1-0.1c-4.4-3.5-9.1-5.9-13.9-7.1c-2-0.5-4.1-0.8-6.2-0.8c-3.1,0-6.3,0.6-9.5,1.8c-5.7,2.2-10.8,5.1-15.2,8.6
			c-4.4,3.6-8.1,7.8-10.7,12.5c-3.4,6-4.1,11.9-2.2,17.3c1.3,3.7,3.8,7.2,7.3,10.4c-0.8,0.6-1.6,1.1-2.4,1.7
			c-2.4,1.7-4.5,3.6-6.4,5.6c-2,2.1-3.6,4.3-4.8,6.7c-1.3,2.5-2.1,5.2-2.3,8c-0.4,5.4,1.2,10.3,4.9,14.6c3.5,4.1,8.7,7.2,15.4,9.1
			c3.4,1,7,1.7,10.6,2c1.1,0.1,2.1,0.1,3.2,0.1c2.6,0,5.1-0.2,7.6-0.7c3.5-0.7,6.9-1.8,10.1-3.5c3.3-1.7,6.3-4.1,9-7.2
			c0,0,0.1-0.1,0.1-0.1c2.2-2.8,4.1-5.6,5.4-8.4c1.5-3.2,2.1-6.4,1.9-9.7c-0.3-3.3-1.6-6.7-4-9.9c-1.3-1.8-3-3.5-5.1-5.3
			c2.1-1.3,4.1-2.6,5.9-3.9c1.8-1.3,3.4-2.6,4.8-4c-0.7,4.2-1.1,8.3-1.2,12.3c-0.1,4.6,0.3,9.1,1.1,13.3c0.8,4.3,2,8.2,3.6,11.6
			c0.1,0.1,0.1,0.2,0.2,0.3c1.3,2.3,3.1,4.4,5.3,6.2c2,1.7,4,3,5.8,4c0.1,0,0.1,0.1,0.1,0.1c2.7,1.3,5.6,2.3,8.5,2.9
			c2.8,0.7,5.6,1.1,8.2,1.3c1.5,0.1,3,0.2,4.3,0.2c2.6,0,4.9-0.2,7.1-0.7c3.6-0.8,7.1-2.5,10.4-5.3c4.3-3.7,8-8.4,11-13.9
			c2.9-5.3,5.2-11.1,6.9-17.1c1.6-6,2.7-12.1,3.1-18.2c0.2-2.4,0.2-4.7,0.2-7c0.5,0.9,1,1.7,1.8,2.3c1,0.8,2.1,1.4,3.5,1.8
			c1.7,0.6,3.6,1.1,5.5,1.3c1.5,0.2,3,0.3,4.5,0.3c0.4,0,0.9,0,1.3,0c2-0.1,4-0.4,5.9-1c2-0.6,3.9-1.5,5.5-2.8
			c0.1-0.1,0.3-0.2,0.4-0.3c1.6-1.6,3.4-3.1,5.1-4.6c1.6-1.4,3.2-2.6,4.6-3.5c0.1-0.1,0.3-0.2,0.4-0.2c-0.8,1.4-1.9,3-3.1,4.8
			c-2.2,3-4.9,6.4-8.1,10c-3.2,3.7-6.7,7.4-10.4,11.2c-3.7,3.7-7.5,7.4-11.4,10.9c-3.9,3.5-7.6,6.6-11.1,9.2
			c-1.4,1.1-2.4,2.3-2.9,3.6c-0.5,1.3-0.6,2.8-0.3,4.2c0.2,1.1,0.7,2.2,1.3,3.2c0.5,0.8,1.1,1.6,1.8,2.3c0.6,0.7,1.3,1.4,2,2.1
			c0.8,0.8,1.5,1.5,2.3,2.2c0.8,0.7,1.6,1.4,2.4,2.1c0.8,0.6,1.5,1.2,2.2,1.6c0.6,0.5,1.2,0.9,1.9,1.3c0.8,0.5,1.8,0.8,2.9,1.1
			c0.8,0.2,1.7,0.3,2.7,0.3c0.2,0,0.5,0,0.7,0c1.2,0,2.5-0.2,4.4-0.5c1.9-0.4,4.4-0.8,7.3-1.3c2.9-0.5,6.1-0.9,9.3-1.3
			c3.2-0.4,6.5-0.8,9.7-1.1c3.2-0.3,6-0.6,8.4-0.7C332.9,103.1,333,103.1,333.1,103.1z M176.1,79.5c-0.4,1-0.9,2-1.6,3.1
			c-1.4,2.1-2.9,3.5-4.5,4.3c-1,0.4-1.8,0.7-2.5,0.7c-0.2,0-0.4,0-0.6-0.1c-0.2-0.1-0.3-0.1-0.5-0.3c0,0-0.1-0.1-0.1-0.2
			c0-0.1-0.1-0.3-0.1-0.7c0-0.2,0-0.6,0.4-1.4c1-1.9,2.4-3.9,4.3-5.7c1.4-1.4,3-2.7,4.9-3.9c0.1,0.1,0.2,0.3,0.2,0.4
			c0.3,0.6,0.5,1.2,0.5,1.8C176.6,78,176.4,78.7,176.1,79.5z M186.1,37.8c-1.1,1.8-3.8,4.8-10.2,9.1c0-0.8,0.3-1.7,0.8-2.7
			c0.8-1.6,2.1-3.4,4-5.2c1.4-1.4,3.2-2.9,5.3-4.3C187.1,36.2,186.5,37.1,186.1,37.8z M253.1,44.5c-0.1,3.3-0.4,6.6-0.8,10
			c-0.5,3.4-1.1,6.8-1.9,10c-0.8,3.7-1.9,7-3.2,10c-1.3,3-2.6,5.5-4,7.4c-1.2,1.8-2.4,3-3.6,3.8c-0.7,0.4-1,0.5-1.2,0.5
			c0,0-0.1,0-0.1,0c-0.3-0.1-0.7-0.7-1-1.4c-0.7-1.6-1.1-3.6-1.3-6c-0.2-2.6-0.1-5.5,0.2-8.6c0.4-3.2,1-6.5,1.8-9.7
			c0.9-3.3,2.1-6.7,3.6-10c1.5-3.3,3.1-6.2,4.8-8.7c1.6-2.4,3.2-4.2,4.8-5.5c0.5-0.4,0.8-0.6,1.1-0.7c0.1,0.2,0.2,0.6,0.3,1.1
			C253.1,38.7,253.2,41.3,253.1,44.5z"/>
		<path d="M505.5,107.7c1.8,0.7,3.2,1,4.5,1c0.4,0,0.8,0,1.2-0.1c1.4-0.3,3.4-1.2,4.8-4.1c2.6-5,5.6-10.4,8.9-16
			c3.4-5.7,6.9-11.4,10.6-17c3.7-5.7,7.5-11.3,11.3-16.7c3.8-5.4,7.7-10.6,11.3-15.3c0.1-0.1,0.1-0.1,0.2-0.2c0.5,0.4,1,0.8,1.6,1.1
			c0.3,0.2,0.5,0.3,0.8,0.5c-0.8,3.8-1.6,7.8-2.4,12c-1,5.3-1.9,10.6-2.7,15.6c-0.8,5-1.5,9.8-2,14.1c-0.5,4.3-0.8,7.8-1,10.4
			c-0.2,2.4,0,4.4,0.7,6c0.8,1.9,2.2,3.4,4.3,4.6c0.1,0,0.1,0.1,0.2,0.1c1.9,1,3.8,1.7,5.8,2.1c1.6,0.4,3.2,0.8,4.7,1.2
			c1.4,0.4,2.5,0.6,3.5,0.6c1.2,0,2.2-0.3,3.1-0.8c1.5-0.9,2.5-2.4,3.2-4.6c0-0.1,0.1-0.3,0.1-0.4c0.5-3,1.2-6.4,2-10.3
			c0.8-3.8,1.7-8,2.7-12.3c1-4.3,2-8.8,3.2-13.4c0.3-1.1,0.5-2.2,0.8-3.3c0.9,1.1,1.9,2.3,3,3.4c1.9,2.1,3.7,3.4,5.5,4.1
			c1.1,0.4,2.3,0.7,3.5,0.7c1,0,2-0.2,2.9-0.4c5-1.3,10.5-2.3,16.4-2.9c6-0.6,12-1.2,17.9-1.6c1.8-0.1,4.4-0.4,6.1-2.3
			c2.3-2.7,0.9-6.3,0.4-7.5c0-0.1-0.1-0.2-0.1-0.3c-0.7-1.3-1.3-2.7-1.9-4.1c-0.7-1.7-1.6-3.4-2.7-5.3c-0.1-0.1-0.2-0.2-0.2-0.4
			c-1.4-1.9-2.9-3.4-4.5-4.4c-1.8-1.2-4-1.7-6.3-1.7c-3.5,0-7.1,0.1-10.9,0.4c-3.7,0.2-7.4,0.5-10.9,0.9c-3.6,0.3-7,0.8-10.2,1.3
			c-1,0.2-1.8,0.3-2.7,0.4c0.3-1,0.5-2,0.8-3c1.1-4.1,2.2-7.6,3.1-10.7c1-2.8,1.1-5.2,0.1-7.2c-0.8-1.6-2.3-3.2-4.8-4.8
			c-2.2-1.5-4.3-2.8-6.5-3.8c-2.2-1-4.4-1.9-6.7-2.5c-1.3-0.3-2.3-0.5-3.3-0.6c-0.3,0-0.6,0-0.9,0c-1,0-1.9,0.1-2.8,0.5
			c-1.1,0.4-2.1,1-3,1.9c-0.7,0.6-1.3,1.4-2.1,2.3c0,0.1-0.1,0.1-0.1,0.2c-1.4,1.9-3,4.2-4.6,6.8c-0.8,1.3-1.5,2.5-2.2,3.7
			c-0.1-0.1-0.2-0.3-0.3-0.5c-0.9-1.3-2-2.7-3.1-4.4c-1.2-1.8-2.7-3.6-4.3-5.4c-1.7-2.3-3.7-3.9-5.8-4.7c-1.9-0.7-4-1-6.7-1
			c0,0-0.1,0-0.2,0c-3.6,0.1-7.7,0.4-11.9,0.6c-4.3,0.3-8.6,0.6-12.8,1c-4.2,0.4-8.3,0.9-12.2,1.5c-4,0.6-7.6,1.3-10.5,2.1
			c-2.4,0.6-4,1.7-4.9,3.4c0,0.1-0.1,0.2-0.1,0.3c-0.8-1.4-2.2-2.7-4.1-3.8c-0.1-0.1-0.2-0.1-0.3-0.1c-0.9-0.4-2-0.9-3.2-1.5
			c-1.2-0.5-2.5-1-3.9-1.5c-1.4-0.5-2.8-0.9-4.2-1.3c-1.5-0.4-2.8-0.7-4-1c-1.3-0.2-2.5-0.4-3.5-0.4c-0.2,0-0.3,0-0.5,0
			c-1.1,0-2.1,0.2-3,0.5c-1,0.3-2,0.8-2.9,1.5c-0.7,0.5-1.5,1.1-2.4,1.9c-7.1,6.1-13,12.4-17.5,18.8c-4.5,6.4-8,12.7-10.6,18.6
			c-2.5,6-4.3,11.7-5.1,17c-0.9,5.2-1.2,9.7-1.1,13.4c0.1,3,0.5,5.7,1.3,8.1c0.8,2.5,2,4.9,3.6,7c1.6,2.1,3.7,3.9,6.2,5.5
			c2.4,1.5,5.2,2.9,8.5,4.1c0.1,0,0.1,0,0.2,0.1c3.3,1,6.3,1.7,9,2.1c1.9,0.3,3.8,0.4,5.4,0.4c0.7,0,1.4,0,2-0.1
			c2.3-0.2,4.4-0.6,6.3-1.3c1.7-0.6,3.4-1.4,4.8-2.3c0,0,0.1,0,0.1-0.1c2.3-1.4,4.5-3.3,6.7-5.6c2.2-2.3,4.1-4.9,5.8-7.9
			c1.6-2.9,3-6.1,4-9.5c1-3.5,1.4-7.1,1.2-10.8c0-2-0.3-3.9-0.7-5.8c-0.5-2.1-1.5-4-2.8-5.8c-1.3-1.7-3-3.3-5-4.8
			c-2-1.4-4.5-2.7-7.4-3.8c-1.6-0.7-3.3-1.2-5-1.5c2.1-2.8,4.3-5.5,6.7-8.1c4-4.4,8.4-8.6,13.2-12.6c0.1,0,0.1-0.1,0.2-0.1
			c1.4-1.3,2.4-2.6,3-4c0.3,0.6,0.6,1.1,0.9,1.4c0.5,0.8,1,1.7,1.6,2.6c0.7,1,1.4,1.9,2.1,2.8c0.7,0.9,1.4,1.7,2,2.5
			c0.6,0.8,1.2,1.4,1.6,2c0.1,0.2,0.3,0.3,0.5,0.5c2.1,1.9,4.3,3.1,6.6,3.7c1.1,0.3,2.3,0.4,3.5,0.4c1,0,1.9-0.1,2.9-0.3
			c1.3-0.1,2.8-0.3,4.7-0.5c1.9-0.2,3.9-0.5,5.9-0.8c1.1-0.2,2.2-0.3,3.3-0.4c-1.7,2.5-3.3,5-5,7.5c-3.2,5-6.4,10.1-9.3,15.1
			c-3,5-5.8,10.1-8.3,15c-2.6,5-4.9,9.8-6.8,14.4c0,0.1-0.1,0.2-0.1,0.3c-0.7,2.2-1,4-0.9,5.6c0.2,2,1.3,3.8,3.2,5.7
			c0,0,0,0.1,0.1,0.1c1.5,1.3,3.1,2.5,4.9,3.6c1.7,1,3.4,1.9,5.1,2.8C505.3,107.6,505.4,107.6,505.5,107.7z M457.6,71.3
			c-0.1,2.1-0.9,4.7-2.3,7.5c-1.6,3.3-3.4,5.6-5.2,6.9c-0.5,0.4-1.3,0.8-2,0.8c-0.3,0-0.5-0.1-0.9-0.2c0,0-0.3-0.4-0.3-1.8
			c0-2.3,0.6-5.4,1.8-9.2c0.7-1,1.5-1.9,2.3-2.6c0.9-0.9,1.9-1.5,2.8-2c0.8-0.4,1.6-0.7,2.3-0.8c0.2,0,0.4,0,0.5,0
			c0.2,0,0.4,0,0.6,0.1C457.5,70,457.7,70.3,457.6,71.3z"/>
		<path d="M764.3,28.7c1-2.8,1.1-5.2,0.1-7.2c-0.8-1.6-2.3-3.2-4.8-4.8c-2.2-1.5-4.3-2.8-6.5-3.8c-2.2-1-4.4-1.9-6.7-2.5
			c-1.3-0.3-2.3-0.5-3.3-0.6c-0.3,0-0.6,0-0.9,0c-1,0-1.9,0.1-2.8,0.5c-1.1,0.4-2.1,1-3,1.9c-0.7,0.6-1.3,1.4-2.1,2.3
			c0,0.1-0.1,0.1-0.1,0.2c-1.4,1.9-3,4.2-4.6,6.8c-1.5,2.4-2.9,4.9-4.1,7.3c-0.7-1.6-1.6-3.1-2.7-4.6c-1.8-2.5-4.1-4.8-6.7-7
			c0,0-0.1,0-0.1-0.1c-4.5-3.5-9.1-5.9-13.9-7.1c-2-0.5-4.1-0.8-6.2-0.8c-3.1,0-6.3,0.6-9.5,1.8c-5.7,2.2-10.8,5.1-15.2,8.6
			c-4.5,3.6-8,7.8-10.7,12.5c-3.4,6-4.1,11.8-2.2,17.3c1.3,3.7,3.8,7.2,7.3,10.4c-0.8,0.6-1.6,1.1-2.4,1.7c-2.4,1.7-4.5,3.6-6.4,5.6
			c-2,2.1-3.6,4.3-4.8,6.7c-1.3,2.5-2.1,5.2-2.3,8c-0.4,5.4,1.2,10.3,4.9,14.6c3.5,4.1,8.7,7.2,15.4,9.1c3.4,1,7,1.7,10.6,2
			c1.1,0.1,2.1,0.1,3.2,0.1c2.5,0,5.1-0.2,7.5-0.7c3.5-0.7,7-1.8,10.2-3.5c3.3-1.7,6.3-4.1,9-7.2c0,0,0.1-0.1,0.1-0.1
			c2.2-2.8,4-5.6,5.4-8.4c1.5-3.2,2.1-6.4,1.9-9.7c-0.3-3.3-1.6-6.7-4-9.9c-1.3-1.8-3-3.5-5.1-5.3c2.1-1.3,4.1-2.6,5.9-3.9
			c3.6-2.5,6.4-5.4,8.5-8.5c2.1-2.9,3.4-5.9,4-9c0.1-0.6,0.2-1.2,0.3-1.8c0.3,0.2,0.6,0.4,1,0.6c0.3,0.2,0.5,0.3,0.8,0.5
			c-0.8,3.8-1.6,7.8-2.4,12c-1,5.3-1.9,10.6-2.7,15.6c-0.8,5-1.5,9.8-2,14.1c-0.5,4.3-0.8,7.8-1,10.4c-0.2,2.4,0,4.4,0.7,6
			c0.8,1.9,2.2,3.4,4.3,4.6c0.1,0,0.1,0.1,0.2,0.1c1.9,1,3.8,1.7,5.8,2.1c1.6,0.4,3.2,0.8,4.7,1.2c1.4,0.4,2.5,0.6,3.5,0.6
			c1.2,0,2.2-0.3,3.1-0.8c1.5-0.9,2.5-2.4,3.2-4.6c0-0.1,0.1-0.3,0.1-0.4c0.5-3,1.2-6.4,2-10.3c0.8-3.8,1.7-8,2.7-12.3
			c1-4.3,2-8.8,3.2-13.4c1.1-4.6,2.3-9.1,3.4-13.6c1.1-4.4,2.3-8.6,3.4-12.6C762.4,35.3,763.4,31.8,764.3,28.7z M687.5,79.5
			c-0.4,1-0.9,2-1.6,3.1c-1.4,2.1-2.9,3.5-4.5,4.3c-1,0.4-1.8,0.7-2.5,0.7c-0.2,0-0.4,0-0.6-0.1c-0.2-0.1-0.3-0.1-0.5-0.3
			c0,0-0.1-0.1-0.2-0.2c0-0.1-0.1-0.3-0.1-0.7c0-0.2,0-0.6,0.4-1.4c1-1.9,2.4-3.9,4.3-5.7c1.4-1.4,3-2.7,4.9-3.9
			c0.1,0.1,0.2,0.3,0.2,0.4c0.3,0.6,0.5,1.2,0.5,1.8C688,78,687.8,78.7,687.5,79.5z M697.5,37.8c-1.1,1.8-3.8,4.8-10.2,9.1
			c0-0.8,0.3-1.7,0.8-2.7c0.8-1.6,2.1-3.4,4-5.2c1.4-1.4,3.2-2.9,5.3-4.3C698.5,36.2,697.9,37.1,697.5,37.8z"/>
		<path d="M797.9,52c1.1-4.4,2.3-8.6,3.4-12.6c1.1-4.1,2.2-7.6,3.1-10.7c1-2.8,1.1-5.2,0.1-7.2c-0.8-1.6-2.3-3.2-4.8-4.8
			c-2.2-1.5-4.3-2.8-6.5-3.8c-2.2-1-4.4-1.9-6.7-2.5c-1.3-0.3-2.3-0.5-3.3-0.6c-0.3,0-0.6,0-0.9,0c-1,0-1.9,0.1-2.8,0.5
			c-1.1,0.4-2.1,1-3,1.9c-0.7,0.6-1.3,1.4-2.1,2.3c0,0.1-0.1,0.1-0.1,0.2c-1.4,1.9-3,4.2-4.6,6.8c-1.6,2.6-3.1,5.2-4.3,7.8
			c-0.7,1.5-1.1,2.7-1.2,3.8c-0.2,1.6,0.2,3.2,1.1,4.5c0.7,1.1,1.8,2,3.2,2.8c0.3,0.2,0.5,0.3,0.8,0.5c-0.8,3.8-1.6,7.8-2.4,12
			c-1,5.3-1.9,10.6-2.7,15.6c-0.8,5-1.5,9.8-2,14.1c-0.5,4.3-0.8,7.8-1,10.4c-0.2,2.4,0,4.4,0.7,6c0.8,1.9,2.2,3.4,4.3,4.6
			c0.1,0,0.1,0.1,0.2,0.1c1.9,1,3.8,1.7,5.8,2.1c1.6,0.4,3.2,0.8,4.7,1.2c1.4,0.4,2.5,0.6,3.5,0.6c1.2,0,2.2-0.3,3.1-0.8
			c1.5-0.9,2.5-2.4,3.2-4.6c0-0.1,0.1-0.3,0.1-0.4c0.5-3,1.2-6.4,2-10.3c0.8-3.8,1.7-8,2.7-12.3c1-4.3,2-8.8,3.2-13.4
			C795.6,60.9,796.8,56.4,797.9,52z"/>
		<path d="M837.4,79.5c-0.4,0.9-1.1,1.9-2.1,2.9c-1,1-2.2,1.9-3.3,2.4c-1.1,0.5-2.3,0.8-3.7,0.9c-0.2,0-0.5,0-0.7,0
			c-1.4,0-2.9-0.2-4.6-0.6c-2.1-0.5-4.5-1.4-7.2-2.8c-2.5-1.2-5.3-1.9-8.3-2.2c-0.5-0.1-1-0.1-1.6-0.1c-2.9,0-5.5,0.7-7.9,2.2
			c-1,0.6-1.9,1.3-2.6,2.2c-1,1.3-1.4,3-1.1,4.7c0.2,1.3,0.9,2.7,2.1,4.1c0.9,1.1,2.2,2.3,3.9,3.6c5.2,4.3,10.5,7.2,15.7,8.8
			c5.1,1.5,10,2.3,14.7,2.3c6.1,0,11.7-0.9,16.7-2.6c5.2-1.8,10-5.2,14.2-10.1c1.8-2.3,3.3-4.8,4.3-7.4c1-2.8,1.4-5.7,1.2-8.5
			c-0.2-2.9-1.1-5.8-2.6-8.6c-1.5-2.8-3.8-5.4-6.7-7.9c-0.7-0.6-1.4-1.1-2.1-1.6c0.4-0.2,0.8-0.5,1.2-0.7c3-1.6,5.5-3.5,7.7-5.4
			c2-1.8,3.7-4,5.1-6.5c1.4-2.6,2.2-5.5,2.4-8.7c0.3-3.1-0.2-6.4-1.3-9.7c-1.1-3.3-3-6.7-5.7-10.1c0,0-0.1-0.1-0.1-0.1
			c-2.7-3.1-5.4-5.5-8.2-7.2s-5.5-2.8-8.3-3.4c-2-0.4-4-0.7-5.9-0.7c-0.7,0-1.3,0-1.9,0.1c-2.2,0.2-4.4,0.5-6.3,0.8c0,0-0.1,0-0.1,0
			c-2.7,0.6-5.4,1.5-8,2.7c-2.5,1.2-4.9,2.5-7.2,4c-2.2,1.5-4.3,3.1-6.1,4.8c-1.9,1.7-3.5,3.4-4.6,5c-3.1,3.9-2.5,8.6,1.5,12.1
			c0.1,0.1,0.1,0.1,0.2,0.2c1.5,1.2,3.4,2.2,5.5,3c2.1,0.8,4.3,1.3,6.5,1.6c0.9,0.1,1.8,0.2,2.7,0.2c1.3,0,2.7-0.1,4-0.3
			c2.4-0.4,4.5-1.3,6.4-2.6c0.9-0.5,1.9-1.1,2.8-1.6c1-0.5,2-1.1,3-1.5c0.7-0.3,1.3-0.6,1.9-0.8c-0.7,0.7-1.7,1.6-3.2,2.7
			c-2.5,1.8-6,3.8-10.4,5.9c-4.4,2.1-10,4.3-16.5,6.3c0,0-0.1,0-0.1,0c-3.1,1.1-4.3,3-4.8,4.4c-0.7,2.2-0.2,4.7,1.5,7.3
			c2.5,3.8,5.6,6.8,9.2,8.7c3,1.6,6.2,2.4,9.4,2.4c0.8,0,1.6-0.1,2.5-0.2c1.6-0.2,3-0.3,4.1-0.3c0.4,0,0.8,0,1.1,0
			c0.7,0.1,1.4,0.4,2.1,0.9c0.1,0.1,0.2,0.3,0.4,0.7c0.2,0.4,0.2,0.9,0.2,1.5C838.1,77.7,837.8,78.6,837.4,79.5z"/>
		<path d="M303.3,164.7c-1-2-2-3.8-3-5.5c-1.2-1.9-2.7-3.6-4.5-5.2c-2.2-1.9-4.4-2.8-6.5-2.8c-2.3,0-4.5,1.3-6.4,3.7
			c-1.8,2.1-4,4.8-6.7,7.9c-2.7,3.1-5.7,6.4-8.9,9.9c-2.9,3.1-5.9,6.4-9,9.8c0-0.1,0-0.1,0-0.2c1-4.4,2-8.3,3-11.7
			c0.4-1.1,0.6-2.1,0.7-3.1c0.1-1.4-0.1-2.8-0.7-4c-0.5-1-1.3-2-2.4-2.9c-0.7-0.6-1.6-1.3-2.8-2.1c-2-1.4-4.4-2.6-7.1-3.8
			c-2.6-1.2-5.2-2.1-7.6-2.6c-1.5-0.5-2.8-0.7-4.1-0.7c-1.1,0-2.2,0.2-3.1,0.6c-2.3,0.9-3.9,3-4.8,6.1c0,0.1-0.1,0.2-0.1,0.3
			c-0.5,2.3-1,4.9-1.5,7.7c-0.5-0.9-1.2-1.9-1.9-2.8c-1-1.3-2.3-2.5-3.8-3.8c-0.1-0.1-0.3-0.2-0.4-0.3c-1.5-1-3.2-1.9-5-2.8
			c-1.8-0.9-3.8-1.8-5.8-2.5c-2.1-0.8-4.2-1.4-6.4-2c-2.2-0.6-4.4-0.9-6.5-1.2c0,0-0.1,0-0.1,0c-0.7-0.1-1.3-0.1-2-0.1
			c-2.4,0-5,0.3-7.6,1c-3.5,0.9-7,2.8-10.3,5.7c-3.8,3.3-7.2,7.1-10.2,11.5c-1.2,1.8-2.4,3.7-3.5,5.7c0.3-0.8,0.5-1.6,0.7-2.4
			c0-0.1,0-0.1,0.1-0.2c0.7-2.7,0.7-4.9,0-6.7c-0.7-1.8-2.3-3.4-4.9-5.3c-2-1.4-4.4-2.6-7.1-3.8c-2.6-1.2-5.1-2.1-7.4-2.7
			c-1.6-0.5-3-0.7-4.2-0.7c-1.2,0-2.2,0.2-3.2,0.6c-2.2,0.9-3.8,3-4.8,6.1c0,0.1-0.1,0.2-0.1,0.3c-0.8,3.2-1.6,7.1-2.5,11.3
			c-0.9,4.3-1.8,8.9-2.6,13.7c-0.8,4.7-1.7,9.6-2.5,14.7c-0.8,5-1.6,9.8-2.2,14.3c-0.7,4.5-1.2,8.7-1.7,12.6
			c-0.2,1.6-0.3,3.1-0.5,4.6c-0.6-1.4-1.4-2.9-2.3-4.2c-1.3-2-2.9-3.4-4.7-4.1c-1.2-0.4-2.6-0.7-4.3-0.7c-0.5,0-1.1,0-1.7,0.1
			c-3.2,0.2-6.3,0.4-9.1,0.7c-1,0.1-2.1,0.2-3.2,0.4c0.7-2.9,1.4-5.9,2.2-9c1.3-5.1,2.6-10.3,4-15.4c1.4-5.1,2.8-10.2,4.2-15.1
			c1.4-4.8,2.8-9.3,4.1-13.3c1-2.8,1-5.1,0.1-7.1c-0.8-1.6-2.2-3.2-4.6-4.9c-0.1,0-0.1-0.1-0.1-0.1c-2.1-1.4-4.5-2.6-7.2-3.7
			c-2.6-1-5-1.9-7.3-2.5c-1.7-0.5-3.1-0.7-4.4-0.7c-1,0-1.9,0.1-2.8,0.4c-2.3,0.8-4,2.8-5.1,6c0,0.1-0.1,0.2-0.1,0.2
			c-1,3.5-2,7.4-3,11.6c0,0.2-0.1,0.3-0.1,0.5c-0.3-0.9-0.6-1.8-1-2.7c-0.7-1.4-1.5-2.7-2.6-4.1c-1-1.3-2.3-2.5-3.8-3.8
			c-0.1-0.1-0.3-0.2-0.4-0.3c-1.5-1-3.2-1.9-5-2.8c-1.8-0.9-3.8-1.8-5.8-2.5c-2-0.8-4.2-1.4-6.4-2c-2.2-0.6-4.4-0.9-6.5-1.2
			c0,0-0.1,0-0.1,0c-0.7-0.1-1.3-0.1-2-0.1c-2.4,0-5,0.3-7.6,1c-3.5,0.9-7,2.8-10.3,5.7c-3.8,3.3-7.2,7.1-10.2,11.5
			c-2.9,4.3-5.4,8.9-7.5,13.6c-2.1,4.8-3.7,9.8-4.9,14.8c-1.2,5-1.9,10-2.1,14.8c-0.2,4.8,0.1,9.4,0.8,13.7
			c0.8,4.4,2.2,8.4,4.2,11.7c1.3,2.4,3.1,4.4,5.3,6.2c2.1,1.7,4.3,2.9,6.5,3.8c0.1,0,0.2,0.1,0.2,0.1c2,0.7,4.4,1.4,7.1,2.2
			c2.9,0.9,6.1,1.4,9.6,1.6c0.8,0.1,1.7,0.1,2.6,0.1c0.9,0,1.8,0,2.7-0.1c1.8-0.1,3.5-0.4,5.2-0.8c1.7-0.4,3.3-0.9,4.8-1.5
			c1.5-0.6,2.9-1.3,4.1-2.1c0.1,0,0.1-0.1,0.2-0.1c2.1-1.5,4.3-3.4,6.3-5.6c2.2-2.3,4-4.9,5.3-7.6c0.2-0.3,0.3-0.6,0.4-0.9
			c-0.1,1.9,0.3,3.6,1.1,5.1c0.9,1.7,2.1,3.2,3.7,4.5c0,0,0.1,0,0.1,0.1c1.5,1.2,2.8,2.2,3.7,3c1.1,0.9,2.2,1.7,3.5,2.5
			c0.6,0.4,1.2,0.8,1.9,1.1c0.8,0.4,1.8,0.8,2.9,1c0.8,0.2,1.7,0.3,2.7,0.3c0.3,0,0.7,0,1.1,0c1.3-0.1,2.7-0.4,4.4-0.8
			c3.9-0.8,8.3-1.6,12.8-2.5c4.6-0.9,9-1.7,13.3-2.5c2.4-0.5,4.2-1,5.4-2.2c0.9,1.7,2.6,3.2,4.9,4.3c1.6,0.9,3.4,1.6,5.2,2.1
			c1.7,0.5,3.4,1,5.2,1.5c0.1,0,0.1,0,0.1,0c1.3,0.3,2.4,0.4,3.3,0.4c1.3,0,2.3-0.3,3.2-0.8c1.5-0.9,2.5-2.4,3.2-4.6
			c0-0.1,0.1-0.2,0.1-0.4c0.6-3.1,1.4-6.6,2.2-10.4c0.8-3.9,1.8-8.1,2.8-12.5c0.4-1.7,0.8-3.4,1.2-5.2c0.1,3.1,0.4,6.1,0.9,8.9
			c0.8,4.4,2.2,8.4,4.2,11.7c1.3,2.4,3.1,4.4,5.3,6.2c2.1,1.7,4.3,2.9,6.5,3.8c0.1,0,0.2,0.1,0.2,0.1c2.1,0.7,4.4,1.4,7.1,2.2
			c2.9,0.9,6.1,1.4,9.6,1.6c0.9,0.1,1.7,0.1,2.6,0.1c0.9,0,1.8,0,2.7-0.1c1.8-0.1,3.5-0.4,5.2-0.8c1.7-0.4,3.3-0.9,4.8-1.5
			c1.6-0.6,2.9-1.3,4.1-2.1c0.1,0,0.1-0.1,0.2-0.1c2.1-1.5,4.3-3.4,6.3-5.6c2.1-2.3,3.9-4.9,5.3-7.6c0.3-0.5,0.5-1,0.8-1.5
			c-0.1,1.5-0.2,2.9-0.2,4c-0.2,4.7,1.6,7.4,3.2,8.8c1.9,1.7,4.6,3,8.3,4c1.5,0.4,2.8,0.8,4.1,1.2c1.6,0.5,3,0.7,4.2,0.8
			c0.1,0,0.3,0,0.4,0c1.7,0,3.1-0.5,4.3-1.4c1-0.8,2.1-2.2,2.2-4.9c0.5-3,1.1-6.3,1.8-9.9c0.2-1.1,0.4-2.3,0.7-3.6
			c1.4,1.8,2.8,3.5,4.2,5.1c1.6,1.9,3.1,3.6,4.4,5s2.3,2.6,3.1,3.4c2.5,2.6,5.1,4.2,7.9,4.6c0.9,0.1,1.7,0.2,2.6,0.2
			c1.4,0,2.8-0.2,4.2-0.5c1.3-0.2,2.6-0.4,3.9-0.8c1.4-0.4,2.7-0.9,3.8-1.5c2.5-1.2,4-2.6,4.6-4.4c0.7-2.2,0-4.5-2.3-6.8
			c-1-1.1-2.2-2.6-3.6-4.3c-1.4-1.8-2.9-3.8-4.4-5.9c-1.5-2.1-3.1-4.4-4.7-6.7c-0.9-1.4-1.8-2.7-2.7-4c2.3-2.2,4.8-4.6,7.2-7
			c3.4-3.3,6.7-6.7,9.8-10c3.1-3.4,6.1-6.7,8.8-9.9c2.8-3.3,5-6.4,6.6-9.1c1.6-2.6,2.5-4.9,2.8-6.9c0.2-2.1,0-4.2-0.8-6.3
			C303.4,164.9,303.4,164.8,303.3,164.7z M68.4,209.7c-0.7,4.3-1.3,8.3-1.8,12c-0.1,0.7-0.2,1.4-0.3,2c-0.8-1.7-2.6-3.3-6.3-4.3
			c-2.4-0.7-4.7-1-6.8-1c-5,0-9.4,1.8-13,5.4c-5.9,6.1-8.2,6.3-8.4,6.3c0,0-0.1,0-0.1,0c0,0-0.3-0.2-0.7-1.1c-0.6-1.5-1-3.4-1.1-5.8
			c-0.1-2.5,0-5.4,0.4-8.5c0.4-3.2,1-6.4,1.9-9.7c0.9-3.1,2.2-6.5,3.8-10.1c1.6-3.6,3.3-7,5.2-10.1c1.8-2.9,3.5-5.3,5.1-7.1
			c0.2-0.2,0.3-0.3,0.5-0.5c0.2,1.4,0.2,3,0.2,4.7c0,0,0,0.1,0,0.1c0,1.4,0.1,2.9,0.4,4.6c0.3,2.1,0.9,4,1.7,5.6
			c0.8,1.7,1.9,3.3,3.3,4.6c1.3,1.3,3,2.4,5,3.3c1.9,0.9,4.1,1.5,6.6,2c1.1,0.2,2.1,0.3,2.9,0.3c0.3,0,0.7,0,0.9-0.1
			c0.6-0.1,1.2-0.2,1.7-0.4C69.2,204.7,68.8,207.2,68.4,209.7z M220.9,213.6c-0.4,3.6-0.8,7-1.1,10.2c-0.8-1.7-2.6-3.5-6.4-4.4
			c-2.4-0.7-4.6-1-6.8-1c-5.1,0-9.4,1.8-13,5.4c-5.9,6.1-8.2,6.3-8.4,6.3c-0.1,0-0.1,0-0.1,0c0,0-0.3-0.2-0.7-1.1
			c-0.6-1.5-0.9-3.4-1.1-5.8c-0.1-2.5,0-5.4,0.4-8.5c0.4-3.2,1.1-6.4,1.9-9.7c0.9-3.1,2.2-6.5,3.8-10.1c1.6-3.6,3.3-7,5.1-10.1
			c1.8-2.9,3.5-5.3,5.1-7.1c0.2-0.2,0.3-0.3,0.5-0.5c0.2,1.4,0.2,3,0.2,4.7c0,0,0,0.1,0,0.1c0,1.4,0.1,2.9,0.4,4.6
			c0.3,2.1,0.9,4,1.7,5.6c0.8,1.7,1.9,3.3,3.3,4.6c1.4,1.3,3,2.4,5,3.3c1.9,0.9,4.1,1.5,6.6,2c1.1,0.2,2.1,0.3,2.9,0.3
			c0.4,0,0.7,0,0.9-0.1c0.4,0,0.7-0.1,1-0.2C221.8,206.2,221.3,210,220.9,213.6z"/>
		<path d="M471.8,177.8c-0.6-3.4-1.6-6.4-3-9.1c-1.5-2.9-3.7-5.5-6.8-8c-2.6-2.1-6-3.9-9.9-5.3c-3.8-1.4-7.8-2.4-11.9-3.1
			c-1.2-0.2-2.5-0.3-3.7-0.3c-2.4,0-5,0.4-7.5,1.1c-3.8,1.1-7.1,2.7-9.9,4.9c-0.1,0.1-0.1,0.1-0.2,0.1c-3.6,3.1-6.9,6.7-9.6,10.6
			c-0.1-0.4-0.2-0.9-0.3-1.3c-0.5-2-1.3-4.1-2.3-6.1c-1-2.1-2.3-4.1-3.9-5.9c-1.1-1.4-2.5-2.4-4-3.1c-1.4-0.6-3.4-0.9-6.1-0.9
			c0,0-0.1,0-0.1,0c-4.1,0.1-8.7,0.4-13.9,0.8c-5.1,0.4-10.4,0.9-15.7,1.4c-5.3,0.6-10.6,1.2-15.7,1.9c-5.2,0.7-9.9,1.5-14,2.3
			c-0.1,0-0.1,0-0.2,0.1c-2.2,0.6-3.7,1.4-4.7,2.6c-2.3,2.8-0.4,6.3,0.2,7.4c0.8,1.6,1.8,3.4,3,5.7c1.4,2.5,2.9,4.6,4.6,6.3
			c1.9,2,3.7,3.2,5.5,3.7c0.8,0.2,1.7,0.4,2.7,0.4c1.1,0,2.3-0.2,3.6-0.5c0,0,0.1,0,0.1,0c1-0.3,2.4-0.5,4.1-0.8c0,0,0.1,0,0.1,0
			c-0.6,3.1-1.3,6.3-1.9,9.6c-1,5.4-2,10.9-2.8,16.3c-0.9,5.3-1.6,10.5-2.2,15.3c-0.6,4.7-1,8.8-1.2,12.1c-0.4,1.9-0.3,3.7,0.3,5.2
			c0.6,1.6,1.5,2.9,2.8,4c1.1,1,2.5,1.8,4,2.4c1.3,0.5,2.8,1,4.3,1.5c1.4,0.4,2.7,0.8,3.9,1.1c1.5,0.4,2.8,0.7,4,0.7
			c0.1,0,0.3,0,0.4,0c1.5,0,2.8-0.3,3.9-1c1.1-0.6,2.5-2,2.9-4.6c1-4.9,2-10.3,3.3-15.9c1.3-5.7,2.6-11.6,4-17.6
			c1.4-6,2.9-12.2,4.5-18.3l3.8-15.1c2.4-0.2,4.7-0.5,6.9-0.7c3.1-0.3,6-0.6,8.7-0.9c0.9-0.1,1.8-0.2,2.7-0.4c-1,1.9-2,3.8-2.8,5.8
			c-1.9,4.5-3.4,9.2-4.4,14c-1,4.8-1.5,9.5-1.6,14.1c-0.1,4.6,0.3,9.2,1.2,13.4c0.9,4.3,2.3,8.3,4.1,11.8c1.3,2.4,3,4.5,5.1,6.3
			c2,1.7,4.1,3.1,6.2,4.2c2.6,1.3,5.4,2.3,8.5,3c2.9,0.6,5.7,1.1,8.4,1.4c1.5,0.2,3.1,0.3,4.5,0.3c2.6,0,5-0.3,7.2-0.8
			c3.5-0.9,7-2.5,10.1-5c0.1-0.1,0.1-0.1,0.2-0.2c4.4-3.9,8.1-8.6,11.1-14.1c2.9-5.4,5.2-11.1,6.9-17.2c1.7-6,2.7-12.1,3.2-18.2
			c0.4-6.1,0.2-11.9-0.5-17.1C471.8,177.9,471.8,177.8,471.8,177.8z M442.2,197.3c-0.5,3.7-1.2,7.1-2.1,10.2
			c-1,3.7-2.1,7.1-3.5,10.3c-1.3,3-2.6,5.6-4.1,7.6c-1.3,1.9-2.5,3.2-3.7,4c-0.5,0.3-0.8,0.4-0.9,0.4c0,0,0,0,0,0c0,0-0.1,0-0.1,0
			c-0.3-0.1-0.7-0.7-1-1.5c-0.7-1.7-1-3.9-1.2-6.4c-0.1-2.7,0-5.8,0.4-9c0.4-3.2,1-6.4,1.9-9.4c0.9-3.1,2.1-6.4,3.6-9.7
			c1.5-3.3,3-6.4,4.7-9.1c1.6-2.6,3.2-4.6,4.7-6c0.3-0.3,0.6-0.5,0.8-0.6c0.1,0.3,0.3,0.6,0.4,1.2c0.6,2.1,0.8,4.7,0.8,7.7
			C443,190.2,442.8,193.6,442.2,197.3z"/>
		<path d="M752.8,231.2c-0.6-1.5-1.4-3-2.3-4.4c-1.3-2-2.9-3.4-4.7-4.1c-1.2-0.4-2.6-0.7-4.3-0.7c-0.5,0-1.1,0-1.7,0.1
			c-3.2,0.2-6.3,0.4-9.1,0.7c-1,0.1-2.1,0.2-3.2,0.4c0.7-2.9,1.4-5.9,2.2-9c1.3-5.1,2.6-10.3,4-15.4c1.4-5.1,2.8-10.2,4.2-15.1
			c1.4-4.8,2.8-9.3,4.1-13.3c1-2.8,1-5.1,0.1-7.1c-0.8-1.6-2.2-3.2-4.6-4.9c0,0-0.1-0.1-0.1-0.1c-2.1-1.4-4.5-2.6-7.2-3.7
			c-2.6-1-5-1.9-7.3-2.5c-1.7-0.5-3.1-0.7-4.4-0.7c-1,0-1.9,0.1-2.8,0.4c-2.3,0.8-4,2.8-5.1,6c0,0.1,0,0.2-0.1,0.2
			c-1,3.5-2,7.4-3,11.6s-2,8.6-3,13.1c-1,4.5-1.9,9.1-2.7,13.7c-0.8,4.5-1.6,9-2.3,13.3c-0.7,4.3-1.3,8.3-1.8,12
			c-0.4,2.8-0.7,5.4-0.9,7.6c-0.4-0.8-0.9-1.7-1.4-2.4c-1.3-2-2.9-3.4-4.7-4.1c-1.2-0.4-2.6-0.7-4.3-0.7c-0.5,0-1.1,0-1.7,0.1
			c-3.2,0.2-6.3,0.4-9.1,0.7c-1,0.1-2.1,0.2-3.2,0.4c0.7-2.9,1.4-5.9,2.2-9c1.3-5.1,2.6-10.3,4-15.4c1.4-5.1,2.8-10.2,4.2-15.1
			c1.4-4.8,2.8-9.3,4.1-13.3c1-2.8,1-5.1,0.1-7.1c-0.8-1.6-2.2-3.2-4.6-4.9c0,0-0.1-0.1-0.1-0.1c-2.1-1.4-4.5-2.6-7.2-3.7
			c-2.6-1-5-1.9-7.3-2.5c-1.7-0.5-3.1-0.7-4.4-0.7c-1,0-1.9,0.1-2.8,0.4c-2.3,0.8-4,2.8-5.1,6c0,0.1,0,0.2-0.1,0.2
			c-1,3.5-2,7.4-3,11.6s-2,8.6-3,13.1c-1,4.5-1.9,9.1-2.7,13.7c-0.4,2.3-0.8,4.5-1.2,6.7c0.1-6.6,0.3-12.9,0.6-19
			c0.3-6.2,0.6-11.7,1-16.5c0.3-2.7,0-5-0.9-6.9c-1-2.2-3.2-3.9-6.3-5c-0.1,0-0.2-0.1-0.3-0.1c-1.5-0.4-3-0.8-4.5-1.3
			c-1.6-0.5-3.4-1-5.3-1.4c-1.9-0.4-4-0.8-6.3-1.1c-2.3-0.3-4.9-0.6-7.8-0.7c-0.7-0.1-1.4-0.1-2-0.1c-3.2,0-5.8,0.7-7.8,2.1
			c-2.1,1.5-3.9,3.5-5.2,5.8c-2.9,5.2-6,11.2-9.2,17.8c-3.2,6.7-6.4,13.4-9.4,20.1c-3,6.8-5.9,13.4-8.6,19.8
			c-1.6,3.9-3.1,7.6-4.3,10.9c0-0.5,0-1,0-1.4c-0.2-2.3-1.5-5.3-7-6.7c-2.4-0.7-4.7-1-6.8-1c-5,0-9.4,1.8-13,5.4
			c-5.9,6.1-8.2,6.3-8.4,6.3c0,0-0.1,0-0.1,0c0,0-0.3-0.2-0.7-1.1c-0.6-1.5-1-3.4-1.1-5.8c-0.1-2.5,0-5.4,0.4-8.5
			c0.4-3.2,1-6.4,1.9-9.7c0.9-3.1,2.2-6.5,3.8-10.1c1.6-3.6,3.3-7,5.2-10.1c1.8-2.9,3.5-5.3,5.1-7.1c0.2-0.2,0.3-0.3,0.5-0.5
			c0.2,1.4,0.2,3,0.2,4.7c0,0,0,0.1,0,0.1c0,1.4,0.1,2.9,0.4,4.6c0.3,2.1,0.9,4,1.7,5.6c0.8,1.7,1.9,3.3,3.3,4.6
			c1.3,1.3,3,2.4,5,3.3c1.9,0.9,4.1,1.5,6.6,2c1.1,0.2,2.1,0.3,2.9,0.3c0.3,0,0.7,0,1-0.1c1.4-0.1,2.6-0.6,3.5-1.3
			c1-0.7,1.7-1.6,2.2-2.8c0.2-0.5,0.5-1.1,0.7-1.7c0,0,0-0.1,0-0.1c0.5-1.3,0.9-2.9,1.2-4.6c0.4-1.7,0.7-3.4,0.9-5.2
			c0.2-1.8,0.4-3.6,0.5-5.3c0.1-1.8,0.1-3.6,0-5.4c-0.1-1.5-0.2-3-0.5-4.3c-0.3-1.5-0.7-3-1.4-4.5c-0.6-1.4-1.5-2.7-2.6-4.1
			c-1-1.3-2.3-2.5-3.8-3.8c-0.1-0.1-0.3-0.2-0.4-0.3c-1.5-1-3.2-1.9-5-2.8c-1.8-0.9-3.8-1.8-5.8-2.5c-2-0.8-4.2-1.4-6.4-2
			c-2.2-0.6-4.4-0.9-6.5-1.2c0,0-0.1,0-0.1,0c-0.7-0.1-1.3-0.1-2-0.1c-2.4,0-5,0.3-7.6,1c-3.5,0.9-7,2.8-10.3,5.7
			c-3.8,3.3-7.2,7.1-10.2,11.5c-2.9,4.3-5.4,8.9-7.5,13.6c-2.1,4.8-3.7,9.8-4.9,14.8c-1.2,5-1.9,10-2.1,14.8
			c-0.2,4.8,0.1,9.4,0.8,13.7c0.8,4.4,2.2,8.4,4.2,11.7c1.3,2.4,3.1,4.4,5.3,6.2c2.1,1.7,4.3,2.9,6.5,3.8c0.1,0,0.2,0.1,0.2,0.1
			c2,0.7,4.4,1.4,7.1,2.2c2.9,0.9,6.1,1.4,9.6,1.6c0.8,0.1,1.7,0.1,2.6,0.1c0.9,0,1.8,0,2.7-0.1c1.8-0.1,3.5-0.4,5.2-0.8
			c1.7-0.4,3.3-0.9,4.8-1.5c1.6-0.6,2.9-1.3,4.1-2.1c0.1,0,0.1-0.1,0.2-0.1c2.1-1.5,4.3-3.4,6.3-5.6c2-2.1,3.7-4.5,5-7
			c-0.4,1.6-0.6,3-0.6,4.2c0.1,1.6,0.5,2.9,1.2,4.1c0.7,1.1,1.6,2,2.7,2.7c0.6,0.4,1.3,0.8,2,1.3c0.1,0.1,0.3,0.2,0.4,0.3
			c1.2,0.6,2.3,1.1,3.5,1.6c1.1,0.5,2.1,0.9,3,1.2c0,0,0.1,0,0.1,0.1c1.6,0.6,2.9,0.8,4.1,0.8c0.6,0,1.2-0.1,1.7-0.2
			c1.4-0.4,3.3-1.4,4.6-4.2c0,0,0-0.1,0-0.1c1-2.2,1.9-4.4,3-6.7c0.8-1.8,1.7-3.6,2.7-5.6c3.3-0.8,7.1-1.5,11.3-2.1
			c3.7-0.5,7.4-1,11.1-1.5c0.1,1.2,0.2,2.4,0.3,3.6c0.2,2.4,0.5,4.7,0.7,6.7c0.4,2.8,1.1,4.7,2.3,6.1c1.2,1.3,2.9,2.3,5.3,3.1
			c1.9,0.6,3.7,1,5.6,1.1c1.6,0.1,3.3,0.2,5.2,0.2c2,0,4.5-0.2,6.2-1.8c1.3-1.3,2-3.1,2-5.5c0-0.6,0-1.2,0-1.8
			c0.3,0.3,0.7,0.6,1,0.9c1.5,1.2,2.8,2.2,3.7,3c1.1,0.9,2.2,1.7,3.5,2.5c0.6,0.4,1.2,0.8,1.9,1.1c0.8,0.4,1.8,0.8,2.9,1
			c0.8,0.2,1.7,0.3,2.7,0.3c0.3,0,0.7,0,1.1,0c1.3-0.1,2.7-0.4,4.4-0.8c4-0.8,8.3-1.6,12.8-2.5c4.5-0.9,9-1.7,13.3-2.5
			c3.2-0.6,5.3-1.4,6.4-3.5c0.1-0.2,0.2-0.4,0.2-0.6c0.6,0.7,1.2,1.3,2,1.9c1.5,1.2,2.8,2.2,3.7,3c1.1,0.9,2.2,1.7,3.5,2.5
			c0.6,0.4,1.2,0.8,1.9,1.1c0.8,0.4,1.8,0.8,2.9,1c0.8,0.2,1.7,0.3,2.7,0.3c0.3,0,0.7,0,1.1,0c1.3-0.1,2.7-0.4,4.4-0.8
			c4-0.8,8.3-1.6,12.8-2.5c4.5-0.9,9-1.7,13.3-2.5c3.2-0.6,5.3-1.4,6.4-3.5c0.9-1.9,0.5-3.9-0.1-5.8
			C753.8,233.9,753.4,232.6,752.8,231.2z M611,205.8c-0.6,0.1-1.3,0.1-1.9,0.2c2.1-4.1,4.1-8.1,6.2-12c0.4-0.8,0.8-1.6,1.2-2.3
			c0,0.2,0,0.3,0,0.5c0,4.3,0.1,8.7,0.2,13C614.9,205.4,613,205.6,611,205.8z"/>
		<path d="M972.8,158.7c-0.7-2.1-2.3-4-4.9-5.8c-2-1.4-4.4-2.6-7-3.8c-2.5-1.1-4.9-1.9-7.1-2.5c-1.7-0.6-3.2-0.9-4.5-0.9
			c-1.2,0-2.2,0.2-3.1,0.6c-2.3,1-3.8,3.2-4.6,6.5c-1.2,4.4-2.4,9.5-3.7,15c-0.8,3.3-1.5,6.6-2.3,10c0-0.1,0-0.2,0-0.4
			c0-1.1,0-2.2,0-3.4c0-1.5-0.3-3-0.6-4.5c-0.4-1.6-1.1-3.2-2-4.8s-2.3-3.2-3.9-4.8c0,0,0-0.1-0.1-0.1c-2.4-2.1-5.3-4.1-8.7-5.9
			c-3.3-1.7-6.6-3.2-9.8-4.3c-0.1,0-0.1,0-0.2-0.1c-2.3-0.7-4.7-1.1-6.9-1.2c-0.6,0-1.2-0.1-1.7-0.1c-1.5,0-3,0.1-4.5,0.4
			c-2,0.3-3.8,0.9-5.4,1.6c-1.5,0.7-2.8,1.4-3.8,2.1c-2.7,1.7-5.3,3.7-7.9,6.1c-2.6,2.4-5,4.9-7.1,7.7c0,0.1-0.1,0.1-0.1,0.2
			c-0.1-0.6-0.2-1.2-0.4-1.7c-0.4-1.1-1.1-2.1-2-3c-0.7-0.7-1.7-1.4-2.9-2.2c0,0-0.1-0.1-0.1-0.1c-1.9-1.1-4-2.3-6.3-3.5
			c-2.5-1.3-4.8-2.2-7-2.8c-1.4-0.4-2.8-0.6-4-0.6c-1.1,0-2.2,0.1-3.1,0.4c-1.4,0.4-4.6,1.9-5.1,7c-0.8,4.2-1.7,8.9-2.7,14.3
			c-1,5.3-2.2,10.8-3.4,16.3c-1.3,5.5-2.6,10.9-4,16.1c-1.4,5.1-2.9,9.6-4.5,13.5c-1.5,3.6-3,6.4-4.5,8.4c-0.5,0.7-1,1-1.2,1.2
			c-0.1-0.1-0.2-0.4-0.3-0.8c-0.4-1.7-0.6-4-0.4-6.9c0.2-3,0.6-6.5,1.3-10.4c0.7-3.9,1.6-8,2.6-12.2s2.1-8.3,3.3-12.4
			c1.2-4.1,2.3-8,3.4-11.5c0,0,0-0.1,0-0.1c1.6-5.8-0.3-10.9-5.3-14.6c-1.9-1.4-4-2.7-6-3.7c-2.1-1.1-4.3-1.9-6.5-2.6
			c-1.8-0.6-3.4-0.9-4.8-0.9c-1,0-1.9,0.2-2.8,0.5c-2.3,0.9-3.9,3-4.8,6.2c-1.2,4.4-2.4,9-3.6,13.6c-1.1,4.7-2.2,9.4-3.1,14
			c-0.9,4.6-1.6,9.3-2.2,13.8c-0.6,4.6-0.8,9-0.8,13.1c0,4.2,0.3,8.1,1,11.7c0.7,3.8,2,7.1,3.6,9.8c1.3,2.3,2.9,4.3,4.8,5.9
			c1.7,1.5,3.5,2.8,5.5,3.9c4.5,2.5,10.1,3.9,16.8,4.4c1,0.1,2.1,0.1,3.1,0.1c2.2,0,4.3-0.2,6.1-0.5c2.7-0.5,5.5-1.4,8.2-2.7
			c0.1,0,0.2-0.1,0.2-0.1c3.9-2.2,7.4-5.8,10.5-10.5c1.5-2.3,2.9-4.9,4.3-7.7c0.7,2.1,2.5,4.3,5.7,7c5.8,5.5,11.7,9.4,17.3,11.7
			c5.4,2.2,11,3.3,16.7,3.3c0.4,0,0.7,0,1.1,0c4.5-0.1,8.4-0.7,11.7-1.7c3.3-1.1,6.2-2.5,8.5-4.1c2.4-1.7,4.4-3.6,5.8-5.6
			c0.2-0.3,0.5-0.6,0.7-0.9c-0.1,5.5,2.5,8.8,4.7,10.5c2.9,2.3,6.4,3.4,10.3,3.4h0.3c2,0,3.9-0.4,5.6-1.1c1.5-0.7,2.9-1.5,4.1-2.5
			c1.1-0.9,2.1-2,2.9-3.2c0.8-1.2,1.3-2.2,1.7-3.2c0.4-1.3,0.6-2.7,0.6-4.3c0-1.7-0.5-3.3-1.3-4.9c-0.5-1-1.1-1.9-1.9-2.8
			c0.2-0.1,0.4-0.1,0.5-0.2c1.9-0.9,3.1-2.7,3.8-5.3c1-4,2.2-8.5,3.5-13.2c1.3-4.7,2.8-9.6,4.4-14.7c1.6-5.1,3.3-10.3,5-15.5
			c1.8-5.3,3.5-10.5,5.3-15.6C973.5,163.2,973.6,160.8,972.8,158.7z M892.7,228.1c-3.9-0.9-8.5-3.1-13.9-6.4
			c-1.3-0.9-2.8-1.6-4.5-2.1c-1.6-0.5-3.2-0.7-4.9-0.8c-0.4,0-0.8,0-1.2,0c-1.2,0-2.5,0.1-3.7,0.3c-1.7,0.3-3.4,0.7-4.9,1.4
			c0,0-0.1,0-0.1,0c-0.2,0.1-0.3,0.2-0.4,0.2c0.1-0.2,0.2-0.4,0.3-0.7c1.9-5.1,3.7-10.9,5.5-17.3c0.9,1.9,2,3.8,3.2,5.4
			c1.7,2.2,3.6,4.2,5.8,5.9c1.8,1.5,3.8,3,6.1,4.5c2.2,1.4,4.3,2.8,6.5,4.1c2.1,1.3,4.1,2.5,5.9,3.7c1.2,0.8,2.2,1.5,3.1,2.1
			C894.5,228.4,893.6,228.3,892.7,228.1z M928.7,227.7c-0.5,0.4-1,0.8-1.5,1.2c0.1-1,0-2.1-0.2-3.1c-0.5-2.4-1.7-4.8-3.6-6.9
			c-1.6-1.8-3.6-3.6-6-5.3c-2.2-1.6-4.5-3.1-7-4.8c-2.4-1.5-4.8-3.2-7.3-4.8c-2.3-1.5-4.3-3.2-6.1-4.9c0,0,0-0.1-0.1-0.1
			c-1-0.9-1.5-1.8-1.8-2.8c-0.3-1.3-0.3-2.6-0.1-3.9c0.3-1.5,0.8-3,1.6-4.5c0.8-1.6,1.8-3.1,2.9-4.6c1.1-1.4,2.3-2.7,3.5-3.8
			c0.1-0.1,0.2-0.2,0.3-0.3c-0.1,0.6-0.3,1.3-0.4,1.9c-0.4,1.6-0.8,3.2-1.1,4.8c-0.4,1.7-0.7,3.3-0.8,4.6c-0.7,5.5,1.4,13,15.5,17.8
			c1.6,0.7,3,1,4.3,1c0.9,0,1.8-0.2,2.6-0.5c1.7-0.7,3.1-2.1,4.3-4.2c0-0.1,0.1-0.1,0.1-0.2c0.8-1.6,1.7-3.6,2.5-5.9
			c0.7-2.1,1.4-4.5,2.1-6.9c-0.7,3.4-1.3,6.7-1.9,9.9c-1,5.4-1.8,10.1-2.3,14.1c-0.5,2.9-0.3,5.1,0.7,6.9c0.7,1.4,1.8,2.5,3.3,3.5
			C930.9,226.4,929.8,227,928.7,227.7z"/>
	</g>
	<path class="st0" d="M141.5,7.7c6.4,7.7,7.4,14.9,3.2,21.7c-3.4,5.5-6.3,11.6-8.5,18c-2.3,6.5-3.8,13-4.5,19.5s-0.6,12.9,0.3,19.1
		c1,6.2,2.9,11.9,5.9,16.9c0.7,1.2,0.9,1.9,0.6,2.2c-0.3,0.3-1.2,0.5-2.7,0.7c-2.5,0.1-5.1-0.3-7.6-1.2s-4.9-2.9-7-6
		c-3.9-6.2-6.5-13.2-7.9-20.9s-1.5-15.6-0.5-23.7c1.1-8.1,3.3-16.3,6.8-24.4s8.2-15.6,14-22.6C136.1,4.1,138.7,4.3,141.5,7.7z"/>
	<path class="st0" d="M202.9,56.6c-3.2,2.3-6.9,4.5-11,6.8c4.2,2.7,7.2,5.3,9.2,8s3,5.3,3.2,7.9c0.2,2.6-0.3,5.2-1.5,7.7
		c-1.2,2.5-2.8,5.1-4.9,7.6c-2.3,2.7-4.9,4.8-7.8,6.3c-2.9,1.5-5.9,2.6-9,3.1c-3.1,0.6-6.4,0.8-9.7,0.5c-3.3-0.2-6.6-0.8-9.7-1.8
		c-6-1.7-10.5-4.3-13.5-7.8c-3-3.5-4.3-7.4-3.9-11.7c0.2-2.3,0.8-4.4,1.9-6.5c1.1-2.1,2.4-4,4.1-5.8c1.7-1.8,3.7-3.5,5.9-5.1
		s4.5-3.2,6.9-4.7c-5.4-3.6-8.9-7.6-10.4-12c-1.5-4.4-0.9-9.1,1.9-14c2.4-4.3,5.6-8.1,9.7-11.4c4.1-3.3,8.8-6,14.1-8
		c4.5-1.7,8.9-2,13.2-0.9S200,18,204,21.1c2.4,2,4.4,4.1,6.1,6.3s2.8,4.5,3.4,6.9c0.6,2.4,0.7,4.8,0.3,7.3c-0.5,2.5-1.6,5-3.4,7.4
		C208.6,51.9,206.1,54.4,202.9,56.6z M170.1,77.2c-2.2,2.2-3.9,4.4-5,6.8c-0.6,1.2-0.8,2.2-0.8,3.2c0,0.9,0.1,1.7,0.5,2.4
		c0.3,0.7,0.7,1.3,1.3,1.7c0.6,0.4,1.1,0.8,1.7,1c1.7,0.6,3.7,0.3,6-0.8s4.4-3,6.2-5.7c0.8-1.3,1.5-2.6,1.9-3.8
		c0.5-1.3,0.7-2.5,0.7-3.7c0-1.2-0.4-2.4-1-3.6c-0.6-1.2-1.7-2.3-3.2-3.4C175,73,172.3,75.1,170.1,77.2z M179.8,37.1
		c-2.2,2.2-3.8,4.3-4.8,6.3s-1.4,3.9-1.1,5.6c0.2,1.7,1,3.3,2.4,4.6c7.9-4.8,12.9-9.1,15.1-12.7c2.2-3.6,1.2-7.1-3.1-10.4
		C184.9,32.8,182,35,179.8,37.1z"/>
	<path class="st0" d="M277.4,28.8c1.2,2.3,2,4.9,2.6,7.7c0.8,4.9,0.9,10.3,0.5,16.1c-0.4,5.8-1.4,11.6-3,17.4
		c-1.6,5.7-3.7,11.2-6.5,16.3c-2.8,5.1-6.1,9.3-10.1,12.8c-2.8,2.3-5.7,3.8-8.6,4.4s-6.4,0.8-10.3,0.4c-2.5-0.2-5-0.6-7.7-1.2
		s-5.2-1.5-7.7-2.7c-1.6-0.8-3.3-2-5.1-3.5c-1.8-1.5-3.3-3.2-4.4-5.1c-1.4-3.1-2.5-6.7-3.3-10.7c-0.8-4-1.1-8.1-1-12.5
		c0.1-4.3,0.5-8.8,1.4-13.3c0.9-4.5,2.1-8.9,3.9-13.2c1.7-4.3,3.9-8.3,6.6-12.1c2.6-3.8,5.8-7.2,9.4-10.1c2.5-1.9,5.4-3.3,8.7-4.1
		c3.3-0.9,6.4-1,9.3-0.6c3.9,0.6,7.6,1.5,11,2.7c3.5,1.2,6.3,2.7,8.6,4.5C274.3,24.3,276.2,26.5,277.4,28.8z M250.7,34.2
		c-1.9,1.5-3.7,3.6-5.5,6.3c-1.9,2.7-3.6,5.8-5.2,9.3c-1.6,3.5-2.9,7.1-3.9,10.6c-0.9,3.4-1.5,6.8-1.9,10.3
		c-0.4,3.4-0.4,6.6-0.2,9.4c0.2,2.8,0.8,5.3,1.6,7.2s2,3.2,3.5,3.7c1.4,0.4,3,0.1,4.6-0.9c1.6-1,3.2-2.7,4.7-4.9
		c1.5-2.2,3-4.9,4.4-8.2s2.5-6.8,3.4-10.7c0.8-3.3,1.5-6.7,2-10.3s0.8-7.1,0.9-10.5c0.1-3.5-0.1-6.4-0.6-8.8s-1.5-3.8-2.9-4.2
		C254.2,32.1,252.6,32.7,250.7,34.2z"/>
	<path class="st0" d="M319,86.9c3-0.2,5.6-0.3,7.8-0.4c1.6-0.1,2.9,0.2,3.9,0.7s2,1.4,2.9,2.6c0.8,1,1.6,2.2,2.3,3.5
		c0.7,1.3,1.3,2.5,1.6,3.5c0.5,1.2,0.6,2.1,0.1,2.5c-0.5,0.4-1.5,0.7-3,0.9c-2.5,0.1-5.3,0.4-8.6,0.7c-3.3,0.3-6.5,0.7-9.8,1.1
		c-3.3,0.4-6.4,0.8-9.4,1.3s-5.5,0.9-7.5,1.3c-1.5,0.3-2.7,0.4-3.7,0.5c-1,0-1.8,0-2.4-0.2c-0.6-0.1-1.2-0.3-1.7-0.6
		c-0.5-0.3-1-0.6-1.4-1c-0.6-0.4-1.3-0.9-2-1.5s-1.5-1.3-2.3-1.9c-0.8-0.7-1.5-1.4-2.2-2.1s-1.4-1.4-1.9-2c-0.5-0.5-0.9-1-1.3-1.6
		c-0.4-0.6-0.6-1.3-0.8-1.9c-0.1-0.7-0.1-1.3,0.1-1.9c0.2-0.6,0.8-1.2,1.6-1.8c3.6-2.7,7.4-5.8,11.4-9.4c4-3.6,7.8-7.3,11.6-11.1
		c3.8-3.8,7.3-7.6,10.6-11.3c3.3-3.8,6-7.2,8.3-10.3s3.9-5.7,4.8-7.8c0.9-2.1,0.9-3.5,0-4.1c-0.8-0.6-1.9-0.7-3.2-0.4
		c-1.3,0.4-2.7,1.1-4.3,2.1c-1.6,1-3.3,2.3-5,3.8c-1.8,1.5-3.5,3.1-5.2,4.8c-1.3,1-2.7,1.7-4.3,2.2c-1.6,0.5-3.2,0.8-4.9,0.8
		c-1.7,0.1-3.4,0-5.1-0.3c-1.7-0.2-3.3-0.6-4.8-1.2c-0.9-0.3-1.6-0.7-2.2-1.1s-1-1.1-1.1-1.9s-0.1-1.8,0.3-2.9
		c0.3-1.2,1-2.6,1.9-4.3c3.3-5.5,7.3-10.1,12.1-13.8c4.8-3.7,10-6.1,15.7-7.1c3.4-0.6,6.5-0.6,9.5-0.1c3,0.6,5.7,1.5,8.2,2.8
		s4.7,2.8,6.6,4.5s3.4,3.4,4.5,5.1c1.4,2.5,2.4,4.8,2.8,7.1c0.4,2.3,0.4,4.5,0,6.7s-1.1,4.5-2.2,6.7c-1.1,2.2-2.3,4.5-3.9,6.8
		c-1.6,2.7-3.7,5.5-6.1,8.4s-5.1,5.9-8,8.8c-2.9,2.9-6,5.8-9.2,8.5c-3.2,2.7-6.4,5.2-9.5,7.5C313.1,87.4,316,87.1,319,86.9z"/>
	<path class="st0" d="M383,47.7c-0.3,7.5-1.5,14.6-3.4,21.5c-1.9,6.9-4.5,13.3-7.8,19.1s-7.1,10.6-11.4,14.3
		c-3.6,2.9-8.3,4.1-14.4,3.6c-2.9-0.3-3.7-1.4-2.3-3.4c2.7-2.9,5.2-6.4,7.4-10.5s4-8.6,5.6-13.4c1.5-4.8,2.7-10,3.5-15.5
		c0.8-5.5,1.2-11,1.2-16.7s-0.4-11.3-1.2-17c-0.8-5.7-2.1-11.1-3.8-16.4c-0.3-1-0.6-1.9-0.7-2.7s-0.1-1.4,0.2-1.9
		c0.3-0.5,0.8-0.8,1.5-0.9c0.8-0.1,1.9-0.1,3.3,0.2c5.8,1,10.4,3.2,13.6,6.5s5.5,7.2,6.7,11.6C382.7,33,383.4,40.3,383,47.7z"/>
	<path class="st0" d="M463.9,53.2c1.8,0.3,3.5,0.9,5.2,1.5c2.7,1,4.9,2.2,6.6,3.4s3.1,2.5,4.1,3.9c1,1.4,1.7,2.8,2.1,4.4
		s0.6,3.2,0.6,4.9c0.2,3.3-0.1,6.5-1,9.5c-0.9,3.1-2.1,5.9-3.6,8.6c-1.5,2.7-3.2,5-5.2,7.1c-2,2.1-3.9,3.7-5.9,4.9
		c-1.3,0.8-2.7,1.4-4.2,1.9c-1.5,0.6-3.2,0.9-5.2,1c-2,0.1-4.1,0-6.6-0.3c-2.5-0.3-5.2-1-8.3-1.9c-3-1.1-5.6-2.3-7.7-3.7
		s-3.9-2.9-5.2-4.6s-2.3-3.6-3-5.7s-1-4.4-1.1-7c-0.1-3.5,0.2-7.7,1-12.7s2.5-10.3,4.9-16c2.4-5.7,5.8-11.7,10.1-17.9
		s10-12.2,16.9-18.1c0.8-0.7,1.5-1.3,2.1-1.7c0.6-0.4,1.2-0.8,1.9-1c0.6-0.2,1.3-0.3,2.1-0.3c0.8,0,1.8,0.1,2.9,0.4
		c1.1,0.2,2.3,0.5,3.6,0.9c1.3,0.4,2.6,0.8,4,1.2c1.3,0.5,2.5,0.9,3.7,1.4c1.2,0.5,2.1,0.9,3,1.3c1.7,1,2.7,2,3.1,3.1
		c0.3,1-0.3,2.3-2,3.9c-5,4.1-9.5,8.4-13.6,13s-7.8,9.3-11,14.2C460.3,52.8,462.2,52.9,463.9,53.2z M445,85.6c0,2.9,0.9,4.7,2.7,5.4
		c2.2,1,4.5,0.7,6.8-1c2.4-1.7,4.5-4.5,6.4-8.4c1.6-3.3,2.5-6.4,2.7-9s-0.8-4.4-2.8-5.3c-1-0.3-2-0.4-3.2-0.3s-2.4,0.6-3.6,1.2
		s-2.5,1.5-3.6,2.6c-1.2,1.1-2.3,2.4-3.2,3.8C445.7,79,445,82.7,445,85.6z"/>
	<path class="st0" d="M526.7,34.3c-2.1,0.2-4.2,0.5-6.3,0.8s-4,0.5-5.9,0.8s-3.5,0.4-4.8,0.6c-1.6,0.3-3.2,0.3-4.8,0
		s-3.3-1.3-4.8-2.7c-0.5-0.6-1-1.3-1.7-2.1c-0.6-0.8-1.3-1.6-2-2.5s-1.3-1.7-2-2.6c-0.6-0.9-1.1-1.7-1.5-2.5
		c-1.1-1.5-1.5-2.6-1.1-3.2s1.2-1.1,2.5-1.4c2.9-0.8,6.2-1.5,10-2s7.8-1,12-1.4s8.4-0.8,12.6-1c4.2-0.3,8.2-0.5,11.8-0.6
		c2.1,0,3.9,0.3,5.3,0.8s2.8,1.7,4,3.4c1.6,1.8,2.9,3.5,4.1,5.2s2.2,3.2,3.2,4.5c1.2,1.6,1.8,3.2,1.8,4.8c0,1.5-0.7,3.2-2.1,5
		c-3.8,4.9-7.6,10-11.5,15.5c-3.9,5.5-7.7,11.1-11.4,16.9s-7.3,11.5-10.7,17.2c-3.4,5.7-6.4,11.1-9.1,16.3c-0.5,1.2-1.2,1.8-2,1.9
		c-0.8,0.1-1.9-0.1-3.5-0.7c-1.6-0.8-3.1-1.6-4.7-2.6c-1.6-1-3-2-4.3-3.2c-1.2-1.2-1.9-2.2-2-3.2s0.1-2.3,0.7-3.9
		c1.9-4.5,4.1-9.2,6.7-14.1s5.3-9.8,8.2-14.8c2.9-5,6-10,9.2-14.9c3.2-5,6.5-9.8,10-14.5C530.8,33.9,528.8,34.1,526.7,34.3z"/>
	<path class="st0" d="M591,39.3c-1.1,4-2.3,8.3-3.4,12.7c-1.1,4.5-2.3,9-3.4,13.6c-1.1,4.6-2.2,9.1-3.2,13.5s-1.9,8.5-2.7,12.4
		c-0.8,3.9-1.5,7.3-2,10.4c-0.3,1.2-0.8,1.9-1.4,2.3c-0.6,0.3-1.8,0.3-3.5-0.2c-1.6-0.4-3.3-0.8-4.9-1.2c-1.6-0.4-3.2-1-4.9-1.8
		c-1.3-0.8-2.2-1.6-2.6-2.7s-0.5-2.4-0.4-4.2c0.1-2.5,0.5-5.9,1-10.2c0.5-4.3,1.2-8.9,2-13.9c0.8-5,1.7-10.2,2.7-15.5
		c1-5.3,2-10.2,3-14.8c-1.4-0.7-2.5-1.3-3.4-1.8c-0.9-0.5-1.5-1-1.9-1.6s-0.5-1.1-0.5-1.8s0.3-1.5,0.8-2.5c1.2-2.4,2.5-4.8,4.1-7.3
		c1.6-2.5,3-4.7,4.4-6.5c0.7-0.8,1.3-1.5,1.8-2c0.5-0.5,1.1-0.8,1.6-1s1.3-0.3,2-0.2c0.8,0.1,1.6,0.2,2.7,0.5c2,0.6,4,1.3,6,2.2
		c2,0.9,3.9,2.1,5.9,3.4c1.8,1.2,3,2.3,3.5,3.3c0.5,1,0.4,2.3-0.3,4.1C593.1,31.6,592.1,35.3,591,39.3z"/>
	<path class="st0" d="M597.3,46.9c3.1-0.5,6.4-0.9,10-1.2c3.5-0.3,7.2-0.6,10.8-0.9c3.7-0.2,7.2-0.4,10.6-0.4c1.6,0,3,0.4,4.2,1.1
		c1.2,0.8,2.3,1.9,3.4,3.4c1,1.8,1.9,3.4,2.5,4.9s1.3,2.9,2,4.3c0.7,1.7,0.8,2.8,0.3,3.4c-0.5,0.5-1.6,0.9-3.3,0.9
		c-6,0.4-12,0.9-18.1,1.6c-6.1,0.7-11.8,1.7-17,3c-1.4,0.4-2.8,0.4-4-0.1c-1.2-0.5-2.6-1.5-4-3.1c-1.5-1.6-2.8-3.1-3.8-4.6
		s-2.1-3-3-4.6c-2.5-3.7-2-5.8,1.3-6.5C591.5,47.8,594.2,47.4,597.3,46.9z"/>
	<path class="st0" d="M714.3,56.6c-3.2,2.3-6.9,4.5-11,6.8c4.2,2.7,7.2,5.3,9.2,8s3,5.3,3.2,7.9c0.2,2.6-0.3,5.2-1.5,7.7
		c-1.2,2.5-2.8,5.1-4.9,7.6c-2.3,2.7-4.9,4.8-7.8,6.3c-2.9,1.5-5.9,2.6-9,3.1c-3.2,0.6-6.4,0.8-9.7,0.5c-3.3-0.2-6.5-0.8-9.7-1.8
		c-6-1.7-10.5-4.3-13.5-7.8c-3-3.5-4.3-7.4-4-11.7c0.2-2.3,0.8-4.4,1.9-6.5c1.1-2.1,2.5-4,4.2-5.8c1.7-1.8,3.7-3.5,5.8-5.1
		s4.5-3.2,6.9-4.7c-5.4-3.6-8.9-7.6-10.4-12s-0.9-9.1,1.9-14c2.4-4.3,5.6-8.1,9.7-11.4c4.1-3.3,8.8-6,14.1-8c4.5-1.7,8.9-2,13.2-0.9
		s8.4,3.3,12.5,6.4c2.4,2,4.4,4.1,6,6.3s2.8,4.5,3.4,6.9s0.7,4.8,0.3,7.3c-0.5,2.5-1.6,5-3.4,7.4C720,51.9,717.5,54.4,714.3,56.6z
		 M681.5,77.2c-2.2,2.2-3.9,4.4-5,6.8c-0.5,1.2-0.8,2.2-0.8,3.2c0,0.9,0.2,1.7,0.5,2.4s0.7,1.3,1.3,1.7c0.5,0.4,1.1,0.8,1.7,1
		c1.7,0.6,3.7,0.3,6-0.8s4.4-3,6.2-5.7c0.8-1.3,1.5-2.6,2-3.8c0.5-1.3,0.7-2.5,0.7-3.7c0-1.2-0.4-2.4-1-3.6
		c-0.7-1.2-1.7-2.3-3.2-3.4C686.4,73,683.7,75.1,681.5,77.2z M691.2,37.1c-2.2,2.2-3.8,4.3-4.8,6.3s-1.4,3.9-1.1,5.6
		c0.2,1.7,1,3.3,2.4,4.6c7.9-4.8,12.9-9.1,15.1-12.7c2.2-3.6,1.2-7.1-3.1-10.4C696.3,32.8,693.4,35,691.2,37.1z"/>
	<path class="st0" d="M759.4,39.3c-1.1,4-2.3,8.3-3.4,12.7c-1.1,4.5-2.3,9-3.4,13.6c-1.1,4.6-2.2,9.1-3.2,13.5s-1.9,8.5-2.7,12.4
		c-0.8,3.9-1.5,7.3-2,10.4c-0.3,1.2-0.8,1.9-1.4,2.3c-0.6,0.3-1.8,0.3-3.5-0.2c-1.6-0.4-3.3-0.8-4.9-1.2c-1.6-0.4-3.2-1-4.9-1.8
		c-1.3-0.8-2.2-1.6-2.6-2.7s-0.5-2.4-0.4-4.2c0.1-2.5,0.5-5.9,1-10.2c0.5-4.3,1.2-8.9,2-13.9c0.8-5,1.7-10.2,2.7-15.5
		c1-5.3,2-10.2,3-14.8c-1.4-0.7-2.5-1.3-3.4-1.8c-0.9-0.5-1.5-1-1.9-1.6s-0.5-1.1-0.5-1.8s0.3-1.5,0.8-2.5c1.2-2.4,2.5-4.8,4.1-7.3
		c1.6-2.5,3-4.7,4.4-6.5c0.7-0.8,1.3-1.5,1.8-2c0.5-0.5,1.1-0.8,1.6-1s1.3-0.3,2-0.2c0.8,0.1,1.6,0.2,2.7,0.5c2,0.6,4,1.3,6,2.2
		c2,0.9,3.9,2.1,5.9,3.4c1.8,1.2,3,2.3,3.5,3.3c0.5,1,0.4,2.3-0.3,4.1C761.6,31.6,760.5,35.3,759.4,39.3z"/>
	<path class="st0" d="M799.4,39.3c-1.1,4-2.3,8.3-3.4,12.7c-1.1,4.5-2.3,9-3.4,13.6c-1.1,4.6-2.2,9.1-3.2,13.5s-1.9,8.5-2.7,12.4
		c-0.8,3.9-1.5,7.3-2,10.4c-0.3,1.2-0.8,1.9-1.4,2.3c-0.6,0.3-1.8,0.3-3.5-0.2c-1.6-0.4-3.3-0.8-4.9-1.2c-1.6-0.4-3.2-1-4.9-1.8
		c-1.3-0.8-2.2-1.6-2.6-2.7s-0.5-2.4-0.4-4.2c0.1-2.5,0.5-5.9,1-10.2c0.5-4.3,1.2-8.9,2-13.9c0.8-5,1.7-10.2,2.7-15.5
		c1-5.3,2-10.2,3-14.8c-1.4-0.7-2.5-1.3-3.4-1.8c-0.9-0.5-1.5-1-1.9-1.6s-0.5-1.1-0.5-1.8s0.3-1.5,0.8-2.5c1.2-2.4,2.5-4.8,4.1-7.3
		c1.6-2.5,3-4.7,4.4-6.5c0.7-0.8,1.3-1.5,1.8-2c0.5-0.5,1.1-0.8,1.6-1s1.3-0.3,2-0.2c0.8,0.1,1.6,0.2,2.7,0.5c2,0.6,4,1.3,6,2.2
		c2,0.9,3.9,2.1,5.9,3.4c1.8,1.2,3,2.3,3.5,3.3c0.5,1,0.4,2.3-0.3,4.1C801.6,31.6,800.5,35.3,799.4,39.3z"/>
	<path class="st0" d="M852.6,64.4c1.5,0.7,3,1.6,4.4,2.7c2.6,2.2,4.5,4.4,5.8,6.8c1.3,2.3,2,4.7,2.2,7c0.2,2.3-0.2,4.6-1,6.9
		c-0.8,2.3-2,4.3-3.6,6.3c-3.7,4.3-7.8,7.3-12.4,8.8s-9.7,2.4-15.4,2.4c-4.3,0-8.8-0.7-13.5-2.2s-9.5-4.1-14.4-8.1
		c-1.5-1.2-2.6-2.2-3.3-3c-0.7-0.8-1.1-1.6-1.2-2.2s0-1.1,0.4-1.6c0.3-0.4,0.8-0.8,1.4-1.2c2.1-1.3,4.5-1.8,7.1-1.6
		c2.6,0.2,5,0.8,7,1.8c2.9,1.4,5.6,2.4,8,3s4.5,0.8,6.5,0.7s3.7-0.6,5.3-1.3c1.6-0.8,3-1.9,4.4-3.2c1.3-1.4,2.3-2.7,2.9-4.1
		c0.6-1.4,1-2.7,1.1-3.9s0-2.3-0.4-3.3c-0.4-1-0.9-1.7-1.5-2.3c-1.4-1.1-2.8-1.7-4.4-1.8s-3.6,0-6.1,0.3c-3.2,0.4-6.3-0.2-9.4-1.8
		s-5.6-4.1-7.7-7.4c-1.9-2.9-1.5-4.8,1.2-5.7c6.8-2.1,12.5-4.3,17.1-6.5s8.3-4.3,11-6.3c2.7-2,4.5-3.7,5.4-5.3
		c0.9-1.6,0.9-2.9,0.1-4c-0.5-0.8-1.3-1.1-2.6-1.1c-0.8,0-1.7,0.2-2.7,0.5c-1,0.3-2,0.7-3.1,1.2c-1.1,0.5-2.2,1.1-3.2,1.6
		c-1.1,0.6-2.1,1.2-3.1,1.8c-1.4,1-3,1.7-4.8,2c-1.8,0.3-3.7,0.4-5.6,0.2c-1.9-0.2-3.8-0.7-5.5-1.3c-1.8-0.7-3.3-1.5-4.5-2.5
		c-2.5-2.2-2.8-4.4-1-6.7c1.1-1.4,2.5-2.9,4.2-4.5s3.6-3,5.6-4.4c2-1.4,4.3-2.6,6.6-3.7s4.8-1.9,7.2-2.5c1.8-0.3,3.8-0.6,6-0.8
		c2.1-0.2,4.3,0,6.7,0.5c2.3,0.5,4.7,1.5,7.1,2.9c2.4,1.4,4.8,3.6,7.2,6.4c2.4,3,4,5.9,5,8.8c0.9,2.9,1.3,5.6,1.1,8.2
		c-0.2,2.6-0.9,5-2,7.1c-1.1,2.2-2.5,4-4.2,5.4c-2,1.8-4.3,3.4-7,4.9s-5.7,2.9-9.1,4.3C849.4,63.1,851.1,63.7,852.6,64.4z"/>
	<path class="st0" d="M65.1,226.4c0.1,1.4-0.4,3.2-1.6,5.3c-1.2,2.5-2.8,4.7-4.7,6.8c-1.9,2.1-3.8,3.8-5.7,5.1
		c-1,0.6-2.1,1.2-3.4,1.7c-1.3,0.6-2.7,1-4.2,1.3c-1.5,0.3-3,0.6-4.6,0.7s-3.2,0.1-4.7,0c-3.2-0.2-6.1-0.7-8.7-1.5
		c-2.6-0.8-4.9-1.5-7-2.2c-1.9-0.8-3.7-1.9-5.5-3.3c-1.9-1.4-3.3-3.1-4.3-5c-1.8-2.9-3-6.4-3.7-10.4c-0.7-4-1-8.3-0.8-12.8
		c0.2-4.6,0.9-9.2,2-14.1s2.7-9.5,4.7-14.1c2-4.6,4.4-8.9,7.1-13c2.8-4.1,5.9-7.6,9.5-10.7c2.9-2.5,5.8-4.1,8.7-4.8s5.7-1,8.3-0.8
		c1.9,0.2,3.9,0.6,6,1.1c2,0.5,4,1.1,6,1.9c1.9,0.7,3.7,1.5,5.4,2.4c1.7,0.9,3.2,1.7,4.6,2.6c1.3,1.1,2.4,2.2,3.2,3.2
		c0.8,1.1,1.5,2.1,2.1,3.2s0.9,2.2,1.1,3.4s0.3,2.5,0.4,3.9c0.1,1.6,0.1,3.2-0.1,4.9c-0.1,1.7-0.3,3.4-0.5,5.1
		c-0.2,1.7-0.5,3.3-0.8,4.8c-0.3,1.5-0.7,2.9-1.1,4.1c-0.2,0.6-0.4,1.1-0.6,1.5s-0.5,0.9-0.9,1.1c-0.4,0.3-0.9,0.4-1.6,0.5
		c-0.7,0.1-1.6,0-2.8-0.2c-2.2-0.4-4.1-1-5.6-1.7s-2.9-1.6-3.9-2.6c-1-1-1.8-2.1-2.5-3.4c-0.6-1.3-1.1-2.8-1.3-4.5
		c-0.2-1.4-0.3-2.8-0.3-4c0.1-2.2,0-4.2-0.3-5.9s-1.1-2.9-2.5-3.5c-1.4-0.4-3,0.4-4.8,2.4s-3.7,4.6-5.6,7.7
		c-1.9,3.2-3.7,6.7-5.4,10.5c-1.7,3.8-3,7.4-4,10.7c-0.9,3.4-1.6,6.8-2,10.2c-0.5,3.4-0.6,6.5-0.5,9.2c0.1,2.8,0.6,5.1,1.3,7
		s1.9,3.1,3.3,3.5c2.7,0.9,6.9-1.5,12.5-7.3c4-4.1,9.3-5.2,15.8-3.4C63.6,223.9,65,225,65.1,226.4z"/>
	<path class="st0" d="M104.5,243.1c-4.6,0.9-8.9,1.7-13,2.5c-1.5,0.4-2.8,0.6-3.8,0.7c-1,0.1-1.9,0-2.7-0.1s-1.4-0.4-1.9-0.7
		c-0.5-0.3-1-0.6-1.5-0.9c-1.2-0.8-2.2-1.5-3.2-2.3s-2.2-1.8-3.8-3c-1.2-1-2.1-2-2.7-3.2c-0.6-1.2-0.8-2.6-0.5-4.4
		c0.2-2.7,0.6-5.8,1-9.5c0.5-3.7,1.1-7.6,1.7-11.9s1.4-8.6,2.3-13.2c0.8-4.6,1.7-9.1,2.7-13.6s1.9-8.9,2.9-13c1-4.2,2-8,2.9-11.5
		c0.7-2,1.6-3.2,2.6-3.5c1.1-0.4,2.7-0.3,4.8,0.4c2.1,0.6,4.4,1.3,6.9,2.3c2.5,1,4.6,2.1,6.5,3.3c1.8,1.3,2.9,2.4,3.3,3.4
		c0.4,1,0.4,2.3-0.3,4.1c-1.4,4.1-2.8,8.6-4.2,13.5s-2.8,10-4.2,15.2c-1.4,5.2-2.7,10.4-4,15.5c-1.3,5.2-2.4,10.1-3.5,14.8
		c3.1-0.6,6.1-1,8.8-1.2c2.7-0.3,5.7-0.5,8.9-0.7c1.9-0.1,3.4,0,4.4,0.4s1.9,1.2,2.7,2.5c0.8,1.2,1.5,2.5,2,3.7
		c0.5,1.3,0.9,2.5,1.2,3.6c0.5,1.4,0.6,2.4,0.4,2.9s-1.4,0.9-3.5,1.3C113.5,241.4,109.1,242.2,104.5,243.1z"/>
	<path class="st0" d="M163.4,166.7c0.4,1,0.3,2.4-0.1,4.2c-1,3.1-2,6.6-3.1,10.6c-1.1,4-2.3,8.1-3.4,12.6c-1.1,4.4-2.2,8.9-3.3,13.5
		s-2.1,9.1-3.2,13.5c-1,4.4-2,8.6-2.8,12.5c-0.9,3.9-1.6,7.4-2.2,10.5c-0.3,1.2-0.8,1.9-1.4,2.3c-0.6,0.3-1.8,0.3-3.5-0.1
		c-1.8-0.5-3.5-1-5.1-1.4s-3.1-1.1-4.6-1.9c-1.6-0.8-2.6-1.6-3.1-2.6c-0.5-1-0.7-2.4-0.5-4.1c0.1-2.4,0.4-5.5,0.9-9.3
		c0.5-3.8,1-7.9,1.6-12.5c0.6-4.5,1.4-9.3,2.2-14.3c0.8-5,1.7-9.9,2.5-14.7c0.9-4.8,1.7-9.3,2.6-13.6c0.9-4.3,1.7-8,2.5-11.2
		c0.6-2,1.4-3.2,2.5-3.6s2.6-0.4,4.8,0.3c2.1,0.6,4.4,1.4,6.9,2.5c2.5,1.1,4.6,2.3,6.5,3.5C161.9,164.6,163,165.8,163.4,166.7z"/>
	<path class="st0" d="M218.4,226.4c0.1,1.4-0.4,3.2-1.6,5.3c-1.2,2.5-2.8,4.7-4.7,6.8s-3.8,3.8-5.7,5.1c-1,0.6-2.1,1.2-3.4,1.7
		c-1.3,0.6-2.7,1-4.2,1.3s-3,0.6-4.6,0.7s-3.2,0.1-4.7,0c-3.2-0.2-6.1-0.7-8.7-1.5c-2.6-0.8-4.9-1.5-7-2.2c-1.9-0.8-3.7-1.9-5.5-3.3
		c-1.9-1.4-3.3-3.1-4.3-5c-1.8-2.9-3-6.4-3.7-10.4c-0.7-4-1-8.3-0.8-12.8c0.2-4.6,0.9-9.2,2-14.1s2.7-9.5,4.7-14.1
		c2-4.6,4.4-8.9,7.1-13c2.8-4.1,5.9-7.6,9.5-10.7c2.9-2.5,5.8-4.1,8.7-4.8s5.7-1,8.3-0.8c1.9,0.2,3.9,0.6,5.9,1.1
		c2.1,0.5,4,1.1,5.9,1.9c1.9,0.7,3.7,1.5,5.4,2.4s3.3,1.7,4.6,2.6c1.3,1.1,2.4,2.2,3.2,3.2c0.9,1.1,1.5,2.1,2.1,3.2
		c0.5,1.1,0.9,2.2,1.1,3.4s0.3,2.5,0.4,3.9c0.1,1.6,0.1,3.2-0.1,4.9c-0.1,1.7-0.3,3.4-0.5,5.1c-0.2,1.7-0.5,3.3-0.8,4.8
		c-0.3,1.5-0.7,2.9-1.1,4.1c-0.2,0.6-0.4,1.1-0.6,1.5c-0.2,0.5-0.5,0.9-0.9,1.1c-0.4,0.3-0.9,0.4-1.6,0.5c-0.7,0.1-1.6,0-2.8-0.2
		c-2.2-0.4-4.1-1-5.6-1.7c-1.6-0.7-2.9-1.6-3.9-2.6c-1-1-1.9-2.1-2.5-3.4c-0.6-1.3-1.1-2.8-1.3-4.5c-0.2-1.4-0.3-2.8-0.3-4
		c0.1-2.2,0-4.2-0.3-5.9s-1.1-2.9-2.5-3.5c-1.4-0.4-3,0.4-4.8,2.4s-3.7,4.6-5.6,7.7c-1.9,3.2-3.7,6.7-5.4,10.5
		c-1.7,3.8-3,7.4-3.9,10.7c-0.9,3.4-1.6,6.8-2,10.2c-0.4,3.4-0.6,6.5-0.5,9.2c0.1,2.8,0.6,5.1,1.3,7s1.9,3.1,3.3,3.5
		c2.7,0.9,6.9-1.5,12.5-7.3c4-4.1,9.3-5.2,15.8-3.4C216.9,223.9,218.3,225,218.4,226.4z"/>
	<path class="st0" d="M270.4,220.6c1.6,2.4,3.2,4.6,4.8,6.8c1.6,2.2,3.1,4.2,4.5,6.1c1.4,1.9,2.7,3.4,3.8,4.6
		c1.2,1.2,1.6,2.1,1.4,2.8s-1.1,1.4-2.6,2.1c-0.9,0.5-1.9,0.9-3.1,1.2s-2.4,0.6-3.5,0.7c-1.8,0.5-3.6,0.6-5.4,0.3s-3.7-1.4-5.5-3.4
		c-0.8-0.8-1.8-1.9-3.1-3.4c-1.3-1.4-2.7-3.1-4.3-4.9c-1.5-1.9-3.1-3.8-4.8-5.9c-1.7-2.1-3.2-4.1-4.7-6.2c-0.9,4.5-1.7,8.6-2.4,12.4
		c-0.7,3.8-1.3,7.2-1.9,10.3c0,1-0.2,1.7-0.7,2.1c-0.5,0.4-1.2,0.6-2.1,0.5c-0.9,0-2-0.2-3.2-0.6c-1.3-0.4-2.6-0.8-4.1-1.2
		c-3.1-0.8-5.3-1.9-6.7-3.1s-2-3.1-1.9-5.6c0.1-2.4,0.3-5.5,0.6-9.4c0.3-3.9,0.8-8.1,1.3-12.8c0.6-4.6,1.2-9.5,1.9-14.6
		c0.7-5.1,1.4-10.1,2.1-15s1.5-9.5,2.3-13.9c0.8-4.4,1.5-8.2,2.1-11.4c0.6-1.9,1.4-3.1,2.5-3.5c1.1-0.4,2.6-0.4,4.6,0.3
		c2.2,0.6,4.5,1.4,7,2.5c2.5,1.1,4.7,2.3,6.5,3.5c1,0.7,1.8,1.3,2.5,1.8c0.6,0.5,1.1,1,1.3,1.6s0.4,1.1,0.3,1.8
		c-0.1,0.6-0.2,1.4-0.5,2.3c-1,3.5-2,7.5-3.1,11.9s-2.1,9.4-3.3,14.7c2.9-3.1,6-6.5,9.3-10.1c3.4-3.6,6.6-7.1,9.8-10.6
		c3.2-3.5,6.1-6.8,8.9-9.9c2.8-3.1,5-5.8,6.8-8c1.2-1.5,2.3-2.3,3.3-2.3c1.2,0,2.5,0.6,3.9,1.9c1.5,1.3,2.8,2.7,3.7,4.3
		c1,1.6,1.9,3.3,2.8,5.1c0.5,1.5,0.7,3,0.6,4.4s-0.9,3.2-2.2,5.3c-1.6,2.6-3.7,5.5-6.3,8.7s-5.5,6.4-8.6,9.7
		c-3.1,3.3-6.3,6.6-9.7,9.9s-6.5,6.4-9.5,9.2C267.3,215.9,268.8,218.2,270.4,220.6z"/>
	<path class="st0" d="M394.8,173.6c-3.1,0.3-6.4,0.6-9.7,1c-1.4,5.7-2.9,11.7-4.5,17.9c-1.5,6.1-3,12.3-4.5,18.3
		c-1.4,6.1-2.8,11.9-4,17.7c-1.3,5.7-2.4,11.1-3.3,16.1c-0.1,1-0.5,1.6-1,1.9s-1.2,0.4-2.1,0.4c-0.9,0-1.9-0.2-3.1-0.6
		c-1.2-0.3-2.5-0.7-3.9-1.1s-2.7-0.9-3.9-1.3s-2.1-1.1-2.9-1.7c-0.8-0.7-1.4-1.5-1.7-2.4s-0.4-2-0.1-3.3c0.2-3.3,0.6-7.3,1.2-12.1
		c0.6-4.8,1.4-9.9,2.2-15.2c0.9-5.3,1.8-10.7,2.8-16.1c1-5.4,2-10.5,3.1-15.1c-2,0.3-3.9,0.6-5.7,0.9c-1.9,0.2-3.4,0.5-4.6,0.9
		c-1.7,0.4-3.1,0.5-4.2,0.1c-1.1-0.3-2.3-1.2-3.7-2.6c-1.4-1.4-2.8-3.3-4-5.4s-2.2-4-2.9-5.5c-0.8-1.6-1-2.6-0.6-3.1
		c0.4-0.5,1.3-0.9,2.6-1.3c4-0.8,8.6-1.6,13.7-2.3c5.1-0.7,10.3-1.3,15.6-1.9s10.5-1,15.6-1.4c5.1-0.4,9.7-0.6,13.7-0.8
		c2.1,0,3.6,0.2,4.6,0.6c0.9,0.4,1.7,1,2.4,1.9c1.4,1.6,2.5,3.3,3.4,5.1c0.9,1.9,1.6,3.7,2,5.4c0.4,1.6,0.4,2.6,0,3.2
		s-1.6,0.9-3.7,1.1C400.8,173,397.9,173.3,394.8,173.6z"/>
	<path class="st0" d="M467.2,170.4c1.2,2.4,2.1,5,2.6,8.1c0.8,5,0.9,10.4,0.5,16.3c-0.4,5.9-1.4,11.7-3,17.4s-3.8,11.2-6.6,16.4
		c-2.8,5.1-6.2,9.5-10.2,13c-2.7,2.1-5.6,3.5-8.6,4.3s-6.5,0.9-10.4,0.5c-2.6-0.3-5.3-0.7-8-1.3c-2.7-0.6-5.2-1.4-7.5-2.6
		c-1.9-1-3.7-2.2-5.4-3.7s-3.2-3.2-4.2-5.1c-1.6-3.1-2.9-6.7-3.7-10.7c-0.8-4-1.2-8.1-1.1-12.5c0.1-4.4,0.6-8.8,1.5-13.4
		c1-4.6,2.4-9,4.2-13.3s4.1-8.4,6.8-12.3c2.7-3.9,5.8-7.3,9.4-10.4c2.4-1.9,5.3-3.3,8.6-4.2c3.3-1,6.5-1.2,9.5-0.7
		c3.9,0.6,7.6,1.6,11.1,2.9c3.5,1.3,6.4,2.9,8.8,4.7C464.1,165.9,466,168.1,467.2,170.4z M440.2,175.8c-1.8,1.7-3.6,3.9-5.3,6.8
		c-1.8,2.9-3.4,6.1-5,9.6c-1.5,3.5-2.8,6.9-3.7,10.2c-1,3.2-1.6,6.6-2,10c-0.4,3.4-0.5,6.7-0.4,9.6c0.1,3,0.6,5.5,1.4,7.6
		s2,3.4,3.6,3.9c1.4,0.5,2.9,0.2,4.5-0.9s3.1-2.8,4.7-5c1.6-2.3,3.1-5,4.5-8.4s2.6-6.9,3.6-10.8c0.9-3.2,1.6-6.8,2.1-10.6
		c0.5-3.9,0.8-7.5,0.8-10.8c0-3.4-0.3-6.3-1-8.8c-0.6-2.4-1.7-3.9-3-4.3C443.6,173.5,442,174.1,440.2,175.8z"/>
	<path class="st0" d="M567.5,226.4c0.1,1.4-0.4,3.2-1.6,5.3c-1.2,2.5-2.8,4.7-4.7,6.8s-3.8,3.8-5.7,5.1c-1,0.6-2.1,1.2-3.4,1.7
		c-1.3,0.6-2.7,1-4.2,1.3c-1.5,0.3-3,0.6-4.6,0.7s-3.2,0.1-4.7,0c-3.2-0.2-6.1-0.7-8.7-1.5c-2.6-0.8-4.9-1.5-7-2.2
		c-1.8-0.8-3.7-1.9-5.5-3.3c-1.8-1.4-3.3-3.1-4.3-5c-1.8-2.9-3-6.4-3.7-10.4c-0.7-4-1-8.3-0.8-12.8c0.2-4.6,0.9-9.2,2-14.1
		s2.7-9.5,4.7-14.1c2-4.6,4.4-8.9,7.1-13c2.8-4.1,5.9-7.6,9.5-10.7c2.9-2.5,5.8-4.1,8.7-4.8c2.9-0.8,5.7-1,8.3-0.8
		c1.9,0.2,3.9,0.6,6,1.1c2,0.5,4,1.1,6,1.9c1.9,0.7,3.7,1.5,5.4,2.4s3.3,1.7,4.6,2.6c1.3,1.1,2.4,2.2,3.2,3.2s1.5,2.1,2,3.2
		s0.9,2.2,1.1,3.4s0.3,2.5,0.4,3.9c0.1,1.6,0,3.2,0,4.9c-0.1,1.7-0.3,3.4-0.5,5.1c-0.2,1.7-0.5,3.3-0.8,4.8
		c-0.3,1.5-0.7,2.9-1.1,4.1c-0.2,0.6-0.4,1.1-0.6,1.5s-0.5,0.9-0.9,1.1c-0.4,0.3-0.9,0.4-1.6,0.5c-0.7,0.1-1.6,0-2.8-0.2
		c-2.2-0.4-4.1-1-5.6-1.7s-2.9-1.6-3.9-2.6c-1-1-1.8-2.1-2.5-3.4c-0.6-1.3-1.1-2.8-1.3-4.5c-0.2-1.4-0.3-2.8-0.3-4
		c0.1-2.2,0-4.2-0.3-5.9s-1.1-2.9-2.5-3.5c-1.4-0.4-3,0.4-4.8,2.4c-1.8,2-3.7,4.6-5.6,7.7c-1.9,3.2-3.7,6.7-5.4,10.5
		c-1.7,3.8-3,7.4-4,10.7c-0.9,3.4-1.6,6.8-2,10.2c-0.5,3.4-0.6,6.5-0.5,9.2c0.1,2.8,0.6,5.1,1.3,7s1.8,3.1,3.3,3.5
		c2.7,0.9,6.9-1.5,12.5-7.3c4-4.1,9.3-5.2,15.8-3.4C566.1,223.9,567.4,225,567.5,226.4z"/>
	<path class="st0" d="M608.5,227.5c-5.1,0.7-9.6,1.6-13.5,2.6c-1.4,2.7-2.6,5.1-3.6,7.4c-1,2.3-2,4.5-3,6.7c-0.5,1.2-1.2,1.9-2,2.1
		c-0.8,0.2-2,0-3.5-0.5c-0.9-0.3-1.9-0.7-2.9-1.2c-1.1-0.4-2.1-0.9-3.2-1.5c-0.8-0.6-1.5-1-2.2-1.4c-0.6-0.4-1.1-0.8-1.4-1.4
		c-0.3-0.6-0.5-1.3-0.6-2.1c0-0.9,0.2-2,0.6-3.4c1.6-4.7,3.8-10.3,6.4-16.6c2.6-6.4,5.5-12.9,8.5-19.7c3-6.8,6.2-13.4,9.3-20.1
		s6.2-12.5,9.1-17.6c1-1.9,2.4-3.4,4-4.5c1.6-1.2,4.1-1.6,7.3-1.3c2.8,0.1,5.3,0.4,7.5,0.7s4.2,0.7,6,1.1s3.5,0.9,5,1.3
		c1.5,0.5,3.1,0.9,4.7,1.3c2.1,0.8,3.5,1.7,4,3s0.8,2.8,0.6,4.8c-0.4,4.9-0.8,10.4-1,16.7c-0.3,6.3-0.5,12.9-0.6,19.7
		c-0.1,6.8-0.2,13.7-0.3,20.6c0,6.9,0,13.3,0,19.1c0,1.2-0.3,2.1-0.8,2.6s-1.7,0.7-3.4,0.7s-3.4-0.1-4.9-0.1c-1.5-0.1-3-0.4-4.6-1
		c-1.6-0.5-2.8-1.1-3.4-1.9c-0.7-0.8-1.1-2.1-1.4-4c-0.3-2-0.5-4.1-0.7-6.5c-0.2-2.4-0.4-4.9-0.6-7.7
		C618.7,226.1,613.6,226.8,608.5,227.5z M613.5,209.8c3.1-0.3,6.2-0.6,9.4-0.8c-0.1-5.6-0.2-11.2-0.3-16.8s0-11.1,0.1-16.6
		c-2.7,5-5.7,10.5-8.9,16.6s-6.4,12.3-9.6,18.8C607.3,210.5,610.4,210.1,613.5,209.8z"/>
	<path class="st0" d="M681,243.1c-4.5,0.9-8.9,1.7-13,2.5c-1.5,0.4-2.8,0.6-3.8,0.7c-1,0.1-1.9,0-2.7-0.1s-1.4-0.4-1.9-0.7
		c-0.5-0.3-1-0.6-1.5-0.9c-1.2-0.8-2.2-1.5-3.2-2.3s-2.2-1.8-3.8-3c-1.2-1-2-2-2.7-3.2s-0.8-2.6-0.5-4.4c0.2-2.7,0.5-5.8,1-9.5
		c0.5-3.7,1.1-7.6,1.7-11.9s1.4-8.6,2.3-13.2c0.8-4.6,1.7-9.1,2.7-13.6c1-4.5,1.9-8.9,2.9-13c1-4.2,2-8,2.9-11.5
		c0.7-2,1.5-3.2,2.6-3.5c1.1-0.4,2.7-0.3,4.8,0.4c2.1,0.6,4.4,1.3,6.9,2.3c2.5,1,4.6,2.1,6.5,3.3c1.8,1.3,2.9,2.4,3.3,3.4
		c0.4,1,0.4,2.3-0.3,4.1c-1.4,4.1-2.8,8.6-4.2,13.5s-2.8,10-4.2,15.2c-1.4,5.2-2.7,10.4-4,15.5c-1.3,5.2-2.5,10.1-3.5,14.8
		c3.1-0.6,6.1-1,8.8-1.2c2.7-0.3,5.7-0.5,8.9-0.7c1.9-0.1,3.4,0,4.4,0.4s1.9,1.2,2.7,2.5c0.8,1.2,1.5,2.5,2,3.7
		c0.5,1.3,0.9,2.5,1.2,3.6c0.5,1.4,0.6,2.4,0.4,2.9s-1.4,0.9-3.5,1.3C689.9,241.4,685.5,242.2,681,243.1z"/>
	<path class="st0" d="M735.8,243.1c-4.5,0.9-8.9,1.7-13,2.5c-1.5,0.4-2.8,0.6-3.8,0.7c-1,0.1-1.9,0-2.7-0.1s-1.4-0.4-1.9-0.7
		c-0.5-0.3-1-0.6-1.5-0.9c-1.2-0.8-2.2-1.5-3.2-2.3s-2.2-1.8-3.8-3c-1.2-1-2-2-2.7-3.2s-0.8-2.6-0.5-4.4c0.2-2.7,0.5-5.8,1-9.5
		c0.5-3.7,1.1-7.6,1.7-11.9s1.4-8.6,2.3-13.2c0.8-4.6,1.7-9.1,2.7-13.6c1-4.5,1.9-8.9,2.9-13c1-4.2,2-8,2.9-11.5
		c0.7-2,1.5-3.2,2.6-3.5c1.1-0.4,2.7-0.3,4.8,0.4c2.1,0.6,4.4,1.3,6.9,2.3c2.5,1,4.6,2.1,6.5,3.3c1.8,1.3,2.9,2.4,3.3,3.4
		c0.4,1,0.4,2.3-0.3,4.1c-1.4,4.1-2.8,8.6-4.2,13.5s-2.8,10-4.2,15.2c-1.4,5.2-2.7,10.4-4,15.5c-1.3,5.2-2.5,10.1-3.5,14.8
		c3.1-0.6,6.1-1,8.8-1.2c2.7-0.3,5.7-0.5,8.9-0.7c1.9-0.1,3.4,0,4.4,0.4s1.9,1.2,2.7,2.5c0.8,1.2,1.5,2.5,2,3.7
		c0.5,1.3,0.9,2.5,1.2,3.6c0.5,1.4,0.6,2.4,0.4,2.9s-1.4,0.9-3.5,1.3C744.8,241.4,740.4,242.2,735.8,243.1z"/>
	<path class="st0" d="M798.4,225.7c-0.7-3.3-1-7-1-10.9c0-4,0.3-8.2,0.8-12.6c0.5-4.4,1.3-9,2.2-13.5c0.9-4.6,1.9-9.2,3-13.8
		s2.3-9.1,3.5-13.5c0.5-2,1.3-3.2,2.4-3.6s2.7-0.2,4.9,0.5c2,0.6,4,1.4,5.9,2.4s3.7,2.1,5.5,3.4c3.7,2.7,5,6.1,3.8,10.3
		c-1.1,3.6-2.2,7.4-3.4,11.5s-2.3,8.3-3.3,12.6c-1,4.2-1.9,8.4-2.6,12.4c-0.7,4-1.2,7.7-1.3,10.9c-0.2,3.2,0,5.9,0.5,8
		s1.5,3.4,3,3.8c1.8,0.5,3.7-0.4,5.4-2.7s3.5-5.4,5.1-9.4c1.6-4,3.1-8.6,4.6-13.9c1.5-5.3,2.8-10.7,4.1-16.3
		c1.3-5.6,2.4-11.1,3.4-16.5c1-5.4,2-10.2,2.8-14.5c0.1-2.1,0.9-3.3,2.3-3.7s3-0.4,5,0.1c2,0.5,4,1.3,6.3,2.5
		c2.2,1.1,4.3,2.2,6.1,3.3c1,0.6,1.7,1.2,2.2,1.7c0.5,0.5,0.9,1,1.1,1.6s0.3,1.1,0.2,1.8c-0.1,0.6-0.2,1.4-0.4,2.3
		c-2,9.8-4.1,18.8-6.2,26.9s-4.3,15.4-6.6,21.7c-2.3,6.3-4.9,11.6-7.6,15.8c-2.7,4.2-5.8,7.3-9.1,9.2c-2.4,1.2-4.8,2-7.2,2.4
		c-2.4,0.4-5.1,0.6-8.2,0.4c-6.2-0.4-11.2-1.7-15.2-3.9c-1.7-1-3.3-2.1-4.8-3.4s-2.8-2.9-3.9-4.8
		C800.1,231.9,799.1,229.1,798.4,225.7z"/>
	<path class="st0" d="M867.1,222.9c1.4-0.2,2.7-0.3,4.1-0.2c1.4,0.1,2.7,0.3,4,0.7c1.3,0.4,2.4,0.9,3.4,1.6c5.8,3.6,10.9,5.9,15.2,7
		c4.3,1,7.4,0.8,9.3-0.8c0.8-0.6,1-1.2,0.6-2s-1.3-1.7-2.6-2.7c-1.3-1-2.8-2.1-4.7-3.4c-1.9-1.2-3.9-2.5-6-3.8
		c-2.1-1.3-4.2-2.6-6.4-4.1c-2.1-1.4-4-2.8-5.7-4.3c-1.9-1.5-3.6-3.2-5.1-5.2c-1.5-1.9-2.6-4.1-3.4-6.3s-1.3-4.6-1.3-7.2
		s0.3-5.2,1.2-8c0.6-2.5,1.7-5.1,3.1-7.8c1.5-2.7,3.2-5.4,5.2-7.9c2-2.6,4.2-5,6.7-7.2c2.4-2.2,4.9-4.1,7.4-5.7
		c0.8-0.6,1.9-1.2,3.2-1.8c1.3-0.6,2.8-1,4.4-1.3c1.6-0.3,3.4-0.4,5.3-0.3c1.9,0.1,3.9,0.5,6,1.1c3.1,1.1,6.2,2.5,9.3,4.1
		c3.1,1.6,5.7,3.4,7.8,5.3c1.4,1.3,2.4,2.6,3.2,3.9c0.8,1.3,1.3,2.6,1.6,3.8s0.5,2.4,0.5,3.6c0,1.2,0,2.3,0,3.3
		c-0.3,1.8-0.7,3.8-1.1,6.1c-0.5,2.3-1,4.6-1.7,6.9c-0.7,2.3-1.3,4.6-2,6.7s-1.5,3.9-2.2,5.3c-0.8,1.4-1.7,2.2-2.5,2.6
		c-0.9,0.4-2.1,0.2-3.8-0.6c-9.4-3.1-13.7-7.7-12.9-13.5c0.1-1.2,0.4-2.6,0.8-4.2c0.4-1.6,0.8-3.2,1.1-4.8s0.7-3.1,1-4.6
		c0.3-1.4,0.4-2.6,0.3-3.4c-0.1-0.9-0.5-1.4-1-1.5s-1.5,0.2-2.8,1.2c-1.2,0.6-2.5,1.6-3.8,2.8c-1.4,1.3-2.7,2.7-4,4.3
		c-1.3,1.6-2.4,3.3-3.3,5.2c-1,1.9-1.6,3.7-2,5.6c-0.3,1.9-0.3,3.7,0.1,5.5s1.4,3.4,3,4.9c2,1.9,4.2,3.7,6.7,5.4
		c2.5,1.7,4.9,3.3,7.3,4.9c2.4,1.6,4.7,3.1,6.9,4.7s3.9,3.1,5.3,4.7s2.3,3.3,2.7,5.1s0,3.7-1.1,5.7c-0.7,1.4-1.6,3-2.9,4.7
		s-2.9,3.2-4.9,4.7s-4.5,2.6-7.5,3.6c-2.9,1-6.5,1.5-10.6,1.5c-5.5,0.1-10.9-0.9-16.2-3c-5.2-2.1-10.6-5.8-16.2-11
		c-3-2.5-4.6-4.5-4.7-5.9c-0.1-1.3,0.5-2.3,2-3C864.4,223.5,865.7,223.1,867.1,222.9z"/>
	<path class="st0" d="M930.2,234.1c0.7-1.3,1.6-2.3,2.8-3.2c1.2-0.9,2.7-1.4,4.5-1.6c1.7-0.2,3.7-0.1,5.9,0.6
		c1.8,0.5,3.3,1.2,4.5,2.1c1.2,0.9,2,1.9,2.6,3c0.5,1.1,0.8,2.2,0.9,3.3c0,1.1-0.1,2.1-0.4,2.9c-0.2,0.6-0.6,1.4-1.2,2.2
		s-1.3,1.6-2.2,2.4c-0.9,0.7-1.9,1.3-3.1,1.9c-1.2,0.5-2.5,0.8-4,0.8c-3.2,0.1-6-0.8-8.2-2.6c-2.3-1.8-3.3-4.3-3.2-7.6
		C929.2,236.8,929.6,235.4,930.2,234.1z M971,160c0.4,1.3,0.4,2.8-0.3,4.7c-1.8,5.1-3.5,10.3-5.3,15.6c-1.7,5.3-3.4,10.5-5,15.6
		c-1.6,5.1-3.1,10.1-4.4,14.8c-1.3,4.8-2.5,9.2-3.5,13.3c-0.3,1.4-0.9,2.3-1.6,2.7c-0.7,0.3-1.9,0.3-3.4-0.1
		c-1.9-0.3-3.7-0.8-5.3-1.3c-1.6-0.5-3.2-1.1-4.7-1.9c-1.6-0.8-2.6-1.7-3.1-2.7s-0.6-2.5-0.3-4.5c0.5-4,1.3-8.6,2.3-14
		s2.1-10.9,3.3-16.6c1.2-5.7,2.5-11.3,3.8-16.8c1.3-5.5,2.5-10.5,3.7-14.9c0.5-2.1,1.3-3.4,2.4-3.9s2.7-0.3,4.9,0.4
		c2,0.6,4.3,1.3,6.7,2.4s4.5,2.1,6.3,3.4C969.4,157.4,970.6,158.7,971,160z"/>
</g>
</svg>
