<?xml version="1.0" encoding="utf-8"?>
<!-- Generator: Adobe Illustrator 24.0.2, SVG Export Plug-In . SVG Version: 6.00 Build 0)  -->
<svg version="1.1" id="Layer_1" xmlns="http://www.w3.org/2000/svg" xmlns:xlink="http://www.w3.org/1999/xlink" x="0px" y="0px"
	 viewBox="0 0 520.8 75.7" style="enable-background:new 0 0 520.8 75.7;" xml:space="preserve">
<style type="text/css">
	.st0{fill:#F68A38;}
	.st1{fill:#34A74C;}
	.st2{fill:#96D09E;}
</style>
<g>
	<g>
		<path class="st0" d="M170,38c0-10.7,0.1-21.3-0.1-32c-0.1-4,1.2-5.8,5.4-5.5c4.8,0.3,9.7,0,14.5,0.1c14.7,0.3,23.3,7.5,25.1,22.3
			c1.3,10.4,1.4,20.9-0.2,31.3c-1.9,12.8-10.9,20.6-24,21c-5.3,0.2-10.7-0.2-16,0.1c-3.7,0.2-5-1.2-4.9-4.9
			C170.1,59.6,170,48.8,170,38z M191.8,37.4c0,4.8,0,9.6,0,14.5c0,0.9-0.2,2.2,1.1,2.4s1.8-0.7,1.8-1.8c0-9.8,0-19.6,0-29.4
			c0-1.1-0.7-2.2-1.7-2.2c-1.8,0-1.2,1.6-1.2,2.6C191.8,28,191.8,32.7,191.8,37.4z"/>
		<path class="st0" d="M138.9,41c0,8.6,0.1,16.5,0,24.3c-0.1,11.5,1.6,9.9-10.1,9.9c-11.5,0-9.9,1.7-9.9-10.1
			c-0.1-19.6,0.1-39.3-0.1-58.9c-0.1-4.8,1.5-6.1,6-5.8c7.6,0.6,15.3-0.8,22.9,0.9c13.1,2.9,19.3,18.6,12.1,29.8
			c-1.5,2.3-3.7,3.6-6.7,5.4c9.5,2.9,11.5,9.7,11,17.8c-0.1,1.7,0.1,3.5,1.6,4.4c2.6,1.6,2.3,3.8,1.8,6.1c-1.5,7.3-6.7,11-14.7,10.3
			c-6.2-0.5-10.5-5.1-10.8-12.2c-0.3-5.3-0.1-10.6-0.1-16C141.8,45,142,42.8,138.9,41z M138.9,33.3c3.8-3.4,2.9-6.4,2.7-9.2
			c-0.1-0.8-0.6-1.7-1.5-1.7c-1.5,0-1.1,1.3-1.1,2.2C138.8,27,138.9,29.5,138.9,33.3z"/>
		<path class="st0" d="M91.2,38c0,10.8-0.2,21.6,0.1,32.4c0.1,4.1-1.3,5.3-5.2,4.9c-3-0.3-6-0.3-9,0c-4.4,0.5-5.4-1.5-5.2-5.4
			c0.3-6,0.2-12,0-17.9c0-1.6,1.1-4.4-1.7-4.3c-2.7,0.1-1.5,2.9-1.5,4.5c-0.1,6.2-0.2,12.3,0,18.4c0.1,3.3-0.8,4.7-4.4,4.8
			C49.5,75.5,49.5,75.7,49.5,61c0-18.5,0.1-36.9-0.1-55.4c0-3.8,0.9-5.2,5-5.2c14.2,0.1,14.2-0.1,14.2,14.3c0,3.3-0.1,6.7,0,10
			c0,1.3-0.7,3.4,1.8,3.3c1.8-0.1,1.5-1.9,1.5-3.2c0-6.5,0.2-13-0.1-19.5c-0.1-3.6,0.8-5.3,4.7-4.9c3.3,0.3,6.7,0.2,10,0
			c3.5-0.2,4.7,1,4.6,4.6C91.1,16,91.2,27,91.2,38z"/>
		<path class="st0" d="M433.7,38c0-6.9-0.9-14,1-20.8C437.6,6.9,445,0.7,455.1,0.4C465.3,0,473.4,5.9,476.8,16
			c0.2,0.5,0.4,0.9,0.5,1.4c3.5,11.8,2.7,12.9-9.5,13c-1.3,0-2.7,0-4,0.1c-7.6,0.5-7.9-0.5-7.2-6.3c0.1-1.2,0.5-3.1-1.4-3.1
			c-1.7,0-1.5,1.9-1.5,3.2c0,8.8,0,17.6,0,26.4c0,1.5,0,3.5,2,3.3c1.8-0.2,1-2.2,1-3.3c0.3-9.3,0.3-9.3,9.4-8.8
			c1.2,0.1,2.3,0.2,3.5,0.2c9,0.2,9.2,0.2,8.2,9.3c-1,9.8-4,18.8-14.4,22.6c-14.3,5.2-28-4-29.6-19.7C433.2,49,433.7,43.4,433.7,38z
			"/>
		<path class="st0" d="M408.7,0.6c13.8,0.1,10.5-1.6,13.1,11c4,19.3,7.7,38.7,11.6,58.1c0.9,4.4,0,6.3-4.8,5.7
			c-4.4-0.6-9.7,1.7-13.1-1c-3.3-2.6-1.9-8.1-2.7-12.3c-0.5-2.7-1.5-3.6-4.2-3.7c-2.9,0-3.8,1.4-4,3.9c-0.2,2-0.5,4-0.8,5.9
			c-1.1,7.1-1.1,7.1-8.5,7.1c-11.8,0-11.9,0-9.8-11.7c3.6-19.6,7.4-39.1,11.1-58.7c0.6-3.2,2-4.6,5.4-4.3
			C404.3,0.7,406.5,0.6,408.7,0.6z M409.5,38.4c-0.4,0-0.8-0.1-1.1-0.1c-0.4,2.4-0.7,4.8-1.1,7.1c-0.3,1.4-0.3,2.7,1.6,2.9
			c2.2,0.2,2-1.3,1.8-2.6C410.3,43.2,409.9,40.8,409.5,38.4z"/>
		<path class="st0" d="M481.7,37.8c0-10.8,0.1-21.6-0.1-32.4c-0.1-3.8,1.3-4.9,4.9-4.9c9.8,0.2,19.7,0.2,29.5,0
			c3.1,0,4.7,0.7,4.5,4.2c-0.2,4.2-0.1,8.3,0,12.5c0,2.5-1,3.6-3.5,3.6c-3.8-0.1-7.7,0.1-11.5,0c-2.6-0.1-3.9,0.6-3.9,3.6
			c0,2.8,1.3,3.6,3.6,3.2c5.1-0.8,6.5,1.5,5.8,6.1c-0.3,1.8,0,3.7,0,5.5c0,7.2,0,7.4-7.1,8.2c-3,0.3-2.3,2.2-2.4,3.9
			c-0.1,1.8,0,3.3,2.5,3.2c4.2-0.1,8.3,0.1,12.5-0.1c2.9-0.1,4.3,0.7,4.2,3.9c-0.2,4.5-0.2,9,0,13.5c0.1,2.9-1.2,3.7-3.9,3.7
			c-10.3-0.1-20.6-0.1-31,0c-3.5,0.1-4.2-1.5-4.2-4.6C481.8,59.8,481.7,48.8,481.7,37.8z"/>
		<path class="st0" d="M295.5,37.7c0-10.7,0.1-21.3-0.1-32c-0.1-3.8,1.1-5.4,5.1-5.2c6.3,0.3,12.7,0,19,0.1
			C332,0.9,340,9.3,340.1,22.1c0.1,11-7.7,18.8-19.8,19.2c-3.3,0.1-3.8,1.3-3.8,4.1c0.1,8.5-0.1,17,0.1,25.5
			c0.1,3.5-1.1,4.7-4.6,4.5c-4-0.2-8-0.2-12,0c-3.5,0.2-4.7-1.3-4.7-4.7C295.5,59.7,295.5,48.7,295.5,37.7z M316.4,24.3
			c1.1,1.2-1.3,4.4,1.7,4.4c1.9,0.1,1.6-2.8,1.6-4.6c0-1.8,0.3-4.4-1.9-4.3C315.7,19.9,316.9,22.5,316.4,24.3z"/>
		<path class="st0" d="M12.9,47.9c0-7.5-0.2-15,0.1-22.5c0.1-3.8-1.4-5.2-5-4.8c-1,0.1-2-0.1-3,0c-3.5,0.4-5.3-0.8-5-4.7
			c0.3-4,0.2-8,0-12c0-2.4,1-3.4,3.6-3.4c12.8,0.1,25.7,0.1,38.5,0c3.1,0,4.1,1.3,4,4.3c-0.2,4-0.2,8,0,12c0.2,3.1-1.2,4.1-4.1,4
			c-10.6-0.5-8.8,0.8-8.9,9.4c-0.1,13.3-0.2,26.6,0.1,39.9c0.1,4.3-1.4,5.6-5.5,5.3c-3.5-0.3-7-0.2-10.5,0c-3.3,0.2-4.3-1.3-4.3-4.4
			C13,63.2,12.9,55.6,12.9,47.9z"/>
		<path class="st0" d="M362.1,27.7c0,7.6,0.1,15.3,0,22.9c0,2.8,0.9,3.9,3.8,3.7c4-0.2,8,0,12-0.1c2.8-0.1,3.9,1.1,3.8,3.9
			c-0.1,4.3-0.1,8.6,0,13c0.1,2.9-0.9,4.3-4,4.2c-10.5-0.1-21-0.1-31.4,0c-2.6,0-3.5-1.1-3.5-3.6c0-22.4,0-44.9,0-67.3
			c0-2.7,1-4.1,3.8-3.9c0.2,0,0.3,0,0.5,0c15.2-0.7,15.2-0.7,15.2,14.7C362.1,19.4,362.1,23.6,362.1,27.7z"/>
		<path class="st0" d="M114.9,37.8c0,11-0.1,21.9,0.1,32.9c0.1,3.5-1.1,4.8-4.6,4.6c-3.6-0.2-7.3-0.2-11,0c-3,0.1-4.3-1-4.3-4
			c0-22.5,0-44.9,0-67.3c0-2.7,1.1-3.6,3.6-3.4c0.3,0,0.7,0,1,0c4.8,0.3,10.8-2,14,1c3.3,3,1,9.1,1.1,13.8
			C115,22.8,114.9,30.3,114.9,37.8z"/>
		<path class="st0" d="M240.8,36.4c4.3,0,8.7-0.2,13,0.1c4.2,0.2,6.7-1.4,7.4-5.6c0.2-1.1,0.6-2.3,0.7-3.4c0.5-4.5,2.5-7,7.5-6
			c1.6,0.3,3.3,0,5,0c8.9,0.1,12.3,2.8,13.9,11.6c0.7,3.6,0.7,7.3,0.1,10.9c-1.6,9-5.6,12-14.5,10.8c-3.4-0.5-7.5,1.3-10.1-1.1
			c-2.4-2.2-1.9-6.2-2.7-9.4c-0.9-3.3-2.8-5-6.4-5c-8.6,0.1-17.3,0-26-0.1c-1.8,0-5.1,1-5.1-1.4c0-2.9,3.4-1.5,5.4-1.6
			c4-0.2,8-0.1,12-0.1C240.8,36.3,240.8,36.4,240.8,36.4z"/>
		<path class="st1" d="M270.1,19.4c-4,0-8,0-12,0c-6.1-0.1-7.5,1-8.9,6.9c-0.4,1.5-0.6,2.9-0.9,4.4c-0.4,2.7-1.8,4-4.8,3.7
			c-3.1-0.3-6.3-0.3-9.5-0.1c-5.6,0.4-8.7-2.7-10.5-7.5c-2.3-6.1-2.3-12.4-0.3-18.6c2-5.8,4.4-7.4,10.8-7.4c1,0,2,0,3,0
			c10.2,0,10.4,0,12.5,9.6c0.9,4.1,2.9,5.9,7.2,5.8c8.8-0.2,17.6,0,26.5,0.1c1.6,0,4.1-0.6,4.2,1.5c0.1,2.4-2.4,1.4-3.9,1.5
			C279,19.4,274.5,19.3,270.1,19.4C270.1,19.5,270.1,19.4,270.1,19.4z"/>
		<path class="st2" d="M269.3,60.2c-3.7,0-7.3,0-11,0c-6.9-0.1-7.8,0.7-9.4,7.5c-1.7,7.6-1.7,7.6-9.2,7.5
			c-14.5-0.1-19.8-6.5-17.8-21.4c1.1-8.7,4.6-11.7,13.4-11.7c0.7,0,1.3,0,2,0c9.5,0,9.6,0,12,9.1c1.1,4.4,3.5,6.3,8.2,6.1
			c8.8-0.3,17.6-0.1,26.5-0.1c1.2,0,3.2-0.6,3.3,1.2c0.1,2.1-2,1.7-3.4,1.7C279,60.2,274.2,60.2,269.3,60.2z"/>
	</g>
</g>
</svg>
